<svg width="448" height="201" viewBox="0 0 448 201" fill="none" xmlns="http://www.w3.org/2000/svg">
<g style="mix-blend-mode:difference">
<path d="M34.7918 34.0783L28.5307 16.2199L22.2696 34.0783L34.7918 34.0783ZM38.4916 44.6795L18.5699 44.6795L15.3682 54H0.498047L20.9178 0.353699L36.1437 0.353699L56.5634 54H41.6933L38.4916 44.6795Z" fill="white"/>
<path d="M83.7251 24.3309H86.3576C89.1087 24.3309 91.2194 23.7617 92.6898 22.6233C94.1602 21.4849 94.8955 19.8485 94.8955 17.714C94.8955 15.5796 94.1602 13.9431 92.6898 12.8048C91.2194 11.6664 89.1087 11.0972 86.3576 11.0972H83.7251V24.3309ZM114.39 54L97.0299 54L83.7251 33.3668L83.7251 54H69.7799L69.7799 0.353699L91.4803 0.353699C94.4686 0.353699 97.0774 0.804309 99.3067 1.70553C101.536 2.55932 103.362 3.74513 104.785 5.26297C106.256 6.78082 107.347 8.53582 108.058 10.528C108.817 12.5202 109.196 14.6546 109.196 16.9314C109.196 21.0106 108.2 24.3309 106.208 26.8923C104.263 29.4062 101.37 31.1138 97.528 32.015L114.39 54Z" fill="white"/>
<path d="M3.20171 127L12.3088 73.3537H26.1117L36.8552 101.956L47.5275 73.3537H61.3304L70.4375 127H56.5634L51.9387 96.1214L39.2742 127H33.7246L21.7004 96.1214L17.0757 127H3.20171Z" fill="white"/>
<path d="M95.1839 108.644C95.1839 109.829 95.3974 110.944 95.8243 111.988C96.2512 112.984 96.8204 113.861 97.5319 114.62C98.2908 115.379 99.1683 115.972 100.164 116.399C101.208 116.826 102.323 117.039 103.508 117.039C104.647 117.039 105.714 116.826 106.71 116.399C107.754 115.972 108.631 115.379 109.343 114.62C110.102 113.861 110.694 112.984 111.121 111.988C111.596 110.991 111.833 109.924 111.833 108.786C111.833 107.647 111.596 106.58 111.121 105.584C110.694 104.541 110.102 103.639 109.343 102.881C108.631 102.122 107.754 101.529 106.71 101.102C105.714 100.675 104.647 100.461 103.508 100.461C102.323 100.461 101.208 100.675 100.164 101.102C99.1683 101.529 98.2908 102.122 97.5319 102.881C96.8204 103.639 96.2512 104.517 95.8243 105.513C95.3974 106.462 95.1839 107.505 95.1839 108.644ZM111.406 90.5006H124.355V127H111.406V122.944C108.655 126.407 104.931 128.138 100.236 128.138C97.5793 128.138 95.1365 127.664 92.9072 126.715C90.6778 125.719 88.7331 124.344 87.073 122.589C85.4128 120.834 84.1084 118.77 83.1598 116.399C82.2586 114.027 81.8079 111.442 81.8079 108.644C81.8079 106.035 82.2586 103.568 83.1598 101.244C84.061 98.8724 85.318 96.8091 86.9307 95.0541C88.5434 93.2991 90.4644 91.9236 92.6937 90.9275C94.9231 89.884 97.3896 89.3622 100.093 89.3622C104.647 89.3622 108.418 90.9512 111.406 94.1292V90.5006Z" fill="white"/>
<path d="M140.233 90.5006H153.111V96.4771C154.487 94.2952 156.171 92.6351 158.163 91.4967C160.155 90.3109 162.479 89.7179 165.136 89.7179C165.468 89.7179 165.823 89.7179 166.203 89.7179C166.63 89.7179 167.104 89.7654 167.626 89.8602V102.169C165.918 101.315 164.068 100.888 162.076 100.888C159.088 100.888 156.835 101.79 155.317 103.592C153.847 105.347 153.111 107.932 153.111 111.347V127H140.233V90.5006Z" fill="white"/>
<path d="M193.369 67.9464L193.369 103.663L206.887 90.5006L224.532 90.5006L206.247 107.363L225.599 127L207.528 127L193.369 112.13V127H180.491L180.491 67.9464H193.369Z" fill="white"/>
<path d="M261.742 103.45C261.316 101.647 260.438 100.201 259.11 99.1096C257.782 98.0187 256.169 97.4732 254.272 97.4732C252.28 97.4732 250.643 97.9949 249.363 99.0385C248.129 100.082 247.347 101.552 247.015 103.45H261.742ZM246.659 110.92C246.659 116.47 249.268 119.245 254.485 119.245C257.284 119.245 259.395 118.106 260.818 115.83H273.269C270.755 124.178 264.47 128.352 254.414 128.352C251.331 128.352 248.509 127.901 245.947 127C243.386 126.051 241.18 124.723 239.331 123.016C237.528 121.308 236.129 119.268 235.133 116.897C234.137 114.525 233.639 111.869 233.639 108.928C233.639 105.892 234.113 103.165 235.062 100.746C236.01 98.2795 237.362 96.1925 239.117 94.4849C240.872 92.7774 242.983 91.473 245.449 90.5717C247.963 89.6231 250.786 89.1488 253.916 89.1488C256.999 89.1488 259.774 89.6231 262.241 90.5717C264.707 91.473 266.794 92.8011 268.502 94.5561C270.209 96.3111 271.514 98.4693 272.415 101.031C273.316 103.545 273.767 106.391 273.767 109.569V110.92H246.659Z" fill="white"/>
<path d="M303.101 101.244V127H290.223V101.244H285.954V90.5006H290.223V79.5436H303.101V90.5006L310.429 90.5006V101.244L303.101 101.244Z" fill="white"/>
<path d="M336.237 90.5006V127H323.359V90.5006H336.237ZM322.505 76.4842C322.505 75.4882 322.695 74.5632 323.074 73.7094C323.453 72.8082 323.975 72.0256 324.639 71.3615C325.303 70.6975 326.062 70.1757 326.916 69.7962C327.817 69.4168 328.766 69.2271 329.762 69.2271C330.758 69.2271 331.683 69.4168 332.537 69.7962C333.438 70.1757 334.221 70.6975 334.885 71.3615C335.549 72.0256 336.07 72.8082 336.45 73.7094C336.829 74.5632 337.019 75.4882 337.019 76.4842C337.019 77.4803 336.829 78.429 336.45 79.3302C336.07 80.184 335.549 80.9429 334.885 81.607C334.221 82.271 333.438 82.7928 332.537 83.1722C331.683 83.5517 330.758 83.7414 329.762 83.7414C328.766 83.7414 327.817 83.5517 326.916 83.1722C326.062 82.7928 325.303 82.271 324.639 81.607C323.975 80.9429 323.453 80.184 323.074 79.3302C322.695 78.429 322.505 77.4803 322.505 76.4842Z" fill="white"/>
<path d="M352.152 90.5006H365.03V95.1253C366.785 92.9908 368.563 91.5678 370.366 90.8563C372.168 90.0974 374.279 89.7179 376.698 89.7179C379.259 89.7179 381.441 90.1448 383.244 90.9986C385.094 91.805 386.659 92.9671 387.94 94.4849C388.983 95.7182 389.695 97.0937 390.074 98.6116C390.453 100.129 390.643 101.861 390.643 103.805V127H377.765V108.572C377.765 106.77 377.623 105.323 377.338 104.232C377.101 103.094 376.651 102.193 375.987 101.529C375.417 100.959 374.777 100.556 374.066 100.319C373.354 100.082 372.595 99.9634 371.789 99.9634C369.607 99.9634 367.923 100.627 366.737 101.956C365.599 103.236 365.03 105.086 365.03 107.505V127H352.152V90.5006Z" fill="white"/>
<path d="M418.467 108.572C418.467 109.758 418.68 110.873 419.107 111.916C419.534 112.913 420.103 113.79 420.815 114.549C421.574 115.308 422.451 115.901 423.447 116.328C424.491 116.755 425.606 116.968 426.791 116.968C427.93 116.968 428.997 116.755 429.993 116.328C431.037 115.901 431.914 115.308 432.626 114.549C433.384 113.79 433.977 112.913 434.404 111.916C434.879 110.873 435.116 109.782 435.116 108.644C435.116 107.458 434.879 106.367 434.404 105.371C433.977 104.375 433.384 103.497 432.626 102.738C431.867 101.979 430.965 101.386 429.922 100.959C428.926 100.533 427.882 100.319 426.791 100.319C425.653 100.319 424.586 100.556 423.59 101.031C422.594 101.458 421.716 102.05 420.957 102.809C420.198 103.521 419.582 104.375 419.107 105.371C418.68 106.367 418.467 107.434 418.467 108.572ZM447.353 90.5006V124.51C447.353 126.549 447.235 128.376 446.998 129.988C446.76 131.601 446.428 133.024 446.002 134.257C445.432 135.822 444.531 137.269 443.298 138.597C442.112 139.973 440.665 141.159 438.958 142.155C437.25 143.151 435.305 143.933 433.124 144.503C430.989 145.072 428.665 145.356 426.151 145.356C423.305 145.356 420.696 145.001 418.325 144.289C415.953 143.578 413.866 142.582 412.064 141.301C410.309 140.068 408.862 138.597 407.723 136.89C406.585 135.23 405.826 133.403 405.447 131.411H419.961C420.862 133.83 422.902 135.04 426.08 135.04C428.784 135.04 430.847 134.281 432.27 132.763C433.74 131.245 434.475 129.134 434.475 126.431V122.944C433.527 123.846 432.602 124.605 431.701 125.221C430.847 125.79 429.969 126.265 429.068 126.644C428.167 127.024 427.218 127.285 426.222 127.427C425.226 127.617 424.135 127.711 422.949 127.711C420.341 127.711 417.945 127.261 415.763 126.36C413.581 125.458 411.684 124.201 410.071 122.589C408.506 120.976 407.273 119.055 406.372 116.826C405.518 114.549 405.091 112.035 405.091 109.284C405.091 106.485 405.565 103.9 406.514 101.529C407.463 99.1096 408.743 97.0226 410.356 95.2676C412.016 93.4651 413.961 92.0659 416.19 91.0698C418.467 90.0263 420.933 89.5045 423.59 89.5045C427.906 89.5045 431.535 91.1172 434.475 94.3426V90.5006H447.353Z" fill="white"/>
<path d="M19.566 145.354L19.566 187.189H36.286V199H5.62077L5.62077 145.354H19.566Z" fill="white"/>
<path d="M61.3465 180.644C61.3465 181.829 61.56 182.944 61.9868 183.988C62.4137 184.984 62.9829 185.861 63.6944 186.62C64.4533 187.379 65.3308 187.972 66.3269 188.399C67.3705 188.826 68.4851 189.039 69.6709 189.039C70.8093 189.039 71.8765 188.826 72.8726 188.399C73.9162 187.972 74.7937 187.379 75.5051 186.62C76.2641 185.861 76.857 184.984 77.2839 183.988C77.7582 182.991 77.9954 181.924 77.9954 180.786C77.9954 179.647 77.7582 178.58 77.2839 177.584C76.857 176.541 76.2641 175.639 75.5051 174.881C74.7937 174.122 73.9162 173.529 72.8726 173.102C71.8765 172.675 70.8093 172.461 69.6709 172.461C68.4851 172.461 67.3705 172.675 66.3269 173.102C65.3308 173.529 64.4533 174.122 63.6944 174.881C62.9829 175.639 62.4137 176.517 61.9868 177.513C61.56 178.462 61.3465 179.505 61.3465 180.644ZM77.5685 162.501L90.5176 162.501V199L77.5685 199V194.945C74.8174 198.407 71.0939 200.138 66.3981 200.138C63.7419 200.138 61.2991 199.664 59.0697 198.715C56.8404 197.719 54.8957 196.344 53.2355 194.589C51.5754 192.834 50.271 190.77 49.3223 188.399C48.4211 186.027 47.9705 183.442 47.9705 180.644C47.9705 178.035 48.4211 175.568 49.3223 173.244C50.2236 170.872 51.4805 168.809 53.0932 167.054C54.7059 165.299 56.627 163.924 58.8563 162.927C61.0856 161.884 63.5521 161.362 66.2558 161.362C70.8093 161.362 74.5802 162.951 77.5685 166.129V162.501Z" fill="white"/>
<path d="M135.496 180.857C135.496 179.719 135.282 178.651 134.856 177.655C134.429 176.612 133.836 175.711 133.077 174.952C132.318 174.193 131.44 173.6 130.444 173.173C129.448 172.699 128.357 172.461 127.172 172.461C126.033 172.461 124.966 172.675 123.97 173.102C122.974 173.529 122.096 174.122 121.337 174.881C120.626 175.639 120.033 176.541 119.559 177.584C119.132 178.58 118.918 179.647 118.918 180.786C118.918 181.924 119.132 182.991 119.559 183.988C119.985 184.984 120.578 185.861 121.337 186.62C122.096 187.332 122.974 187.924 123.97 188.399C125.013 188.826 126.104 189.039 127.243 189.039C128.381 189.039 129.448 188.826 130.444 188.399C131.44 187.972 132.294 187.379 133.006 186.62C133.765 185.861 134.358 184.984 134.784 183.988C135.259 182.991 135.496 181.948 135.496 180.857ZM119.274 139.946V166.129C122.31 162.951 126.104 161.362 130.658 161.362C133.361 161.362 135.828 161.884 138.057 162.927C140.334 163.924 142.255 165.299 143.82 167.054C145.433 168.762 146.69 170.801 147.591 173.173C148.492 175.497 148.943 177.987 148.943 180.644C148.943 183.347 148.469 185.885 147.52 188.257C146.619 190.628 145.338 192.691 143.678 194.446C142.018 196.201 140.049 197.601 137.773 198.644C135.543 199.64 133.124 200.138 130.516 200.138C125.772 200.138 122.025 198.407 119.274 194.945V199H106.396V139.946H119.274Z" fill="white"/>
</g>
</svg>
