<svg width="426" height="427" viewBox="0 0 426 427" fill="none" xmlns="http://www.w3.org/2000/svg">
<path opacity="0.4" d="M62.2 64.2C62.4 64.4 62.9 64.4 63.1 64.2L63.2 64.1C63.4 63.9 63.4 63.4 63.2 63.2C63 63 62.5 63 62.3 63.2L62.2 63.3C61.8 63.4 61.8 63.9 62.2 64.2ZM65.7 60.6C65.9 60.8 66.4 60.8 66.6 60.6L66.7 60.5C66.9 60.3 66.9 59.8 66.7 59.6C66.5 59.4 66 59.4 65.8 59.6L65.7 59.7C65.5 59.9 65.6 60.3 65.7 60.6ZM69.4 57.1C69.6 57.3 70.1 57.3 70.3 57.1C70.5 56.9 70.6 56.3 70.4 56.1C70.2 55.9 69.8 55.8 69.6 56L69.5 56.1C69.2 56.4 69.3 56.8 69.4 57.1ZM73.2 53.8C73.4 54 73.9 54 74.1 53.8C74.3 53.6 74.6 53.1 74.2 52.8C74 52.6 73.6 52.5 73.3 52.6L73.2 52.7C73.1 52.9 73.1 53.4 73.2 53.8ZM77.1 50.5C77.3 50.7 77.8 50.7 78 50.5L78.1 50.4C78.3 50.2 78.3 49.7 78.2 49.4C78 49.2 77.5 49.2 77.2 49.3L77.1 49.4C76.8 49.6 76.8 50 77.1 50.5C77 50.4 77.1 50.5 77.1 50.5ZM81 47.2C81.2 47.4 81.7 47.4 81.9 47.2L82 47.1C82.2 46.9 82.3 46.5 82.1 46.1C81.9 45.9 81.5 45.8 81.1 46L81 46.1C80.9 46.4 80.8 46.8 81 47.2ZM85 44.1C85.2 44.3 85.7 44.3 85.9 44.1L86 44C86.2 43.8 86.3 43.4 86.1 43C85.9 42.8 85.5 42.7 85.1 42.9L85 43C84.8 43.4 84.7 43.7 85 44.1ZM89.1 41C89.3 41.2 89.7 41.3 89.9 41.1L90 41C90.2 40.8 90.3 40.4 90.2 40.1C90 39.9 89.6 39.8 89.3 39.9L89.2 40C88.9 40.3 88.8 40.7 89.1 41ZM93.3 38.2C93.5 38.4 93.9 38.5 94.1 38.3L94.2 38.2C94.4 38 94.5 37.6 94.4 37.3C94.2 37.1 93.8 37 93.5 37.1L93.4 37.2C93 37.3 93 37.8 93.3 38.2C93.2 38.1 93.2 38.1 93.3 38.2ZM97.5 35.3C97.7 35.5 98.1 35.6 98.3 35.4C98.6 35.3 98.8 34.7 98.5 34.5C98.4 34.2 98 34 97.6 34.3L97.5 34.4C97.2 34.5 97.2 35 97.5 35.3C97.4 35.2 97.5 35.3 97.5 35.3ZM101.8 32.6C102 32.8 102.3 32.8 102.6 32.7L102.7 32.6C103 32.5 103.2 31.9 102.9 31.7C102.8 31.4 102.2 31.2 102 31.5L101.9 31.6C101.6 31.7 101.4 32.3 101.7 32.5L101.8 32.6ZM106.2 30C106.4 30.2 106.7 30.2 107 30.1L107.1 30C107.4 29.9 107.6 29.3 107.3 29.1C107.2 28.8 106.6 28.6 106.4 28.9L106.3 29C106 29.1 105.8 29.7 106.1 29.9C106 29.9 106 29.9 106.2 30ZM110.5 27.5C110.7 27.7 111 27.7 111.3 27.6L111.4 27.5C111.7 27.4 111.9 26.8 111.6 26.6C111.5 26.3 110.9 26.1 110.7 26.4L110.6 26.5C110.3 26.6 110.1 27.2 110.4 27.4L110.5 27.5ZM114.9 25.1C115.1 25.3 115.4 25.3 115.7 25.2L115.8 25.1C116.1 25 116.4 24.5 116 24.2C115.9 23.9 115.4 23.6 115.1 24L115 24.1C114.7 24.2 114.4 24.7 114.8 25C114.9 25.1 114.9 25.1 114.9 25.1ZM119.5 22.8C119.7 23 120 23 120.3 22.9C120.6 22.8 120.9 22.3 120.8 22C120.7 21.7 120.3 21.5 120 21.7L119.9 21.8C119.6 21.9 119.3 22.4 119.7 22.7C119.5 22.8 119.5 22.8 119.5 22.8ZM124.1 20.7C124.3 20.9 124.6 20.9 124.9 20.8C125.2 20.7 125.5 20.2 125.4 19.9C125.3 19.6 124.9 19.4 124.6 19.6L124.5 19.7C124.2 19.8 123.9 20.3 124.3 20.6C124 20.6 124.1 20.7 124.1 20.7ZM128.7 18.6C128.9 18.8 129.2 18.8 129.5 18.7L129.6 18.6C129.9 18.5 130.2 18 129.9 17.8C129.8 17.5 129.3 17.2 129.1 17.5L129 17.6C128.7 17.7 128.4 18.2 128.5 18.5L128.7 18.6ZM133.3 16.7C133.5 16.9 133.8 16.9 134.1 16.8L134.2 16.7C134.5 16.6 134.8 16.1 134.7 15.8C134.6 15.5 134.1 15.2 133.8 15.3L133.7 15.4C133.4 15.5 133.1 16 133.2 16.3C133.2 16.6 133.3 16.7 133.3 16.7ZM138 14.9C138.2 15.1 138.5 15.1 138.7 15.1L138.8 15C139.1 14.9 139.4 14.4 139.3 14.1C139.2 13.8 138.7 13.5 138.4 13.6L138.3 13.7C138 13.8 137.7 14.3 137.8 14.6C138 14.7 137.9 14.8 138 14.9ZM142.8 13.1C143 13.3 143.3 13.3 143.5 13.3C143.8 13.2 144.1 12.7 144 12.4C143.9 12.1 143.6 11.8 143.3 11.9H143.1C142.8 12 142.5 12.5 142.6 12.8C142.8 12.9 142.8 13.1 142.8 13.1ZM147.6 11.5C147.7 11.6 148.1 11.7 148.3 11.7H148.5C148.8 11.6 149.1 11.1 149 10.8C148.9 10.5 148.4 10.2 148.1 10.3L148 10.4C147.7 10.5 147.4 11 147.5 11.3L147.6 11.5ZM152.5 10.1C152.6 10.2 153 10.3 153.2 10.3L153.3 10.2C153.6 10.1 153.9 9.6 153.8 9.3C153.7 9 153.2 8.7 152.9 8.8L152.8 8.89999C152.5 8.99999 152.2 9.5 152.3 9.8C152.2 9.8 152.3 9.9 152.5 10.1ZM157.3 8.6C157.4 8.7 157.8 8.8 158 8.8H158.2C158.5 8.7 158.9 8.3 158.8 8C158.7 7.7 158.3 7.29999 158 7.39999H157.8C157.5 7.49999 157.1 7.9 157.2 8.2C157.2 8.5 157.2 8.5 157.3 8.6ZM162.3 7.3C162.4 7.4 162.8 7.5 163 7.5C163.3 7.4 163.7 7 163.6 6.7C163.5 6.4 163.2 6.1 162.8 6.1H162.6C162.3 6.2 161.9 6.59999 162 6.89999C162.1 7.19999 162.1 7.2 162.3 7.3ZM167.2 6.2C167.3 6.3 167.7 6.4 167.8 6.3H168C168.3 6.2 168.7 5.8 168.6 5.5C168.5 5.2 168.1 4.79999 167.8 4.89999H167.6C167.3 4.99999 166.9 5.4 167 5.7C167 6 167.1 6.1 167.2 6.2ZM172.2 5.2C172.3 5.3 172.7 5.4 172.8 5.3H173C173.3 5.2 173.7 4.8 173.6 4.5C173.5 4.2 173.1 3.79999 172.8 3.89999H172.6C172.3 3.99999 171.9 4.4 172 4.7C171.9 4.9 172.1 5 172.2 5.2ZM177.1 4.3C177.2 4.4 177.6 4.49999 177.7 4.39999C178 4.29999 178.4 3.9 178.3 3.6C178.2 3.3 177.9 3 177.5 3H177.3C177 3.1 176.6 3.5 176.7 3.8C176.9 4.1 177 4.2 177.1 4.3ZM182.1 3.5C182.2 3.6 182.4 3.6 182.7 3.6H182.9C183.2 3.5 183.5 3.2 183.5 2.8C183.4 2.5 183.1 2.2 182.7 2.2H182.5C182.2 2.3 181.9 2.6 181.9 3C181.9 3.2 182 3.4 182.1 3.5ZM187.2 2.7C187.3 2.8 187.5 2.8 187.8 2.8H188C188.3 2.7 188.6 2.4 188.6 2C188.5 1.7 188.2 1.39999 187.8 1.39999H187.6C187.3 1.49999 187 1.8 187 2.2C186.9 2.5 187.1 2.6 187.2 2.7ZM192.3 2.2C192.4 2.3 192.6 2.3 192.9 2.3C193.4 2.3 193.7 1.9 193.6 1.6C193.6 1.1 193.4 0.899994 192.9 0.899994H192.7C192.4 0.999994 192.1 1.3 192.1 1.7C192 2 192.1 2.1 192.3 2.2ZM197.2 1.89999C197.3 1.99999 197.4 2.1 197.7 2.1H197.9C198.4 2.1 198.5 1.69999 198.6 1.39999C198.6 0.899994 198.2 0.799997 197.9 0.699997H197.7C197.2 0.699997 197.1 1.09999 197 1.39999C197 1.59999 197.1 1.69999 197.2 1.89999ZM202.2 1.5C202.3 1.6 202.4 1.7 202.7 1.7H202.9C203.4 1.7 203.5 1.3 203.6 1C203.6 0.5 203.2 0.399995 202.9 0.299995H202.7C202.2 0.299995 202.1 0.7 202 1C202.1 1.1 202.1 1.4 202.2 1.5ZM207.4 1.3C207.5 1.4 207.6 1.5 207.9 1.5C208.4 1.5 208.7 1.1 208.6 0.799995C208.6 0.299995 208.4 0.0999985 207.9 0.0999985H207.7C207.2 0.0999985 207 0.299995 207 0.799995C207.2 1.1 207.3 1.2 207.4 1.3ZM212.4 1.2C212.5 1.3 212.6 1.39999 212.9 1.39999H213.1C213.6 1.39999 213.8 1.2 213.8 0.699997C213.8 0.199997 213.6 0 213.1 0H212.9C212.4 0 212.2 0.199997 212.2 0.699997C212.1 0.899997 212.2 0.999997 212.4 1.2ZM217.6 1.2C217.7 1.3 217.8 1.39999 218.1 1.39999H218.3C218.8 1.39999 219 1.2 219 0.699997C219 0.199997 218.8 0 218.3 0H218.1C217.6 0 217.4 0.199997 217.4 0.699997C217.3 0.999997 217.4 1.1 217.6 1.2ZM222.6 1.39999C222.7 1.49999 222.8 1.6 223.1 1.6H223.3C223.8 1.6 224 1.39999 224 0.899994C224 0.399994 223.8 0.199997 223.3 0.199997H223.1C222.6 0.199997 222.4 0.399994 222.4 0.899994C222.3 1.09999 222.4 1.19999 222.6 1.39999ZM227.6 1.7C227.7 1.8 227.8 1.89999 228.1 1.89999C228.6 1.89999 228.8 1.7 228.9 1.3C229 0.999995 228.7 0.6 228.3 0.5H228.1C227.6 0.5 227.4 0.699997 227.4 1.2C227.5 1.4 227.5 1.6 227.6 1.7ZM232.7 2.2C232.8 2.3 232.9 2.39999 233.2 2.39999C233.5 2.49999 233.9 2.2 234 1.8C234.1 1.5 233.8 1.1 233.4 1H233.2C232.9 0.9 232.5 1.2 232.4 1.6C232.5 1.7 232.5 1.9 232.7 2.2ZM237.7 2.7C237.8 2.8 237.9 2.89999 238.2 2.89999H238.4C238.7 2.99999 239.1 2.7 239.2 2.3C239.3 2 239 1.6 238.6 1.5H238.4C238.1 1.4 237.7 1.7 237.6 2.1C237.4 2.2 237.6 2.6 237.7 2.7ZM242.8 3.39999C242.9 3.49999 243 3.6 243.3 3.6C243.6 3.7 244.1 3.5 244.1 3C244.2 2.7 244 2.2 243.6 2.3H243.4C243.1 2.2 242.7 2.49999 242.6 2.89999C242.5 2.89999 242.5 3.09999 242.8 3.39999ZM247.7 4.1C247.8 4.2 247.9 4.3 248 4.2H248.2C248.5 4.3 248.9 4 249 3.6C249.1 3.3 248.8 2.9 248.4 2.8H248.2C247.9 2.7 247.5 2.99999 247.4 3.39999C247.5 3.69999 247.6 4 247.7 4.1ZM252.7 4.89999C252.8 4.99999 252.9 5.1 253 5H253.2C253.5 5.1 253.9 4.79999 254 4.39999C254.1 4.09999 253.8 3.7 253.4 3.6H253.2C252.9 3.5 252.5 3.8 252.4 4.2C252.6 4.5 252.6 4.79999 252.7 4.89999ZM257.7 5.89999C257.8 5.99999 257.9 6.1 258 6H258.2C258.5 6.1 259 5.89999 259 5.39999C259.1 5.09999 258.9 4.6 258.4 4.6H258.2C257.9 4.5 257.4 4.7 257.4 5.2C257.6 5.5 257.6 5.79999 257.7 5.89999ZM262.7 7.1C262.8 7.2 262.8 7.2 263 7.2H263.2C263.5 7.3 264 7.1 264 6.6C264.1 6.3 263.9 5.8 263.4 5.8L263.3 5.7C263 5.6 262.5 5.8 262.4 6.2C262.4 6.7 262.4 6.9 262.7 7.1ZM267.6 8.39999C267.7 8.49999 267.7 8.5 267.9 8.5C268.2 8.6 268.7 8.4 268.8 8C268.9 7.7 268.8 7.3 268.4 7.2H268.2C267.9 7.1 267.4 7.3 267.3 7.7C267.4 7.9 267.4 8.09999 267.6 8.39999ZM272.5 9.7C272.6 9.8 272.6 9.79999 272.7 9.89999H272.9C273.2 9.99999 273.7 9.79999 273.8 9.39999C273.9 9.09999 273.7 8.6 273.3 8.5L273.2 8.39999C272.9 8.29999 272.4 8.49999 272.3 8.89999C272.3 9.19999 272.3 9.5 272.5 9.7ZM277.4 11.1C277.5 11.2 277.5 11.2 277.6 11.3C277.9 11.4 278.4 11.2 278.5 10.8C278.6 10.5 278.5 10.1 278.1 10H277.9C277.6 9.9 277.1 10.1 277 10.5C277 10.7 277.3 10.9 277.4 11.1ZM282.1 12.8C282.2 12.9 282.2 12.9 282.3 13L282.4 13.1C282.7 13.2 283.2 13 283.3 12.6C283.4 12.3 283.2 11.8 282.8 11.7L282.7 11.6C282.4 11.5 282 11.6 281.8 12.1C281.9 12.3 282 12.6 282.1 12.8ZM287.1 14.5C287.2 14.6 287.2 14.6 287.3 14.7C287.6 14.8 288.2 14.7 288.3 14.3C288.4 14 288.3 13.6 287.9 13.5L287.8 13.4C287.5 13.3 287.1 13.4 286.9 13.9C286.6 14 286.9 14.2 287.1 14.5ZM291.7 16.3C291.8 16.4 291.8 16.4 291.9 16.5L292 16.6C292.3 16.7 292.7 16.6 292.8 16.2C292.9 15.9 292.8 15.5 292.4 15.4L292.3 15.3C292 15.2 291.6 15.3 291.5 15.7C291.5 15.8 291.5 16 291.7 16.3ZM296.5 18.2L296.6 18.3L296.7 18.4C297 18.5 297.4 18.4 297.5 18C297.6 17.7 297.5 17.3 297.1 17.2L297 17.1C296.7 17 296.3 17.1 296.2 17.5C296.3 17.7 296.3 18 296.5 18.2ZM301.1 20.2L301.2 20.3C301.5 20.4 302 20.4 302.2 19.9C302.3 19.6 302.3 19.1 302 19L301.9 18.9C301.6 18.8 301.2 18.9 301.1 19.3C300.9 19.8 300.9 20 301.1 20.2ZM305.7 22.4L305.8 22.5L305.9 22.6C306.2 22.7 306.6 22.6 306.8 22.4C306.9 22.1 306.8 21.7 306.6 21.5L306.5 21.4C306.2 21.3 305.8 21.4 305.6 21.6C305.4 21.9 305.5 22.3 305.7 22.4ZM310.3 24.7L310.4 24.8C310.7 24.9 311.2 24.9 311.3 24.6C311.4 24.3 311.4 23.8 311.1 23.7L311 23.6C310.7 23.5 310.3 23.6 310.1 23.8C310.1 24.2 310.1 24.4 310.3 24.7ZM314.8 27.1L314.9 27.2C315.2 27.3 315.7 27.3 315.8 27C315.9 26.7 316 26.3 315.6 26.1L315.5 26C315.2 25.9 314.8 26 314.6 26.2C314.5 26.5 314.6 26.8 314.8 27.1ZM319.2 29.6L319.4 29.8C319.7 29.9 320.2 29.9 320.3 29.6C320.4 29.3 320.4 28.8 320.1 28.7L320 28.6C319.7 28.5 319.2 28.5 319.1 28.8C318.9 29 319 29.3 319.2 29.6ZM323.5 32.2L323.7 32.4C324 32.5 324.5 32.5 324.6 32.2C324.7 31.9 324.7 31.4 324.4 31.3L324.3 31.2C324 31.1 323.5 31.1 323.4 31.4C323.2 31.6 323.3 32 323.5 32.2ZM327.8 34.8C327.8 34.8 327.9 34.9 327.8 34.8C328.3 35 328.7 35 329 34.8C329.2 34.6 329.2 34.1 328.9 34L328.8 33.9C328.5 33.8 328 33.8 327.9 34.1C327.5 34.2 327.6 34.6 327.8 34.8ZM332.1 37.7L332.3 37.9C332.5 38.1 333.1 38 333.2 37.7C333.4 37.5 333.3 36.9 333 36.8L332.9 36.7C332.7 36.5 332.1 36.6 332 36.9C331.8 37.1 331.9 37.4 332.1 37.7ZM336.2 40.5C336.2 40.5 336.3 40.7 336.2 40.5L336.4 40.7C336.6 40.9 337.2 40.8 337.3 40.5C337.5 40.3 337.4 39.7 337.1 39.6L337 39.5C336.8 39.3 336.2 39.4 336.1 39.7C335.9 39.8 335.9 40.3 336.2 40.5ZM340.4 43.5L340.6 43.7C340.8 43.9 341.3 43.9 341.6 43.6C341.8 43.4 341.8 42.9 341.5 42.6L341.4 42.5C341.2 42.3 340.7 42.3 340.4 42.6C340 42.9 340.1 43.3 340.4 43.5ZM344.3 46.7L344.5 46.9C344.7 47.1 345.2 47.1 345.5 46.8C345.7 46.6 345.7 46.1 345.4 45.8L345.3 45.7C345.1 45.5 344.6 45.5 344.3 45.8C344.1 46 344.1 46.5 344.3 46.7ZM348.3 49.9L348.4 50C348.6 50.2 349.1 50.2 349.4 49.9C349.6 49.7 349.6 49.2 349.3 48.9L349.2 48.8C349 48.6 348.5 48.6 348.2 48.9C348 49.2 347.9 49.6 348.3 49.9ZM352.1 53C352.2 53.1 352.2 53.1 352.1 53C352.4 53.3 352.9 53.3 353.1 53.1C353.3 52.9 353.3 52.4 353.1 52.2L353 52.1C352.8 51.9 352.3 51.9 352.1 52.1C351.8 52.4 351.9 52.8 352.1 53ZM355.8 56.4C355.9 56.6 355.9 56.6 355.8 56.4L355.9 56.5C356.1 56.7 356.6 56.7 356.8 56.5C357 56.3 357 55.8 356.8 55.6L356.7 55.5C356.5 55.3 356 55.3 355.8 55.5C355.6 55.8 355.6 56.2 355.8 56.4Z" fill="#A7A9AC"/>
<path opacity="0.4" d="M362.6 61.6999C358.8 59.9999 353.6 58.4999 349.5 58.3999L355.6 55.1999L358.4 48.7999C358.8 52.9999 360.7 57.9999 362.6 61.6999Z" fill="#A7A9AC"/>
<path opacity="0.4" d="M70.5 370.2C154.4 446.6 284.5 443.8 364.9 362.2C394.4 332.3 413.2 295.7 421.3 257.4" stroke="#A7A9AC" stroke-width="0.8387" stroke-linecap="round" stroke-linejoin="round" stroke-dasharray="0.1 0.1"/>
<path opacity="0.4" d="M64.5 364.4C68.3 366.1 73.5 367.6 77.6 367.7L71.5 370.9L68.8 377.2C68.2 373.2 66.3 368.1 64.5 364.4Z" fill="#A7A9AC"/>
</svg>
