<svg width="559" height="71" viewBox="0 0 559 71" fill="none" xmlns="http://www.w3.org/2000/svg">
<path d="M34.6531 70.9844C28.1531 70.9844 22.3563 69.6719 17.2625 67.0469C12.1688 64.4219 8.16876 60.625 5.26251 55.6562C2.35626 50.6562 0.903137 44.5938 0.903137 37.4688L0.903137 34.3281C0.903137 27.7656 2.23126 21.9688 4.88751 16.9375C7.57501 11.875 11.3875 7.92187 16.325 5.07812C21.2938 2.20312 27.1844 0.765625 33.9969 0.765625C38.7469 0.765625 43.2625 1.40625 47.5438 2.6875C51.8563 3.9375 55.8563 6.09375 59.5438 9.15625L59.5438 26.7344L47.5906 26.7344L45.95 16.6562C44.8875 15.9375 43.7625 15.3125 42.575 14.7812C41.4188 14.25 40.1688 13.8437 38.825 13.5625C37.5125 13.2812 36.0906 13.1406 34.5594 13.1406C31.0906 13.1406 28.0594 13.9687 25.4656 15.625C22.8719 17.2812 20.8563 19.6875 19.4188 22.8437C18.0125 25.9687 17.3094 29.7656 17.3094 34.2344V37.4688C17.3094 41.6562 18.0438 45.3438 19.5125 48.5312C20.9813 51.6875 23.0281 54.1562 25.6531 55.9375C28.3094 57.7187 31.3719 58.6094 34.8406 58.6094C36.6844 58.6094 38.5594 58.4219 40.4656 58.0469C42.3719 57.6406 44.2156 57.1094 45.9969 56.4531L47.6375 46.7969H59.6375V64C56.9188 65.875 53.45 67.5156 49.2313 68.9219C45.0125 70.2969 40.1531 70.9844 34.6531 70.9844Z" fill="white"/>
<path d="M106.972 70.9844C102.253 70.9844 97.9094 70.125 93.9406 68.4062C90.0031 66.6562 86.5813 64.2187 83.675 61.0937C80.7688 57.9687 78.5188 54.3125 76.925 50.125C75.3625 45.9062 74.5813 41.3281 74.5813 36.3906V35.3125C74.5813 30.4062 75.3625 25.8594 76.925 21.6719C78.5188 17.4844 80.7531 13.8281 83.6281 10.7031C86.5344 7.57812 89.9563 5.14062 93.8938 3.39062C97.8313 1.64062 102.159 0.765625 106.878 0.765625C111.503 0.765625 115.8 1.64062 119.769 3.39062C123.738 5.14062 127.206 7.57812 130.175 10.7031C133.175 13.8281 135.503 17.4844 137.159 21.6719C138.816 25.8594 139.644 30.4062 139.644 35.3125V36.3906C139.644 41.3281 138.816 45.9062 137.159 50.125C135.503 54.3125 133.191 57.9687 130.222 61.0937C127.253 64.2187 123.784 66.6562 119.816 68.4062C115.847 70.125 111.566 70.9844 106.972 70.9844ZM106.972 58.5156C110.409 58.5156 113.347 57.5937 115.784 55.75C118.222 53.9062 120.081 51.3281 121.363 48.0156C122.644 44.7031 123.284 40.8281 123.284 36.3906V35.2187C123.284 30.875 122.628 27.0625 121.316 23.7812C120.034 20.4687 118.175 17.8906 115.738 16.0469C113.3 14.2031 110.347 13.2812 106.878 13.2812C103.222 13.2812 100.222 14.1875 97.8781 16C95.5656 17.8125 93.8469 20.3594 92.7219 23.6406C91.5969 26.9219 91.0344 30.7812 91.0344 35.2187V36.3906C91.0344 40.8281 91.5969 44.7187 92.7219 48.0625C93.8781 51.375 95.6281 53.9531 97.9719 55.7969C100.347 57.6094 103.347 58.5156 106.972 58.5156Z" fill="white"/>
<path d="M153.369 70V60.3906L160.4 58.8906V12.9062L153.369 11.4062V1.75L160.4 1.75L185.572 1.75L202.072 46.7031H202.353L218.384 1.75L250.213 1.75V11.4062L243.134 12.9062V58.8906L250.213 60.3906V70L219.65 70V60.3906L227.009 58.8906V49.9844L227.384 17.875L227.103 17.8281L207.791 70H194.853L175.259 18.4375L174.931 18.4844L176.056 47.7344V58.8906L183.978 60.3906V70H153.369Z" fill="white"/>
<path d="M262.625 70V60.3906L269.703 58.8906V12.9062L262.625 11.4062V1.75L269.703 1.75L295.812 1.75C301.25 1.75 305.969 2.70312 309.969 4.60937C313.969 6.51562 317.047 9.17187 319.203 12.5781C321.391 15.9531 322.484 19.8906 322.484 24.3906C322.484 28.8906 321.391 32.8281 319.203 36.2031C317.047 39.5781 313.969 42.2031 309.969 44.0781C305.969 45.9531 301.25 46.8906 295.812 46.8906L286.156 46.8906V58.8906L293.234 60.3906V70H262.625ZM286.156 34.2812L295.812 34.2812C299.156 34.2812 301.688 33.375 303.406 31.5625C305.156 29.7187 306.031 27.3594 306.031 24.4844C306.031 21.5156 305.156 19.0781 303.406 17.1719C301.688 15.2656 299.156 14.3125 295.812 14.3125L286.156 14.3125V34.2812Z" fill="white"/>
<path d="M322.803 70V60.3906L327.584 59.6875L347.928 1.75L365.741 1.75L386.131 59.6875L390.913 60.3906V70H365.413V60.3906L369.866 59.5469L367.803 52.1406H345.866L343.897 59.5469L348.35 60.3906V70H322.803ZM349.334 40.6094H364.288L357.631 19.9375L356.881 17.5469H356.6L355.803 20.1719L349.334 40.6094Z" fill="white"/>
<path d="M403.466 70V60.3906L410.497 58.8906V12.9062L403.466 11.4062V1.75L410.497 1.75L427.231 1.75L454.606 45.4375H454.888V12.9062L445.934 11.4062V1.75L469.466 1.75L476.544 1.75V11.4062L469.466 12.9062V70H453.247L425.356 27.25H425.075V58.8906L434.075 60.3906V70H403.466Z" fill="white"/>
<path d="M508.316 70V60.3906L515.394 58.8906V47.5L495.613 12.3906L488.488 11.4062V1.75L518.019 1.75V11.4062L513.8 12.1562L523.175 30.8594L524.253 33.25H524.675L525.8 31L536.769 12.1562L529.644 11.4062V1.75L558.613 1.75V11.4062L551.394 12.3906L531.8 46.1875V58.8906L538.925 60.3906V70H508.316Z" fill="white"/>
</svg>
