<svg width="322" height="322" viewBox="0 0 322 322" fill="none" xmlns="http://www.w3.org/2000/svg">
<path opacity="0.4" d="M51.4001 272.2C-9.99992 211.8 -10.7999 113 49.7001 51.5C110.1 -9.90003 208.8 -10.6 270.3 49.9C331.7 110.3 332.4 209 272 270.4C211.4 331.8 112.7 332.6 51.4001 272.2ZM269.1 51.1C208.3 -8.80003 110.6 -8.00003 50.7001 52.8C-9.19994 113.6 -8.39992 211.3 52.4001 271.2C113.2 331.1 210.9 330.3 270.8 269.5C330.6 208.7 329.9 110.9 269.1 51.1Z" fill="url(#paint0_linear)"/>
<path opacity="0.5" d="M47 49.4184L56.8127 59C75.3368 40.3359 98.567 26.9616 124 20.2745L120.495 7C92.7594 14.1862 67.3264 28.858 47 49.4184Z" fill="#BCBEC0"/>
<path opacity="0.6" d="M171 15.7688C182.191 16.5729 193.18 18.5829 203.867 22L208 8.73367C196.305 5.11558 184.207 2.90452 172.109 2L171 15.7688Z" fill="#BCBEC0"/>
<path opacity="0.5" d="M229 32.1989C241.2 38.752 252.3 47.0191 262.4 57L272 47.1199C261.2 36.3324 248.9 27.158 235.6 20L229 32.1989Z" fill="#BCBEC0"/>
<path opacity="0.5" d="M303.29 135L317 132.553C314.48 118.791 310.246 105.539 304.5 93L292 99.0146C297.343 110.33 301.173 122.461 303.29 135Z" fill="#BCBEC0"/>
<path opacity="0.6" d="M264 263.326L273.836 273C281.665 265.039 288.691 256.271 294.613 246.899C301.138 236.721 306.558 225.636 310.572 214.147C314.085 204.473 316.595 194.194 318 184.016L304.349 182C302.944 191.473 300.636 200.543 297.524 209.411C293.81 219.791 288.892 229.969 283.071 239.24C277.55 248.109 271.126 256.07 264 263.326Z" fill="#BCBEC0"/>
<path opacity="0.5" d="M215.938 310C222.728 307.5 229.416 304.6 236 301.2L229.21 289C223.243 292 217.276 294.8 211 297L215.938 310Z" fill="#BCBEC0"/>
<path opacity="0.6" d="M132 317.489C139.4 318.788 147 319.688 154.4 319.888C162.1 320.187 170.2 319.888 178 318.988L176.4 305.299C169.2 305.998 162.1 306.298 154.9 306.198C148.1 305.899 141.1 305.299 134.3 304L132 317.489Z" fill="#BCBEC0"/>
<path opacity="0.5" d="M49 274.518C55.6847 280.928 62.861 286.853 70.3322 292L78 280.928C71.0203 276.169 64.4339 270.827 58.4373 265L49 274.518Z" fill="#BCBEC0"/>
<path opacity="0.6" d="M1.46217 173L15.3683 172.096C13.4397 145.569 18.8195 118.742 31 95.1292L18.5149 89C5.11632 114.522 -0.770927 143.861 1.46217 173Z" fill="#BCBEC0"/>
<defs>
<linearGradient id="paint0_linear" x1="271.879" y1="270.419" x2="49.6218" y2="51.5382" gradientUnits="userSpaceOnUse">
<stop stop-color="#F6F7F8"/>
<stop offset="1" stop-color="#BCBEC0"/>
</linearGradient>
</defs>
</svg>
