<svg width="20" height="20" viewBox="0 0 20 20" fill="none" xmlns="http://www.w3.org/2000/svg">
<path fill-rule="evenodd" clip-rule="evenodd" d="M18.1507 4.20509C19.6323 2.12056 20.3186 0.601375 19.8586 0.141405C19.3986 -0.318565 17.8795 0.367738 15.7949 1.84926C14.1601 0.684858 12.16 1.05097e-05 10 1.05097e-05C4.47715 1.05097e-05 0 4.47716 0 10C0 12.16 0.684849 14.1601 1.84925 15.7949C0.367744 17.8795 -0.318551 19.3986 0.141417 19.8586C0.601385 20.3186 2.12056 19.6323 4.20508 18.1508C5.83991 19.3152 7.83997 20 10 20C15.5228 20 20 15.5229 20 10C20 7.83999 19.3151 5.83992 18.1507 4.20509ZM18.1507 4.20509C17.5024 3.29475 16.7053 2.49765 15.7949 1.84926C13.709 3.33175 11.057 5.6105 8.33377 8.33376C5.6105 11.057 3.33174 13.709 1.84925 15.7949C2.49765 16.7053 3.29474 17.5024 4.20508 18.1508C6.29098 16.6683 8.94298 14.3895 11.6663 11.6662C14.3895 8.94298 16.6683 6.29099 18.1507 4.20509Z" fill="#EB5757"/>
</svg>
