<svg width="352" height="34" viewBox="0 0 352 34" fill="none" xmlns="http://www.w3.org/2000/svg">
<path d="M110.68 9.02708C110.68 10.6493 110.375 12.023 109.765 13.1481C109.154 14.247 108.332 15.1367 107.297 15.817C106.262 16.4973 105.068 16.9945 103.715 17.3084C102.362 17.6224 100.955 17.7794 99.4959 17.7794H96.1128V28.2587H89.3069V0.470947H99.6551C101.194 0.470947 102.627 0.62794 103.954 0.941926C105.307 1.22974 106.474 1.7138 107.456 2.39411C108.464 3.04825 109.247 3.92479 109.804 5.02376C110.388 6.09653 110.68 7.43097 110.68 9.02708ZM103.874 9.06632C103.874 8.41217 103.742 7.87577 103.476 7.45711C103.211 7.03849 102.852 6.71143 102.401 6.47594C101.95 6.24045 101.433 6.08342 100.849 6.00492C100.292 5.92643 99.7081 5.88718 99.0979 5.88718H96.1128V12.4416H98.9785C99.6153 12.4416 100.225 12.3893 100.809 12.2847C101.393 12.18 101.911 11.9968 102.362 11.7352C102.839 11.4735 103.211 11.1334 103.476 10.7147C103.742 10.2699 103.874 9.72043 103.874 9.06632Z" fill="#222222"/>
<path d="M114.766 28.2587V0.470947H121.611V22.4107H132.517V28.2587H114.766Z" fill="#222222"/>
<path d="M154.82 28.2587L152.631 22.8032H141.726L139.656 28.2587H132.253L144.074 0.470947H150.681L162.383 28.2587H154.82ZM147.258 7.88884L143.676 17.4262H150.761L147.258 7.88884Z" fill="#222222"/>
<path d="M182.622 28.2587L171.278 10.0867H171.159L171.318 28.2587H164.711V0.470947H172.472L183.776 18.6036H183.895L183.736 0.470947H190.343V28.2587H182.622Z" fill="#222222"/>
<path d="M196.156 28.2587V0.470947H215.101V6.16192H202.723V11.382H214.424V16.759H202.723V22.5285H215.817V28.2587H196.156Z" fill="#222222"/>
<path d="M232.391 6.20117V28.2587H225.585V6.20117H217.625V0.470947H240.351V6.20117H232.391Z" fill="#222222"/>
<path fill-rule="evenodd" clip-rule="evenodd" d="M29.3845 0.199796C30.0436 0.849704 29.0602 2.9962 26.9375 5.94151C26.0084 4.65527 24.8663 3.52901 23.5619 2.61287C26.5487 0.519588 28.7255 -0.45011 29.3845 0.199796ZM3.58009 22.3172C5.70427 19.37 8.96934 15.6229 12.8713 11.775C16.7733 7.92727 20.5732 4.70755 23.5619 2.61287C21.2195 0.967649 18.3537 4.09592e-06 15.2588 4.09592e-06C7.34543 4.09592e-06 0.93042 6.32595 0.93042 14.1294C0.93042 17.1813 1.91169 20.0073 3.58009 22.3172ZM6.95561 25.6458C9.94435 23.5512 13.7442 20.3314 17.6462 16.4837C21.5482 12.6358 24.8133 8.88874 26.9375 5.94151C28.6059 8.25142 29.5871 11.0774 29.5871 14.1294C29.5871 21.9328 23.1721 28.2587 15.2588 28.2587C12.1638 28.2587 9.29806 27.2911 6.95561 25.6458ZM6.95561 25.6458C5.65122 24.7297 4.50913 23.6035 3.58009 22.3172C1.45733 25.2625 0.473976 27.409 1.13303 28.0589C1.7921 28.7088 3.96882 27.7391 6.95561 25.6458ZM40.2538 10.0868L51.5971 28.2587H59.3185V0.470978H52.7115L52.8707 18.6036H52.7513L41.4478 0.470978H33.6866V28.2587H40.2936L40.1344 10.0868H40.2538ZM65.131 0.470978V28.2587H84.7927V22.5285H71.6982V16.759H83.3997V11.382H71.6982V6.16197H84.0763V0.470978H65.131Z" fill="#EB5757"/>
<path d="M250.565 29.7146L247.401 28.6786L256.053 6.92261L259.217 8.01461L250.565 29.7146Z" fill="black"/>
<path d="M280.862 28.2586L272.882 15.2946H272.798L272.91 28.2586H268.262V8.43461H273.722L281.674 21.3706H281.758L281.646 8.43461H286.294V28.2586H280.862Z" fill="black"/>
<path d="M290.384 28.2586V8.43461H303.712V12.4946H295.004V16.2186H303.236V20.0546H295.004V24.1706H304.216V28.2586H290.384Z" fill="black"/>
<path d="M328.391 28.2586H323.659L319.739 14.8466H319.655L315.735 28.2586H310.975L305.347 8.43461H310.499L313.635 21.6226H313.719L317.247 8.43461H322.231L325.787 21.6226H325.871L329.063 8.43461H334.047L328.391 28.2586Z" fill="black"/>
<path d="M346.574 13.5866C346.164 13.0639 345.622 12.6533 344.95 12.3546C344.297 12.0373 343.662 11.8786 343.046 11.8786C342.729 11.8786 342.402 11.9066 342.066 11.9626C341.749 12.0186 341.46 12.1306 341.198 12.2986C340.937 12.4479 340.713 12.6533 340.526 12.9146C340.358 13.1573 340.274 13.4746 340.274 13.8666C340.274 14.2026 340.34 14.4826 340.47 14.7066C340.62 14.9306 340.825 15.1266 341.086 15.2946C341.366 15.4626 341.693 15.6213 342.066 15.7706C342.44 15.9013 342.86 16.0413 343.326 16.1906C343.998 16.4146 344.698 16.6666 345.426 16.9466C346.154 17.2079 346.817 17.5626 347.414 18.0106C348.012 18.4586 348.506 19.0186 348.898 19.6906C349.29 20.3439 349.486 21.1653 349.486 22.1546C349.486 23.2933 349.272 24.2826 348.842 25.1226C348.432 25.9439 347.872 26.6253 347.162 27.1666C346.453 27.7079 345.641 28.1093 344.726 28.3706C343.812 28.6319 342.869 28.7626 341.898 28.7626C340.48 28.7626 339.108 28.5199 337.782 28.0346C336.457 27.5306 335.356 26.8213 334.478 25.9066L337.614 22.7146C338.1 23.3119 338.734 23.8159 339.518 24.2266C340.321 24.6186 341.114 24.8146 341.898 24.8146C342.253 24.8146 342.598 24.7773 342.934 24.7026C343.27 24.6279 343.56 24.5066 343.802 24.3386C344.064 24.1706 344.269 23.9466 344.418 23.6666C344.568 23.3866 344.642 23.0506 344.642 22.6586C344.642 22.2853 344.549 21.9679 344.362 21.7066C344.176 21.4453 343.905 21.2119 343.55 21.0066C343.214 20.7826 342.785 20.5866 342.262 20.4186C341.758 20.2319 341.18 20.0359 340.526 19.8306C339.892 19.6253 339.266 19.3826 338.65 19.1026C338.053 18.8226 337.512 18.4679 337.026 18.0386C336.56 17.5906 336.177 17.0586 335.878 16.4426C335.598 15.8079 335.458 15.0426 335.458 14.1466C335.458 13.0453 335.682 12.1026 336.13 11.3186C336.578 10.5346 337.166 9.89061 337.894 9.38661C338.622 8.88261 339.444 8.51861 340.358 8.29461C341.273 8.05194 342.197 7.93061 343.13 7.93061C344.25 7.93061 345.389 8.13594 346.546 8.54661C347.722 8.95727 348.749 9.56394 349.626 10.3666L346.574 13.5866Z" fill="black"/>
</svg>
