<svg width="374" height="34" viewBox="0 0 374 34" fill="none" xmlns="http://www.w3.org/2000/svg">
<g clip-path="url(#clip0_19_1043)">
<path d="M110.148 9.02708C110.148 10.6493 109.842 12.023 109.232 13.1481C108.622 14.247 107.799 15.1367 106.764 15.817C105.73 16.4973 104.536 16.9945 103.182 17.3084C101.829 17.6224 100.423 17.7794 98.9635 17.7794H95.5804V28.2587H88.7744V0.470947H99.1227C100.662 0.470947 102.095 0.62794 103.421 0.941926C104.774 1.22974 105.942 1.7138 106.924 2.39411C107.932 3.04825 108.715 3.92479 109.272 5.02376C109.856 6.09653 110.148 7.43097 110.148 9.02708ZM103.342 9.06632C103.342 8.41217 103.209 7.87577 102.944 7.45711C102.678 7.03849 102.32 6.71143 101.869 6.47594C101.418 6.24045 100.901 6.08342 100.317 6.00492C99.7595 5.92643 99.1756 5.88718 98.5655 5.88718H95.5804V12.4416H98.446C99.0829 12.4416 99.693 12.3893 100.277 12.2847C100.861 12.18 101.378 11.9968 101.829 11.7352C102.307 11.4735 102.678 11.1334 102.944 10.7147C103.209 10.2699 103.342 9.72044 103.342 9.06632Z" fill="#222222"/>
<path d="M114.233 28.2587V0.470947H121.079V22.4107H131.985V28.2587H114.233Z" fill="#222222"/>
<path d="M154.288 28.2587L152.099 22.8032H141.193L139.124 28.2587H131.721L143.542 0.470947H150.149L161.85 28.2587H154.288ZM146.726 7.88884L143.144 17.4262H150.228L146.726 7.88884Z" fill="#222222"/>
<path d="M182.089 28.2587L170.746 10.0867H170.626L170.786 28.2587H164.179V0.470947H171.94L183.243 18.6036H183.363L183.204 0.470947H189.811V28.2587H182.089Z" fill="#222222"/>
<path d="M195.623 28.2587V0.470947H214.568V6.16192H202.19V11.382H213.892V16.759H202.19V22.5285H215.285V28.2587H195.623Z" fill="#222222"/>
<path d="M231.859 6.20117V28.2587H225.053V6.20117H217.093V0.470947H239.819V6.20117H231.859Z" fill="#222222"/>
<path fill-rule="evenodd" clip-rule="evenodd" d="M28.8521 0.199797C29.5111 0.849704 28.5278 2.9962 26.405 5.94151C25.476 4.65527 24.3339 3.52901 23.0295 2.61287C26.0163 0.519587 28.193 -0.45011 28.8521 0.199797ZM3.04762 22.3172C5.1718 19.37 8.43687 15.6229 12.3388 11.775C16.2409 7.92727 20.0407 4.70755 23.0295 2.61287C20.687 0.967649 17.8213 4.12082e-06 14.7263 4.12082e-06C6.81295 4.12082e-06 0.397949 6.32595 0.397949 14.1294C0.397949 17.1813 1.37922 20.0073 3.04762 22.3172ZM6.42314 25.6458C9.41188 23.5512 13.2118 20.3314 17.1138 16.4837C21.0157 12.6358 24.2808 8.88874 26.405 5.94151C28.0734 8.25142 29.0547 11.0774 29.0547 14.1294C29.0547 21.9328 22.6397 28.2587 14.7263 28.2587C11.6313 28.2587 8.76559 27.2911 6.42314 25.6458ZM6.42314 25.6458C5.11875 24.7297 3.97666 23.6035 3.04762 22.3172C0.924859 25.2625 -0.058495 27.409 0.600564 28.0589C1.25962 28.7088 3.43635 27.7391 6.42314 25.6458ZM39.7213 10.0868L51.0646 28.2587H58.786V0.470978H52.179L52.3382 18.6036H52.2188L40.9154 0.470978H33.1542V28.2587H39.7611L39.6019 10.0868H39.7213ZM64.5985 0.470978V28.2587H84.2602V22.5285H71.1657V16.759H82.8672V11.382H71.1657V6.16197H83.5438V0.470978H64.5985Z" fill="#EB5757"/>
</g>
<path d="M250.033 29.7146L246.869 28.6786L255.521 6.92261L258.685 8.01461L250.033 29.7146Z" fill="black"/>
<path d="M288.402 28.2586H283.67L279.75 14.8466H279.666L275.746 28.2586H270.986L265.358 8.43461H270.51L273.646 21.6226H273.73L277.258 8.43461H282.242L285.798 21.6226H285.882L289.074 8.43461H294.058L288.402 28.2586Z" fill="black"/>
<path d="M316.449 18.2626C316.449 19.8306 316.178 21.2679 315.637 22.5746C315.096 23.8626 314.34 24.9733 313.369 25.9066C312.417 26.8213 311.278 27.5306 309.953 28.0346C308.628 28.5386 307.19 28.7906 305.641 28.7906C304.092 28.7906 302.654 28.5386 301.329 28.0346C300.022 27.5306 298.884 26.8213 297.913 25.9066C296.961 24.9733 296.214 23.8626 295.673 22.5746C295.132 21.2679 294.861 19.8306 294.861 18.2626C294.861 16.6759 295.132 15.2479 295.673 13.9786C296.214 12.6906 296.961 11.5986 297.913 10.7026C298.884 9.80661 300.022 9.11594 301.329 8.63061C302.654 8.14527 304.092 7.90261 305.641 7.90261C307.19 7.90261 308.628 8.14527 309.953 8.63061C311.278 9.11594 312.417 9.80661 313.369 10.7026C314.34 11.5986 315.096 12.6906 315.637 13.9786C316.178 15.2479 316.449 16.6759 316.449 18.2626ZM311.325 18.2626C311.325 17.4039 311.185 16.6013 310.905 15.8546C310.625 15.1079 310.233 14.4733 309.729 13.9506C309.244 13.4093 308.646 12.9893 307.937 12.6906C307.246 12.3733 306.481 12.2146 305.641 12.2146C304.801 12.2146 304.036 12.3733 303.345 12.6906C302.654 12.9893 302.057 13.4093 301.553 13.9506C301.049 14.4733 300.657 15.1079 300.377 15.8546C300.116 16.6013 299.985 17.4039 299.985 18.2626C299.985 19.1586 300.125 19.9893 300.405 20.7546C300.685 21.5013 301.068 22.1453 301.553 22.6866C302.057 23.2279 302.654 23.6573 303.345 23.9746C304.036 24.2733 304.801 24.4226 305.641 24.4226C306.481 24.4226 307.246 24.2733 307.937 23.9746C308.628 23.6573 309.225 23.2279 309.729 22.6866C310.233 22.1453 310.625 21.5013 310.905 20.7546C311.185 19.9893 311.325 19.1586 311.325 18.2626Z" fill="black"/>
<path d="M330.213 28.2586L325.929 20.3906H324.305V28.2586H319.601V8.43461H327.161C328.113 8.43461 329.037 8.53727 329.933 8.74261C330.848 8.92927 331.66 9.25594 332.369 9.72261C333.097 10.1893 333.676 10.8053 334.105 11.5706C334.535 12.3359 334.749 13.2879 334.749 14.4266C334.749 15.7706 334.385 16.8999 333.657 17.8146C332.929 18.7293 331.921 19.3826 330.633 19.7746L335.813 28.2586H330.213ZM330.017 14.5106C330.017 14.0439 329.915 13.6706 329.709 13.3906C329.523 13.0919 329.271 12.8679 328.953 12.7186C328.655 12.5506 328.309 12.4386 327.917 12.3826C327.544 12.3266 327.18 12.2986 326.825 12.2986H324.277V16.9186H326.545C326.937 16.9186 327.339 16.8906 327.749 16.8346C328.16 16.7599 328.533 16.6386 328.869 16.4706C329.205 16.3026 329.476 16.0599 329.681 15.7426C329.905 15.4253 330.017 15.0146 330.017 14.5106Z" fill="black"/>
<path d="M350.292 28.2586L342.928 19.1306H342.872V28.2586H338.168V8.43461H342.872V16.4986H342.956L350.04 8.43461H356.032L347.492 17.5626L356.536 28.2586H350.292Z" fill="black"/>
<path d="M368.546 13.5866C368.135 13.0639 367.594 12.6533 366.922 12.3546C366.269 12.0373 365.634 11.8786 365.018 11.8786C364.701 11.8786 364.374 11.9066 364.038 11.9626C363.721 12.0186 363.431 12.1306 363.17 12.2986C362.909 12.4479 362.685 12.6533 362.498 12.9146C362.33 13.1573 362.246 13.4746 362.246 13.8666C362.246 14.2026 362.311 14.4826 362.442 14.7066C362.591 14.9306 362.797 15.1266 363.058 15.2946C363.338 15.4626 363.665 15.6213 364.038 15.7706C364.411 15.9013 364.831 16.0413 365.298 16.1906C365.97 16.4146 366.67 16.6666 367.398 16.9466C368.126 17.2079 368.789 17.5626 369.386 18.0106C369.983 18.4586 370.478 19.0186 370.87 19.6906C371.262 20.3439 371.458 21.1653 371.458 22.1546C371.458 23.2933 371.243 24.2826 370.814 25.1226C370.403 25.9439 369.843 26.6253 369.134 27.1666C368.425 27.7079 367.613 28.1093 366.698 28.3706C365.783 28.6319 364.841 28.7626 363.87 28.7626C362.451 28.7626 361.079 28.5199 359.754 28.0346C358.429 27.5306 357.327 26.8213 356.45 25.9066L359.586 22.7146C360.071 23.3119 360.706 23.8159 361.49 24.2266C362.293 24.6186 363.086 24.8146 363.87 24.8146C364.225 24.8146 364.57 24.7773 364.906 24.7026C365.242 24.6279 365.531 24.5066 365.774 24.3386C366.035 24.1706 366.241 23.9466 366.39 23.6666C366.539 23.3866 366.614 23.0506 366.614 22.6586C366.614 22.2853 366.521 21.9679 366.334 21.7066C366.147 21.4453 365.877 21.2119 365.522 21.0066C365.186 20.7826 364.757 20.5866 364.234 20.4186C363.73 20.2319 363.151 20.0359 362.498 19.8306C361.863 19.6253 361.238 19.3826 360.622 19.1026C360.025 18.8226 359.483 18.4679 358.998 18.0386C358.531 17.5906 358.149 17.0586 357.85 16.4426C357.57 15.8079 357.43 15.0426 357.43 14.1466C357.43 13.0453 357.654 12.1026 358.102 11.3186C358.55 10.5346 359.138 9.89061 359.866 9.38661C360.594 8.88261 361.415 8.51861 362.33 8.29461C363.245 8.05194 364.169 7.93061 365.102 7.93061C366.222 7.93061 367.361 8.13594 368.518 8.54661C369.694 8.95727 370.721 9.56394 371.598 10.3666L368.546 13.5866Z" fill="black"/>
<defs>
<clipPath id="clip0_19_1043">
<rect width="240" height="28.2587" fill="white"/>
</clipPath>
</defs>
</svg>
