<svg width="214" height="56" viewBox="0 0 214 56" fill="none" xmlns="http://www.w3.org/2000/svg">
<path fill-rule="evenodd" clip-rule="evenodd" d="M195.678 28.9037C195.631 28.8943 195.585 28.885 195.528 28.885C195.558 28.8195 195.588 28.7543 195.618 28.6891C195.999 27.8613 196.37 27.0539 196.613 26.1179C197.024 25.2204 197.361 24.4352 197.66 23.7247C197.959 23.0142 198.183 22.3786 198.37 21.8177C198.557 21.2568 198.632 20.808 198.632 20.5089C198.632 20.1724 198.595 19.9106 198.482 19.7236C198.408 19.4993 198.258 19.3497 198.146 19.2375C197.996 19.1253 197.847 19.0506 197.697 19.0132C197.548 18.9758 197.398 18.9384 197.286 18.9384C196.837 18.9384 196.351 19.1627 195.828 19.6488C195.304 20.135 194.743 20.7706 194.145 21.5933C193.547 22.3786 192.948 23.3134 192.313 24.3604C191.816 25.1788 191.342 26.02 190.855 26.8841C190.719 27.1255 190.582 27.3687 190.443 27.6136L183.189 40.8882C183.002 41.2621 182.89 41.5987 182.778 42.01C182.666 42.4213 182.628 42.7952 182.628 43.1692C182.628 43.4309 182.666 43.6927 182.74 43.9918C182.815 44.291 182.927 44.5527 183.114 44.8145C183.264 45.0388 183.526 45.2632 183.862 45.4128C184.199 45.5997 184.61 45.6745 185.133 45.6745C185.769 45.6745 186.367 45.4502 186.891 45.0014C187.452 44.5527 187.938 43.9544 188.424 43.2066C188.91 42.4587 189.321 41.5987 189.733 40.6638C189.92 40.1777 190.107 39.701 190.294 39.2242C190.481 38.7474 190.667 38.2707 190.854 37.7846C191.228 36.8123 191.565 35.8775 191.864 34.9801C192.163 34.0826 192.462 33.2974 192.761 32.6243C193.285 34.3444 193.883 35.9523 194.556 37.4854C195.229 39.0185 195.977 40.3647 196.8 41.5239C197.622 42.6831 198.52 43.5805 199.529 44.2536C200.539 44.9267 201.623 45.2632 202.82 45.2632C204.278 45.2632 205.811 44.9267 207.419 44.1788C209.064 43.4683 210.709 42.3091 212.392 40.7012C212.99 40.1403 213.402 39.6168 213.626 39.1307C213.888 38.6446 214 38.1959 214 37.8219C214 37.4106 213.888 37.1115 213.663 36.8871C213.439 36.6628 213.177 36.5506 212.841 36.5506C212.317 36.5506 211.831 36.8497 211.308 37.4106C210.784 38.1585 210.149 38.7942 209.401 39.3177C208.765 39.8038 207.98 40.2151 207.045 40.6264C206.11 41.0378 205.026 41.2247 203.829 41.2247H203.493C203.441 41.2247 203.389 41.2167 203.333 41.208C203.269 41.1981 203.199 41.1873 203.119 41.1873C202.446 41.1499 201.848 40.8134 201.249 40.2151C200.651 39.6168 200.128 38.869 199.642 38.0089C199.155 37.1489 198.744 36.2514 198.408 35.2792C198.071 34.3444 197.847 33.4843 197.697 32.6991C198.744 32.5121 199.828 32.213 200.95 31.8016C202.072 31.3903 203.156 30.9042 204.241 30.3059C205.325 29.7076 206.335 29.0345 207.269 28.2867C208.204 27.5388 209.027 26.6788 209.737 25.7813C210.448 24.8839 211.009 23.9117 211.42 22.8647C211.831 21.8177 212.056 20.7333 212.056 19.5741C212.056 17.854 211.682 16.3583 211.009 15.0869C210.336 13.8155 209.401 12.7685 208.204 11.9085C207.008 11.0484 205.662 10.4127 204.129 10.0014C202.595 9.59008 200.988 9.36572 199.305 9.36572C197.585 9.36572 195.977 9.55269 194.444 9.88923C192.911 10.2632 191.49 10.7119 190.219 11.3102C188.947 11.9085 187.788 12.5815 186.741 13.3294C185.694 14.0773 184.834 14.8625 184.124 15.6852C183.413 16.5078 182.853 17.3305 182.479 18.1531C182.105 18.9758 181.918 19.7236 181.918 20.4341C181.918 21.182 182.105 21.7803 182.516 22.1916C182.927 22.6029 183.526 22.8273 184.348 22.8273C184.947 22.8273 185.47 22.6777 185.881 22.416C186.293 22.1542 186.667 21.7803 187.003 21.3315C187.34 20.8828 187.676 20.3593 187.975 19.7984C188.274 19.2375 188.648 18.6392 189.022 18.0409C189.396 17.4427 189.882 16.8444 190.406 16.2835C190.967 15.6852 191.602 15.1991 192.387 14.7503C193.135 14.3016 194.07 13.9277 195.154 13.6659C196.239 13.4042 197.51 13.2546 199.006 13.2546C200.352 13.2546 201.474 13.4042 202.446 13.7033C203.381 14.0399 204.203 14.4512 204.802 14.9747C205.4 15.4982 205.849 16.0965 206.148 16.807C206.447 17.5174 206.596 18.2653 206.596 19.0506C206.596 20.1724 206.335 21.2941 205.774 22.4533C205.25 23.6125 204.465 24.6969 203.53 25.6318C202.595 26.604 201.474 27.3892 200.202 27.9875C198.931 28.6232 197.585 28.9224 196.164 28.9224H195.828C195.771 28.9224 195.725 28.913 195.678 28.9037ZM172.944 37.8967C172.924 37.9775 172.901 38.0638 172.876 38.1547L172.876 38.1551C172.811 38.4008 172.737 38.681 172.682 38.9811L172.663 39.0837C172.595 39.455 172.532 39.7977 172.532 40.1403C172.532 40.4768 172.57 40.7386 172.682 40.9629C172.794 41.1873 172.981 41.2995 173.318 41.2995C173.766 41.2995 174.29 41.1499 174.888 40.8133C175.486 40.4768 176.159 40.0655 176.87 39.542C177.442 39.1206 178.013 38.6267 178.624 38.099C178.772 37.971 178.923 37.8411 179.076 37.7097C179.824 36.9992 180.572 36.2888 181.32 35.5409C182.067 34.793 182.778 34.0452 183.451 33.2973C184.124 32.5494 184.722 31.839 185.246 31.1659L186.143 34.4565C185.059 35.9148 183.937 37.2984 182.815 38.6071C181.656 39.9533 180.497 41.1125 179.3 42.1221C178.104 43.1317 176.907 43.9544 175.711 44.5527C174.514 45.151 173.318 45.4501 172.159 45.4501C171.485 45.4501 170.887 45.3379 170.401 45.1136C169.915 44.8892 169.541 44.5901 169.242 44.2161C168.943 43.8422 168.718 43.3935 168.606 42.87C168.457 42.3839 168.382 41.823 168.382 41.2995C168.382 41.0751 168.382 40.7759 168.419 40.402C168.419 40.0464 168.447 39.7187 168.479 39.3465L168.494 39.168C168.512 38.9675 168.522 38.7759 168.531 38.5888C168.54 38.3921 168.55 38.2005 168.569 38.0089C168.606 37.6723 168.606 37.448 168.606 37.3358L159.857 37.8593L155.781 37.8967C155.108 39.3924 154.397 40.7012 153.724 41.8604L153.724 41.8607C153.425 42.3467 153.126 42.8327 152.79 43.3187C152.49 43.7515 152.19 44.125 151.917 44.4656L151.817 44.5901C151.481 44.964 151.144 45.2631 150.845 45.4875C150.509 45.7119 150.21 45.824 149.873 45.824C149.387 45.824 148.976 45.7493 148.676 45.5997C148.377 45.4501 148.116 45.2631 147.929 45.0388C147.742 44.8144 147.63 44.5527 147.555 44.2909C147.48 44.0292 147.443 43.7674 147.443 43.5057C147.443 43.0943 147.517 42.6456 147.63 42.2343C147.742 41.823 147.891 41.4116 148.116 41.0377L151.369 35.5783C151.518 35.3539 151.817 34.793 152.266 33.933C152.715 33.073 153.313 31.9885 154.024 30.7172C154.734 29.4458 155.557 28.0249 156.491 26.4917C157.426 24.9586 158.436 23.3881 159.52 21.8176C160.604 20.2471 161.764 18.714 162.998 17.2182C164.231 15.7225 165.465 14.4137 166.774 13.2545C168.045 12.0954 169.354 11.1605 170.663 10.4875C171.972 9.77698 173.28 9.44044 174.589 9.44044C175.786 9.44044 176.982 9.81437 178.179 10.5622C179.375 11.3101 180.46 12.5441 181.544 14.2642C181.656 14.4885 181.731 14.6755 181.731 14.8625C181.731 15.0868 181.656 15.2738 181.544 15.4981C181.432 15.7225 181.282 15.9095 181.095 16.059C180.908 16.2086 180.684 16.3582 180.459 16.4704C180.235 16.5825 179.973 16.6199 179.749 16.6199C179.45 16.6199 179.113 16.5451 178.739 16.433C178.366 16.2834 177.992 16.0216 177.655 15.6103C177.132 15.012 176.608 14.6007 176.085 14.3016C175.524 14.0398 175 13.8902 174.439 13.8902C173.654 13.8902 172.869 14.1146 172.084 14.5259C171.261 14.9746 170.476 15.5355 169.653 16.2834C168.831 17.0313 168.045 17.8913 167.223 18.8635C166.438 19.8358 165.652 20.8828 164.867 21.9672C164.119 23.0516 163.371 24.1734 162.661 25.2952C161.951 26.417 161.278 27.5014 160.679 28.5484C160.378 29.0439 160.094 29.5142 159.823 29.9634L159.82 29.9691C159.519 30.467 159.234 30.9389 158.959 31.3903L158.789 31.6697C158.338 32.4129 157.942 33.0639 157.576 33.5965H162.063L169.653 33.0356C169.699 32.9336 169.747 32.8214 169.8 32.6989L169.801 32.6988C169.923 32.4169 170.069 32.0804 170.252 31.6894C170.471 31.2186 170.691 30.6951 170.933 30.1189L171.074 29.7823C171.373 29.0719 171.71 28.324 172.084 27.5014C172.271 27.09 172.448 26.6786 172.626 26.2673C172.804 25.856 172.981 25.4447 173.168 25.0334L173.168 25.033C173.542 24.2105 173.916 23.388 174.252 22.5655C174.626 21.7428 174.963 20.9949 175.262 20.3219C175.486 19.6862 175.786 19.2375 176.197 18.9757C176.608 18.714 177.057 18.5644 177.543 18.5644C177.805 18.5644 178.029 18.6018 178.291 18.6766C178.553 18.7513 178.777 18.8635 178.964 19.0131C179.151 19.1627 179.338 19.3496 179.45 19.6114C179.6 19.8358 179.637 20.1349 179.674 20.4714C179.674 20.7706 179.525 21.3315 179.263 22.0793C179.001 22.8272 178.665 23.7246 178.216 24.7343C177.805 25.7439 177.319 26.8657 176.795 28.0623C176.579 28.5557 176.37 29.0492 176.161 29.5401C175.864 30.2395 175.57 30.9335 175.262 31.6146C175.095 32.026 174.928 32.4286 174.764 32.8239C174.451 33.5782 174.148 34.3058 173.879 35.0174C173.467 36.1392 173.168 37.074 172.944 37.8967ZM77.7818 34.1574C78.1557 33.2225 78.5296 32.3625 78.8287 31.6894C78.9981 31.7177 79.1622 31.7406 79.3169 31.7622C79.572 31.7978 79.8017 31.8298 79.9879 31.8764C80.4366 31.9138 80.8853 31.9138 81.2966 31.9138C83.3157 31.9138 85.2601 31.652 87.0923 31.1285C88.9245 30.605 90.5323 29.8946 91.9532 28.9223C93.3741 27.9501 94.4959 26.7909 95.3185 25.4074C96.1411 24.0238 96.5524 22.4533 96.5524 20.7332C96.5524 18.8636 96.2159 17.2182 95.5054 15.7973C94.795 14.3764 93.8602 13.2172 92.7011 12.2823C91.5045 11.3475 90.1958 10.637 88.6628 10.1883C87.1297 9.70221 85.5592 9.47786 83.914 9.47786C82.1566 9.47786 80.474 9.66482 78.9035 10.0388C77.3331 10.4127 75.8748 10.9362 74.5287 11.5719C73.1826 12.2076 71.986 12.9554 70.9017 13.7781C69.8547 14.6007 68.9199 15.4608 68.1721 16.3582C67.4242 17.2556 66.826 18.1531 66.4147 19.0505C66.0034 19.948 65.8164 20.7706 65.8164 21.5185C65.8164 22.2663 66.0034 22.8646 66.3773 23.276C66.7886 23.6873 67.3869 23.8742 68.1721 23.8742C68.8077 23.8742 69.3312 23.7247 69.7425 23.4255C70.1912 23.1264 70.5652 22.7151 70.9017 22.2289C71.2382 21.7428 71.5747 21.1819 71.8739 20.5463L71.874 20.5461C72.2105 19.9104 72.547 19.2748 72.9582 18.6018C73.3695 17.9287 73.8556 17.293 74.4165 16.6574C74.9774 16.0217 75.6878 15.4608 76.5104 14.9747C77.3705 14.4885 78.3426 14.0772 79.5018 13.7781C80.6609 13.4789 82.0444 13.3294 83.6523 13.3294C84.8488 13.3294 85.8958 13.5163 86.7932 13.9276C87.6906 14.3016 88.4758 14.8625 89.0741 15.5356C89.7097 16.2086 90.1584 16.9939 90.4949 17.8913C90.8315 18.7888 90.981 19.7236 90.981 20.6958C90.981 21.8176 90.6819 22.7898 90.0836 23.6499C89.4854 24.5099 88.7001 25.2204 87.6906 25.8187C86.681 26.417 85.5592 26.8657 84.3253 27.2022C83.0914 27.5388 81.8201 27.7257 80.5487 27.8379C81.2966 26.3796 81.8201 25.2204 82.0818 24.2856C82.3435 23.3507 82.4931 22.6403 82.4931 22.1168C82.4931 21.5559 82.3809 21.1819 82.1192 20.995C81.8575 20.808 81.5957 20.6958 81.2966 20.6958C81.1871 20.6958 81.0575 20.7159 80.8933 20.7413L80.8932 20.7413L80.893 20.7413C80.833 20.7506 80.7683 20.7606 80.6983 20.7706C80.4366 20.8454 80.1748 20.9576 79.8383 21.1445C79.5018 21.3315 79.1653 21.6307 78.7913 22.042C78.4174 22.4533 78.0435 23.0142 77.6322 23.7247L68.2095 41.0751C68.0225 41.4117 67.873 41.7856 67.7608 42.1969C67.6486 42.6082 67.5738 42.9822 67.5738 43.3935C67.5738 43.6552 67.6112 43.917 67.686 44.2162C67.7608 44.5153 67.873 44.7771 68.0599 45.0014C68.2095 45.2632 68.4712 45.4501 68.8077 45.5997C69.1443 45.7493 69.5556 45.8241 70.0791 45.8241C70.7147 45.8241 71.2756 45.5997 71.8739 45.0762C72.4347 44.5527 72.9956 43.917 73.5565 43.0944C74.1174 42.2717 74.6409 41.3743 75.1269 40.3273C75.6504 39.2802 76.0991 38.2332 76.5478 37.1862C76.9965 36.1392 77.4078 35.1296 77.7818 34.1574ZM105.938 27.277C105.227 27.09 104.554 27.0152 103.919 27.0152C102.46 27.0152 101.152 27.277 100.067 27.7257C98.9081 28.1744 97.8611 28.8101 96.9263 29.558C95.9915 30.3058 95.2063 31.1659 94.5332 32.1381C93.8602 33.1103 93.3367 34.0826 92.888 35.0548C92.4393 36.027 92.1401 36.9618 91.9158 37.8967C91.6914 38.7941 91.5793 39.5794 91.5793 40.2524C91.5793 41.2247 91.7662 42.0473 92.1401 42.7204C92.5141 43.3935 92.9628 43.9544 93.5236 44.3657C94.0471 44.777 94.6454 45.0762 95.2437 45.2631C95.8419 45.4501 96.4028 45.5249 96.8515 45.5249C98.0854 45.5249 99.2072 45.3753 100.292 45.0762C101.339 44.777 102.348 44.3283 103.283 43.8048C104.18 43.2813 105.04 42.6082 105.788 41.8604C106.536 41.1125 107.209 40.2898 107.807 39.355C108.219 39.6542 108.63 39.8411 109.041 39.9907C109.453 40.1029 109.864 40.1777 110.275 40.1777C110.911 40.1777 111.509 39.9907 112.145 39.6541C112.238 39.5995 112.33 39.5441 112.421 39.4878C112.262 39.75 112.182 40.0375 112.182 40.3647V40.3648C112.182 40.4769 112.182 40.5517 112.22 40.7013C112.407 41.5613 112.743 42.3092 113.229 42.9075C113.715 43.5057 114.276 43.9919 114.949 44.4032C115.622 44.7771 116.333 45.0763 117.155 45.2632C117.941 45.4502 118.763 45.5624 119.623 45.5624C120.745 45.5624 121.867 45.4128 122.988 45.151C124.11 44.8519 125.082 44.478 125.942 43.9545C126.802 43.431 127.513 42.7953 128.036 42.0474C128.56 41.3369 128.822 40.4769 128.822 39.5421C128.822 38.7942 128.672 38.0463 128.373 37.2611C128.074 36.4758 127.662 35.7279 127.102 34.9801C126.541 34.2322 125.868 33.5218 125.082 32.8487C124.297 32.1756 123.4 31.5773 122.39 31.0538C122.615 30.9042 122.876 30.6799 123.063 30.4929C123.288 30.3059 123.512 30.0816 123.699 29.8946C123.886 29.7077 124.035 29.5207 124.148 29.2963C124.26 29.072 124.335 28.8476 124.335 28.6232C124.335 28.4737 124.26 28.2867 124.148 28.0997C124.035 27.9128 123.886 27.7258 123.661 27.5762C123.437 27.4267 123.175 27.3145 122.876 27.2023C122.577 27.0901 122.241 27.0527 121.867 27.0527C121.381 27.0527 120.894 27.1649 120.446 27.3519C119.997 27.5388 119.586 27.8006 119.174 28.0997C118.763 28.3989 118.389 28.7354 118.053 29.1094C117.716 29.4459 117.417 29.8198 117.155 30.1564C117.043 30.2685 117.006 30.4181 117.006 30.6051C117.006 30.7969 117.088 31.0161 117.205 31.2158C117.047 31.4069 116.856 31.6146 116.632 31.839C116.295 32.2126 115.959 32.5489 115.548 32.9598L115.548 32.96L115.548 32.9603L115.548 32.9605L115.547 32.9608C115.168 33.3402 114.789 33.6878 114.38 34.0624L114.38 34.0625L114.276 34.1574L114.276 34.1574C113.827 34.5313 113.379 34.9052 112.93 35.2044C112.481 35.5035 112.033 35.7653 111.621 35.9522C111.173 36.1392 110.799 36.2514 110.462 36.2514C110.238 36.2514 110.013 36.214 109.789 36.1392C109.565 36.0644 109.378 35.9148 109.228 35.7279C109.49 35.0548 109.677 34.3817 109.826 33.746C109.939 33.1103 110.013 32.5494 110.013 32.0633C110.013 31.1285 109.826 30.3059 109.415 29.6702C109.041 28.9971 108.518 28.511 107.919 28.0996C107.321 27.7257 106.648 27.4266 105.938 27.277ZM113.678 38.7194C113.625 38.7194 113.572 38.7224 113.519 38.7286C113.661 38.6175 113.802 38.5024 113.94 38.3828C114.5 37.8967 115.024 37.3732 115.547 36.8123C115.727 36.6194 115.901 36.4264 116.07 36.2391L116.071 36.2377L116.071 36.2376C116.36 35.9172 116.634 35.6133 116.893 35.3539C117.604 34.7556 118.053 34.1574 118.314 33.5965C118.518 33.1889 118.631 32.7814 118.671 32.4268C119.091 32.6974 119.512 32.9731 119.922 33.26C120.708 33.7835 121.381 34.3444 121.979 34.9427C122.577 35.541 123.063 36.1767 123.437 36.8871C123.811 37.5976 123.998 38.3829 123.998 39.2055C123.998 39.6542 123.886 40.0656 123.661 40.4021C123.475 40.7386 123.175 41.0378 122.801 41.2248C122.428 41.4117 122.016 41.5613 121.53 41.6735C121.081 41.7857 120.558 41.823 120.034 41.823C119.511 41.823 118.988 41.7483 118.464 41.6361C117.941 41.5239 117.454 41.3369 116.968 41.1126C116.482 40.8882 116.034 40.6265 115.66 40.3273C115.286 40.0282 114.987 39.6916 114.762 39.2803C114.65 39.0559 114.5 38.9064 114.276 38.8316C114.052 38.7568 113.865 38.7194 113.678 38.7194ZM100.404 31.9138C101.152 31.5398 101.862 31.3529 102.647 31.3529C103.133 31.3529 103.545 31.465 103.844 31.652C104.143 31.839 104.367 32.0633 104.517 32.3625C104.666 32.6616 104.779 32.9982 104.816 33.3347L104.816 33.3348C104.853 33.6713 104.891 34.0078 104.891 34.3443C104.891 35.167 104.741 35.9896 104.405 36.8123C104.068 37.6349 103.619 38.3828 103.059 39.0185C102.498 39.6542 101.862 40.1777 101.152 40.589C100.441 41.0003 99.6933 41.1873 98.9454 41.1873C98.422 41.1873 98.048 41.0751 97.7489 40.8507C97.4498 40.6638 97.2254 40.402 97.0759 40.0655C96.9263 39.7289 96.8141 39.3924 96.7767 39.0185L96.7654 38.9065C96.7322 38.577 96.7019 38.2778 96.7019 38.0088C96.7019 37.1862 96.8515 36.3635 97.188 35.5783C97.5246 34.793 97.9359 34.0826 98.4967 33.4469C99.0576 32.8112 99.6933 32.2877 100.404 31.9138ZM138.351 32.4316L138.351 32.4313C138.55 32.0411 138.752 31.6451 138.955 31.2407H149.163C149.574 31.2033 149.948 31.1659 150.21 31.0537C150.471 30.9415 150.696 30.8294 150.845 30.6798C151.032 30.5302 151.107 30.3806 151.182 30.1937L151.182 30.1936C151.219 30.0066 151.257 29.8197 151.257 29.6328C151.257 29.2588 151.219 28.9971 151.07 28.7727C150.92 28.5484 150.733 28.3614 150.509 28.2492C150.247 28.0996 149.985 28.0249 149.649 27.9875L149.649 27.9875C149.312 27.9501 148.976 27.9127 148.564 27.9127H140.525C141.123 26.7535 141.722 25.6317 142.283 24.5847C142.46 24.2801 142.621 23.9755 142.787 23.6592L142.788 23.6577C142.867 23.5085 142.947 23.3567 143.03 23.2011C143.124 23.028 143.217 22.8596 143.308 22.6942L143.308 22.694L143.309 22.6938C143.474 22.3951 143.634 22.1063 143.778 21.8176C144.003 21.3689 144.227 20.9575 144.451 20.5836C144.638 20.1723 144.825 19.8358 144.975 19.574C145.199 19.1627 145.386 18.7887 145.536 18.4522C145.685 18.1531 145.76 17.8165 145.76 17.5174C145.76 16.9191 145.573 16.4704 145.162 16.2086C144.75 15.9095 144.302 15.7973 143.816 15.7973C143.292 15.7973 142.806 15.9469 142.32 16.2086C141.834 16.4704 141.423 16.9191 141.086 17.5548L135.889 27.8753H133.234C132.86 27.8753 132.523 27.9501 132.224 28.0997C131.925 28.2492 131.663 28.4362 131.476 28.6232C131.289 28.8475 131.14 29.0719 131.028 29.2962C130.915 29.5206 130.878 29.745 130.878 29.8945C130.878 30.2685 131.065 30.605 131.402 30.9041C131.775 31.2033 132.374 31.3529 133.308 31.3529H134.281C134.056 31.82 133.823 32.2872 133.585 32.7636L133.584 32.7645C133.346 33.2412 133.103 33.7273 132.86 34.2321L131.402 37.261C131.065 37.9715 130.728 38.7567 130.467 39.6542C130.205 40.5142 130.055 41.3743 130.055 42.1969C130.055 42.683 130.13 43.0943 130.242 43.5057C130.355 43.8796 130.504 44.2535 130.803 44.5527C131.102 44.8518 131.439 45.0762 131.888 45.2631C132.336 45.4501 132.86 45.5249 133.533 45.5249C134.542 45.5249 135.552 45.3379 136.599 44.9266C137.646 44.5527 138.693 44.0292 139.777 43.3561C140.862 42.683 141.946 41.8978 143.03 41.0377C144.152 40.1403 145.199 39.2428 146.283 38.2706C146.732 37.8967 147.069 37.5227 147.256 37.1114C147.443 36.7001 147.517 36.3262 147.517 35.9522C147.517 35.5783 147.443 35.2792 147.256 35.0174C147.106 34.7556 146.844 34.6435 146.583 34.6435C146.358 34.6435 146.096 34.7183 145.835 34.9052C145.386 35.3166 144.863 35.7653 144.264 36.214C143.666 36.7001 143.03 37.1862 142.395 37.6349C141.759 38.0836 141.086 38.5324 140.413 38.9811C139.74 39.4298 139.104 39.8037 138.506 40.1403C137.908 40.4768 137.347 40.776 136.823 40.9629C136.3 41.1499 135.851 41.2621 135.515 41.2621C135.29 41.2621 135.103 41.2247 134.991 41.0751C134.879 40.9629 134.842 40.776 134.842 40.5516C134.842 40.1403 134.954 39.6916 135.141 39.1681C135.328 38.6445 135.515 38.1958 135.702 37.7845C136.188 36.8497 136.711 35.8027 137.235 34.6809C137.581 33.9383 137.96 33.1958 138.351 32.4316Z" fill="#FF6767"/>
<path fill-rule="evenodd" clip-rule="evenodd" d="M27.8889 56C43.2915 56 55.7778 43.464 55.7778 28C55.7778 12.536 43.2915 0 27.8889 0C12.4863 0 0 12.536 0 28C0 43.464 12.4863 56 27.8889 56ZM20.9167 15.75C14.4792 15.75 8.81807 19.0868 5.55543 24.1316C7.38479 13.4097 16.6877 5.25 27.8889 5.25C40.4035 5.25 50.5486 15.4355 50.5486 28C50.5486 40.2728 40.869 50.2759 28.7564 50.7336C34.9419 47.7854 39.2187 41.4566 39.2187 34.125C39.2187 23.9768 31.0246 15.75 20.9167 15.75ZM22.5302 21.099C20.4872 22.7003 19.1736 25.1962 19.1736 28C19.1736 32.8325 23.0756 36.75 27.8889 36.75C30.2639 36.75 32.417 35.7962 33.989 34.2493C33.9225 41.4408 28.0953 47.25 20.9167 47.25C13.6967 47.25 7.84375 41.3737 7.84375 34.125C7.84375 26.8763 13.6967 21 20.9167 21C21.463 21 22.0014 21.0336 22.5302 21.099ZM31.375 28C31.375 29.933 29.8142 31.5 27.8889 31.5C25.9636 31.5 24.4028 29.933 24.4028 28C24.4028 26.067 25.9636 24.5 27.8889 24.5C29.8142 24.5 31.375 26.067 31.375 28Z" fill="#FF6767"/>
</svg>
