<svg width="464" height="71" viewBox="0 0 464 71" fill="none" xmlns="http://www.w3.org/2000/svg">
<path d="M27.7344 70.9844C22.1719 70.9844 17.2344 70.4531 12.9219 69.3906C8.60938 68.3281 4.3125 66.3281 0.03125 63.3906L0.03125 45.6719H12.7344L14.1406 54.7656C15.1406 55.8906 16.9063 56.8438 19.4375 57.625C21.9688 58.375 24.7344 58.75 27.7344 58.75C29.8281 58.75 31.5781 58.5 32.9844 58C34.3906 57.4687 35.4531 56.7031 36.1719 55.7031C36.8906 54.7031 37.25 53.5 37.25 52.0937C37.25 50.75 36.9063 49.5469 36.2188 48.4844C35.5625 47.4219 34.4688 46.4219 32.9375 45.4844C31.4063 44.5156 29.3438 43.5312 26.75 42.5312C20.9063 40.6562 16.1094 38.75 12.3594 36.8125C8.60938 34.875 5.8125 32.5781 3.96875 29.9219C2.15625 27.2656 1.25 23.9688 1.25 20.0312C1.25 16.25 2.32813 12.9531 4.48438 10.1406C6.64063 7.29687 9.60938 5.0625 13.3906 3.4375C17.1719 1.8125 21.5 0.953125 26.375 0.859375C31.9375 0.734375 36.8594 1.29687 41.1406 2.54687C45.4219 3.76562 49.2031 5.625 52.4844 8.125L52.4844 24.5781H40.2969L38.375 15.4375C37.3125 14.9062 35.7969 14.4219 33.8281 13.9844C31.8594 13.5469 29.7656 13.3281 27.5469 13.3281C25.6406 13.3281 23.9375 13.5781 22.4375 14.0781C20.9688 14.5781 19.7969 15.3281 18.9219 16.3281C18.0781 17.3281 17.6563 18.5781 17.6563 20.0781C17.6563 21.2969 18.0156 22.3906 18.7344 23.3594C19.4531 24.2969 20.7188 25.25 22.5313 26.2187C24.3438 27.1562 26.875 28.25 30.125 29.5C37.875 31.7812 43.75 34.6406 47.75 38.0781C51.7813 41.4844 53.7969 46.125 53.7969 52C53.7969 56.0312 52.7031 59.4687 50.5156 62.3125C48.3281 65.125 45.2813 67.2812 41.375 68.7812C37.4688 70.25 32.9219 70.9844 27.7344 70.9844Z" fill="black"/>
<path d="M67.1 70V60.3906L74.1781 58.8906L74.1781 12.9062L67.1 11.4062V1.75L121.616 1.75V21.4375L109.194 21.4375L108.819 14.4062L90.6312 14.4062V28.4219L112.428 28.4219V41.0312L90.6312 41.0312L90.6312 57.2969H109.709L110.084 49.9375L122.366 49.9375V70H67.1Z" fill="black"/>
<path d="M138.106 70V60.3906L145.184 58.8906V12.9062L138.106 11.4062V1.70312L171.669 1.70312C177.075 1.70312 181.762 2.5625 185.731 4.28125C189.7 6 192.762 8.45312 194.919 11.6406C197.075 14.7969 198.153 18.5469 198.153 22.8906C198.153 26.8906 197.059 30.6094 194.872 34.0469C192.716 37.4844 189.747 40.25 185.966 42.3437C182.184 44.4062 177.872 45.4219 173.028 45.3906L161.637 45.25V58.8906L168.716 60.3906V70H138.106ZM181.325 70L172.137 43.375L186.434 38.5L194.731 58.7969L201.2 60.4375V70H181.325ZM161.637 32.6406H171.856C175.044 32.6406 177.497 31.9062 179.216 30.4375C180.934 28.9375 181.794 26.7812 181.794 23.9687C181.794 21.0625 180.919 18.7344 179.169 16.9844C177.419 15.2031 174.919 14.3125 171.669 14.3125L161.637 14.3125V32.6406Z" fill="black"/>
<path d="M236.534 70L215.159 12.1562L208.691 11.4062V1.75L239.3 1.75V11.4062L233.206 12.3437L245.441 50.6875L246.097 53.3594H246.378L246.988 50.8281L258.847 12.3437L251.534 11.4062V1.75L280.128 1.75V11.4062L273.472 12.1562L254.347 70H236.534Z" fill="black"/>
<path d="M292.212 70V60.3906L299.291 58.8906V12.9062L292.212 11.4062V1.75L322.775 1.75V11.4062L315.697 12.9062V58.8906L322.775 60.3906V70L292.212 70Z" fill="black"/>
<path d="M369.641 70.9844C363.141 70.9844 357.344 69.6719 352.25 67.0469C347.156 64.4219 343.156 60.625 340.25 55.6562C337.344 50.6562 335.891 44.5937 335.891 37.4687V34.3281C335.891 27.7656 337.219 21.9687 339.875 16.9375C342.562 11.875 346.375 7.92187 351.312 5.07812C356.281 2.20312 362.172 0.765625 368.984 0.765625C373.734 0.765625 378.25 1.40625 382.531 2.6875C386.844 3.9375 390.844 6.09375 394.531 9.15625V26.7344L382.578 26.7344L380.938 16.6562C379.875 15.9375 378.75 15.3125 377.562 14.7812C376.406 14.25 375.156 13.8437 373.812 13.5625C372.5 13.2812 371.078 13.1406 369.547 13.1406C366.078 13.1406 363.047 13.9687 360.453 15.625C357.859 17.2812 355.844 19.6875 354.406 22.8437C353 25.9687 352.297 29.7656 352.297 34.2344V37.4687C352.297 41.6562 353.031 45.3437 354.5 48.5312C355.969 51.6875 358.016 54.1562 360.641 55.9375C363.297 57.7187 366.359 58.6094 369.828 58.6094C371.672 58.6094 373.547 58.4219 375.453 58.0469C377.359 57.6406 379.203 57.1094 380.984 56.4531L382.625 46.7969H394.625V64C391.906 65.875 388.438 67.5156 384.219 68.9219C380 70.2969 375.141 70.9844 369.641 70.9844Z" fill="black"/>
<path d="M408.538 70V60.3906L415.616 58.8906V12.9062L408.538 11.4062V1.75L463.053 1.75V21.4375L450.631 21.4375L450.256 14.4062L432.069 14.4062V28.4219L453.866 28.4219V41.0312H432.069V57.2969H451.147L451.522 49.9375H463.803V70H408.538Z" fill="black"/>
</svg>
