<svg width="456" height="146" viewBox="0 0 456 146" fill="none" xmlns="http://www.w3.org/2000/svg">
<path d="M34.7918 34.0784L28.5307 16.22L22.2696 34.0784L34.7918 34.0784ZM38.4916 44.6795L18.5699 44.6795L15.3682 54.0001H0.498047L20.9178 0.35376L36.1437 0.35376L56.5634 54.0001H41.6933L38.4916 44.6795Z" fill="white"/>
<path d="M83.0136 24.331H85.6461C88.3972 24.331 90.5079 23.7618 91.9783 22.6234C93.4488 21.485 94.184 19.8486 94.184 17.7141C94.184 15.5796 93.4488 13.9432 91.9783 12.8048C90.5079 11.6664 88.3972 11.0972 85.6461 11.0972L83.0136 11.0972V24.331ZM113.679 54.0001L96.3184 54.0001L83.0136 33.3669L83.0136 54.0001H69.0684L69.0684 0.35376L90.7688 0.35376C93.7571 0.35376 96.3659 0.80437 98.5952 1.70559C100.825 2.55938 102.651 3.74519 104.074 5.26303C105.544 6.78088 106.635 8.53588 107.347 10.5281C108.105 12.5202 108.485 14.6547 108.485 16.9315C108.485 21.0107 107.489 24.3309 105.497 26.8923C103.552 29.4062 100.659 31.1138 96.8165 32.015L113.679 54.0001Z" fill="white"/>
<path d="M44.2546 91.2833C41.0292 87.3464 37.0449 85.3779 32.3016 85.3779C30.2146 85.3779 28.2698 85.7574 26.4674 86.5163C24.7124 87.2752 23.1946 88.3187 21.9139 89.6469C20.6332 90.9275 19.6134 92.4691 18.8545 94.2715C18.143 96.074 17.7872 98.0187 17.7872 100.106C17.7872 102.24 18.143 104.209 18.8545 106.011C19.6134 107.814 20.6332 109.379 21.9139 110.707C23.242 112.035 24.7836 113.079 26.5386 113.838C28.2936 114.596 30.1909 114.976 32.2305 114.976C36.6891 114.976 40.6972 113.079 44.2546 109.284L44.2546 125.791L42.8317 126.289C40.6972 127.047 38.705 127.593 36.8552 127.925C35.0053 128.304 33.1791 128.494 31.3767 128.494C27.6769 128.494 24.1195 127.806 20.7043 126.431C17.3366 125.008 14.3484 123.039 11.7396 120.526C9.17822 117.964 7.1149 114.952 5.54962 111.49C3.98434 107.98 3.20171 104.161 3.20171 100.035C3.20171 95.908 3.96063 92.1371 5.47847 88.7219C7.04375 85.2593 9.10707 82.2948 11.6684 79.8283C14.2772 77.3144 17.2892 75.3696 20.7043 73.9941C24.1195 72.5711 27.7007 71.8596 31.4478 71.8596C33.5823 71.8596 35.6693 72.0968 37.7089 72.5711C39.796 72.998 41.9779 73.6858 44.2546 74.6344V91.2833Z" fill="white"/>
<path d="M71.1484 108.572C71.1484 109.806 71.3618 110.944 71.7887 111.988C72.2631 112.984 72.856 113.861 73.5675 114.62C74.3264 115.379 75.2039 115.972 76.2 116.399C77.2435 116.826 78.3344 117.039 79.4728 117.039C80.6112 117.039 81.6784 116.826 82.6745 116.399C83.718 115.972 84.5955 115.379 85.307 114.62C86.0659 113.861 86.6589 112.984 87.0857 111.988C87.5601 110.944 87.7972 109.829 87.7972 108.644C87.7972 107.505 87.5601 106.438 87.0857 105.442C86.6589 104.398 86.0659 103.497 85.307 102.738C84.5955 101.979 83.718 101.386 82.6745 100.96C81.6784 100.533 80.6112 100.319 79.4728 100.319C78.3344 100.319 77.2435 100.533 76.2 100.96C75.2039 101.386 74.3264 101.979 73.5675 102.738C72.856 103.497 72.2631 104.375 71.7887 105.371C71.3618 106.367 71.1484 107.434 71.1484 108.572ZM57.5589 108.43C57.5589 105.727 58.1044 103.213 59.1954 100.888C60.2863 98.5168 61.8042 96.4772 63.7489 94.7696C65.6936 93.0146 67.9941 91.639 70.6503 90.6429C73.354 89.6469 76.2948 89.1488 79.4728 89.1488C82.6034 89.1488 85.4968 89.6469 88.153 90.6429C90.8566 91.5916 93.1808 92.9434 95.1256 94.6984C97.1178 96.406 98.6593 98.4693 99.7503 100.888C100.841 103.26 101.387 105.893 101.387 108.786C101.387 111.679 100.817 114.336 99.6791 116.755C98.5882 119.126 97.0703 121.19 95.1256 122.945C93.1808 124.652 90.8329 125.98 88.0818 126.929C85.3782 127.878 82.4374 128.352 79.2594 128.352C76.1288 128.352 73.2354 127.878 70.5792 126.929C67.923 125.98 65.6225 124.628 63.6777 122.873C61.7804 121.118 60.2863 119.031 59.1954 116.612C58.1044 114.146 57.5589 111.418 57.5589 108.43Z" fill="white"/>
<path d="M115.915 90.5006H128.793V95.1253C130.548 92.9909 132.327 91.5679 134.129 90.8564C135.932 90.0975 138.042 89.718 140.461 89.718C143.023 89.718 145.205 90.1449 147.007 90.9987C148.857 91.805 150.422 92.9671 151.703 94.485C152.746 95.7182 153.458 97.0938 153.837 98.6116C154.217 100.129 154.407 101.861 154.407 103.806V127H141.529V108.572C141.529 106.77 141.386 105.323 141.102 104.232C140.865 103.094 140.414 102.193 139.75 101.529C139.181 100.96 138.54 100.556 137.829 100.319C137.117 100.082 136.358 99.9635 135.552 99.9635C133.37 99.9635 131.686 100.628 130.5 101.956C129.362 103.236 128.793 105.086 128.793 107.505V127H115.915V90.5006Z" fill="white"/>
<path d="M194.468 99.8923C192.096 98.6591 189.772 98.0424 187.495 98.0424C186.309 98.0424 185.337 98.2796 184.578 98.7539C183.867 99.2283 183.511 99.8686 183.511 100.675C183.511 101.102 183.558 101.458 183.653 101.742C183.795 101.979 184.056 102.217 184.436 102.454C184.863 102.691 185.456 102.904 186.215 103.094C187.021 103.284 188.064 103.521 189.345 103.806C192.903 104.517 195.559 105.798 197.314 107.648C199.069 109.45 199.946 111.774 199.946 114.62C199.946 116.755 199.519 118.676 198.666 120.383C197.812 122.091 196.626 123.537 195.108 124.723C193.59 125.862 191.764 126.739 189.63 127.356C187.495 128.02 185.147 128.352 182.586 128.352C177.653 128.352 172.791 126.953 168 124.154L172.696 115.047C176.301 117.514 179.716 118.747 182.942 118.747C184.128 118.747 185.1 118.486 185.859 117.964C186.618 117.442 186.997 116.778 186.997 115.972C186.997 115.498 186.926 115.118 186.784 114.834C186.689 114.502 186.452 114.217 186.072 113.98C185.693 113.695 185.124 113.458 184.365 113.268C183.653 113.031 182.705 112.794 181.519 112.557C177.534 111.75 174.736 110.565 173.123 108.999C171.558 107.387 170.775 105.181 170.775 102.383C170.775 100.343 171.155 98.5168 171.914 96.9041C172.673 95.2439 173.763 93.8447 175.186 92.7063C176.609 91.5679 178.317 90.6904 180.309 90.0738C182.349 89.4571 184.602 89.1488 187.068 89.1488C191.1 89.1488 195.013 89.9315 198.808 91.4967L194.468 99.8923Z" fill="white"/>
<path d="M226.47 90.5006V111.063C226.47 115.569 228.652 117.822 233.016 117.822C237.379 117.822 239.561 115.569 239.561 111.063V90.5006H252.439V113.553C252.439 118.486 250.803 122.186 247.53 124.652C244.305 127.119 239.466 128.352 233.016 128.352C226.565 128.352 221.703 127.119 218.43 124.652C215.205 122.186 213.592 118.486 213.592 113.553V90.5006L226.47 90.5006Z" fill="white"/>
<path d="M281.179 67.9464V127H268.302V67.9464H281.179Z" fill="white"/>
<path d="M311.467 101.244V127L298.589 127V101.244H294.32V90.5006H298.589V79.5437L311.467 79.5437V90.5006H318.795V101.244H311.467Z" fill="white"/>
<path d="M344.602 90.5006V127H331.724V90.5006H344.602ZM330.87 76.4843C330.87 75.4882 331.06 74.5633 331.44 73.7095C331.819 72.8083 332.341 72.0256 333.005 71.3616C333.669 70.6975 334.428 70.1758 335.282 69.7963C336.183 69.4168 337.131 69.2271 338.128 69.2271C339.124 69.2271 340.049 69.4168 340.902 69.7963C341.804 70.1758 342.586 70.6975 343.25 71.3616C343.914 72.0256 344.436 72.8083 344.816 73.7095C345.195 74.5633 345.385 75.4882 345.385 76.4843C345.385 77.4804 345.195 78.429 344.816 79.3303C344.436 80.1841 343.914 80.943 343.25 81.607C342.586 82.2711 341.804 82.7929 340.902 83.1723C340.049 83.5518 339.124 83.7415 338.128 83.7415C337.131 83.7415 336.183 83.5518 335.282 83.1723C334.428 82.7929 333.669 82.2711 333.005 81.607C332.341 80.943 331.819 80.1841 331.44 79.3303C331.06 78.429 330.87 77.4804 330.87 76.4843Z" fill="white"/>
<path d="M360.517 90.5006H373.395V95.1253C375.15 92.9909 376.929 91.5679 378.731 90.8564C380.534 90.0975 382.645 89.718 385.064 89.718C387.625 89.718 389.807 90.1449 391.609 90.9987C393.459 91.805 395.024 92.9671 396.305 94.485C397.349 95.7182 398.06 97.0938 398.44 98.6116C398.819 100.129 399.009 101.861 399.009 103.806V127L386.131 127V108.572C386.131 106.77 385.989 105.323 385.704 104.232C385.467 103.094 385.016 102.193 384.352 101.529C383.783 100.96 383.143 100.556 382.431 100.319C381.72 100.082 380.961 99.9635 380.154 99.9635C377.972 99.9635 376.289 100.628 375.103 101.956C373.964 103.236 373.395 105.086 373.395 107.505V127H360.517V90.5006Z" fill="white"/>
<path d="M426.832 108.572C426.832 109.758 427.046 110.873 427.473 111.916C427.9 112.913 428.469 113.79 429.18 114.549C429.939 115.308 430.817 115.901 431.813 116.328C432.856 116.755 433.971 116.968 435.157 116.968C436.295 116.968 437.362 116.755 438.359 116.328C439.402 115.901 440.28 115.308 440.991 114.549C441.75 113.79 442.343 112.913 442.77 111.916C443.244 110.873 443.481 109.782 443.481 108.644C443.481 107.458 443.244 106.367 442.77 105.371C442.343 104.375 441.75 103.497 440.991 102.738C440.232 101.979 439.331 101.386 438.287 100.96C437.291 100.533 436.248 100.319 435.157 100.319C434.018 100.319 432.951 100.556 431.955 101.031C430.959 101.458 430.082 102.05 429.323 102.809C428.564 103.521 427.947 104.375 427.473 105.371C427.046 106.367 426.832 107.434 426.832 108.572ZM455.719 90.5006V124.51C455.719 126.549 455.6 128.376 455.363 129.988C455.126 131.601 454.794 133.024 454.367 134.257C453.798 135.823 452.897 137.269 451.663 138.597C450.478 139.973 449.031 141.159 447.323 142.155C445.616 143.151 443.671 143.934 441.489 144.503C439.355 145.072 437.03 145.356 434.517 145.356C431.671 145.356 429.062 145.001 426.69 144.289C424.319 143.578 422.231 142.582 420.429 141.301C418.674 140.068 417.227 138.597 416.089 136.89C414.951 135.23 414.192 133.403 413.812 131.411H428.327C429.228 133.83 431.267 135.04 434.445 135.04C437.149 135.04 439.212 134.281 440.635 132.763C442.106 131.245 442.841 129.135 442.841 126.431V122.945C441.892 123.846 440.967 124.605 440.066 125.221C439.212 125.791 438.335 126.265 437.434 126.644C436.532 127.024 435.584 127.285 434.588 127.427C433.592 127.617 432.501 127.712 431.315 127.712C428.706 127.712 426.311 127.261 424.129 126.36C421.947 125.458 420.05 124.202 418.437 122.589C416.872 120.976 415.638 119.055 414.737 116.826C413.883 114.549 413.456 112.035 413.456 109.284C413.456 106.485 413.931 103.9 414.879 101.529C415.828 99.1097 417.109 97.0226 418.721 95.2676C420.382 93.4652 422.326 92.0659 424.556 91.0698C426.832 90.0263 429.299 89.5046 431.955 89.5046C436.272 89.5046 439.9 91.1173 442.841 94.3427V90.5006H455.719Z" fill="white"/>
</svg>
