<svg width="456" height="146" viewBox="0 0 456 146" fill="none" xmlns="http://www.w3.org/2000/svg">
<path d="M404.582 91.26C402.925 91.26 401.385 90.4029 400.511 88.9942L392.657 76.3254L367.631 109.7C366.726 110.906 365.307 111.616 363.799 111.616H354.806L386.384 68.9179L372.764 48.9654H382.362C384.043 48.9654 385.6 49.8459 386.466 51.2857L392.266 60.9257L411.658 34.9261C412.562 33.714 413.985 33 415.498 33H424.983L398.43 68.1196L414.521 91.26H404.582Z" fill="#6000FF"/>
<path d="M441.052 91.26L431.912 74.4736H428.447V91.26H418.411V48.9654H434.541C436.572 48.9654 438.543 49.1844 440.455 49.6225C442.406 50.0208 444.139 50.7177 445.652 51.7133C447.205 52.709 448.44 54.0232 449.356 55.6561C450.272 57.2889 450.73 59.32 450.73 61.7493C450.73 64.6168 449.953 67.0262 448.4 68.9777C446.847 70.9291 444.696 72.323 441.948 73.1593L453 91.26H441.052ZM440.634 61.9286C440.634 60.9329 440.415 60.1364 439.977 59.539C439.579 58.9018 439.041 58.4239 438.364 58.1053C437.727 57.7469 436.99 57.5079 436.154 57.3885C435.357 57.269 434.581 57.2093 433.824 57.2093H428.388V67.066H433.226C434.063 67.066 434.919 67.0063 435.795 66.8868C436.671 66.7275 437.468 66.4687 438.185 66.1102C438.902 65.7518 439.479 65.2341 439.917 64.557C440.395 63.88 440.634 63.0038 440.634 61.9286Z" fill="#6000FF"/>
<path fill-rule="evenodd" clip-rule="evenodd" d="M41.5429 58.3793C45.0545 53.5793 46.7394 50.0452 45.7168 49.0198C44.7115 48.0118 41.2883 49.6276 36.6246 53.0278C33.103 50.3274 28.7009 48.7232 23.9251 48.7232C12.3685 48.7232 3 58.117 3 69.705C3 74.5982 4.67054 79.1003 7.47096 82.669C4.76199 86.6269 3.55601 89.4852 4.4584 90.39C5.37808 91.3122 8.3214 90.0385 12.3868 87.2114C15.6945 89.4077 19.6608 90.6867 23.9251 90.6867C35.4817 90.6867 44.8502 81.2929 44.8502 69.705C44.8502 65.5334 43.6361 61.6463 41.5429 58.3793ZM41.5429 58.3793C40.2244 56.3214 38.5571 54.5096 36.6246 53.0278C32.3552 56.1406 27.0462 60.7489 21.601 66.2089C15.5469 72.2793 10.5427 78.181 7.47096 82.669C8.85526 84.433 10.5156 85.969 12.3868 87.2114C16.8334 84.1193 22.6225 79.1689 28.5742 73.201C33.917 67.8437 38.4421 62.6179 41.5429 58.3793Z" fill="#222222"/>
<path d="M77.5308 91.1511L60.8916 64.091H60.7164L60.9499 91.1511H51.2583V49.772H62.6431L79.2239 76.7736H79.3991L79.1655 49.772H88.8572V91.1511H77.5308Z" fill="#222222"/>
<path d="M97.3834 91.1511V49.772H125.174V58.2465H107.017V66.0197H124.181V74.0267H107.017V82.6181H126.225V91.1511H97.3834Z" fill="#222222"/>
<path d="M164.199 62.513C164.199 64.9287 163.751 66.9743 162.856 68.6497C161.961 70.2862 160.754 71.611 159.236 72.624C157.718 73.6371 155.967 74.3774 153.981 74.8449C151.996 75.3125 149.934 75.5463 147.793 75.5463H142.83V91.1511H132.847V49.772H148.026C150.284 49.772 152.386 50.0058 154.332 50.4733C156.317 50.9019 158.029 51.6227 159.47 52.6358C160.949 53.6099 162.097 54.9151 162.914 56.5516C163.77 58.1491 164.199 60.1362 164.199 62.513ZM154.215 62.5715C154.215 61.5974 154.02 60.7986 153.631 60.1752C153.242 59.5518 152.717 59.0647 152.055 58.7141C151.393 58.3634 150.634 58.1296 149.778 58.0127C148.961 57.8958 148.104 57.8374 147.209 57.8374H142.83V67.5977H147.034C147.968 67.5977 148.863 67.5198 149.72 67.364C150.576 67.2081 151.335 66.9354 151.996 66.5457C152.697 66.1561 153.242 65.6496 153.631 65.0262C154.02 64.3638 154.215 63.5455 154.215 62.5715Z" fill="#222222"/>
<path d="M170.192 91.1511V49.772H180.233V82.4428H196.231V91.1511H170.192Z" fill="#222222"/>
<path d="M228.947 91.1511L225.736 83.0273H209.738L206.703 91.1511H195.843L213.183 49.772H222.875L240.039 91.1511H228.947ZM217.854 60.8181L212.599 75.0203H222.992L217.854 60.8181Z" fill="#222222"/>
<path d="M269.728 91.1511L253.089 64.091H252.914L253.147 91.1511H243.456V49.772H254.841L271.421 76.7736H271.597L271.363 49.772H281.055V91.1511H269.728Z" fill="#222222"/>
<path d="M289.581 91.1511V49.772H317.371V58.2465H299.214V66.0197H316.379V74.0267H299.214V82.6181H318.422V91.1511H289.581Z" fill="#222222"/>
<path d="M342.734 58.305V91.1511H332.751V58.305H321.074V49.772H354.411V58.305H342.734Z" fill="#222222"/>
<path d="M364.799 86.0079C364.799 87.6444 364.215 89.0081 363.048 90.0991C361.919 91.1901 360.557 91.7356 358.961 91.7356C358.143 91.7356 357.365 91.5797 356.625 91.268C355.925 90.9953 355.302 90.6056 354.757 90.0991C354.212 89.5926 353.784 89.0081 353.473 88.3458C353.161 87.6444 353.006 86.8846 353.006 86.0664C353.006 85.2871 353.161 84.5468 353.473 83.8455C353.784 83.1441 354.212 82.5402 354.757 82.0337C355.302 81.4882 355.925 81.0596 356.625 80.7479C357.365 80.4362 358.143 80.2803 358.961 80.2803C360.557 80.2803 361.919 80.8258 363.048 81.9168C364.215 83.0078 364.799 84.3715 364.799 86.0079Z" fill="#222222"/>
</svg>
