<svg width="324" height="69" viewBox="0 0 324 69" fill="none" xmlns="http://www.w3.org/2000/svg">
<path d="M16.9219 69V59.3906L24.0469 57.8906L24.0469 13.5L13.5 13.5L13.0781 20.8594L0.65625 20.8594L0.65625 0.75L64.0781 0.75V20.8594L51.5156 20.8594L51.1406 13.5L40.5 13.5L40.5 57.8906L47.625 59.3906L47.625 69L16.9219 69Z" fill="#EB5757"/>
<path d="M76.1625 69V59.3906L83.2406 57.8906L83.2406 11.9062L76.1625 10.4062V0.75L130.678 0.75V20.4375L118.256 20.4375L117.881 13.4062L99.6937 13.4062V27.4219L121.491 27.4219V40.0312L99.6937 40.0312L99.6937 56.2969L118.772 56.2969L119.147 48.9375H131.428V69H76.1625Z" fill="#EB5757"/>
<path d="M146.372 69V59.3906L151.153 58.6875L171.497 0.75L189.309 0.75L209.7 58.6875L214.481 59.3906V69H188.981V59.3906L193.434 58.5469L191.372 51.1406H169.434L167.466 58.5469L171.919 59.3906V69H146.372ZM172.903 39.6094H187.856L181.2 18.9375L180.45 16.5469H180.169L179.372 19.1719L172.903 39.6094Z" fill="#EB5757"/>
<path d="M226.706 69V59.3906L233.738 57.8906V11.9062L226.706 10.4062V0.75L233.738 0.75L258.909 0.75L275.409 45.7031H275.691L291.722 0.75L323.55 0.75V10.4062L316.472 11.9062V57.8906L323.55 59.3906V69L292.987 69V59.3906L300.347 57.8906V48.9844L300.722 16.875L300.441 16.8281L281.128 69H268.191L248.597 17.4375L248.269 17.4844L249.394 46.7344V57.8906L257.316 59.3906V69H226.706Z" fill="#EB5757"/>
</svg>
