<svg width="415" height="71" viewBox="0 0 415 71" fill="none" xmlns="http://www.w3.org/2000/svg">
<path d="M23.9875 70L8.23755 12.1094L0.503174 11.4062L0.503174 1.75L31.3 1.75V11.4062L23.7063 12.4844L31.1594 43L32.2375 47.4062H32.5188L33.6438 42.9531L47.0032 1.75L58.3469 1.75L72.4094 44.875L73.3938 47.8281H73.675L74.4719 44.875L82.4407 12.4844L74.6125 11.4062V1.75L104.8 1.75V11.4062L97.5344 12.1094L81.0813 70H66.4094L54.6438 34.7031L53.1907 29.8281H52.9094L51.0813 34.9844L39.1282 70H23.9875Z" fill="#EB5757"/>
<path d="M151.853 70.9844C147.134 70.9844 142.791 70.125 138.822 68.4062C134.884 66.6562 131.463 64.2187 128.556 61.0937C125.65 57.9687 123.4 54.3125 121.806 50.125C120.244 45.9062 119.463 41.3281 119.463 36.3906V35.3125C119.463 30.4062 120.244 25.8594 121.806 21.6719C123.4 17.4844 125.634 13.8281 128.509 10.7031C131.416 7.57812 134.838 5.14062 138.775 3.39062C142.713 1.64062 147.041 0.765625 151.759 0.765625C156.384 0.765625 160.681 1.64062 164.65 3.39062C168.619 5.14062 172.088 7.57812 175.056 10.7031C178.056 13.8281 180.384 17.4844 182.041 21.6719C183.697 25.8594 184.525 30.4062 184.525 35.3125V36.3906C184.525 41.3281 183.697 45.9062 182.041 50.125C180.384 54.3125 178.072 57.9687 175.103 61.0937C172.134 64.2187 168.666 66.6562 164.697 68.4062C160.728 70.125 156.447 70.9844 151.853 70.9844ZM151.853 58.5156C155.291 58.5156 158.228 57.5937 160.666 55.75C163.103 53.9062 164.963 51.3281 166.244 48.0156C167.525 44.7031 168.166 40.8281 168.166 36.3906V35.2187C168.166 30.875 167.509 27.0625 166.197 23.7812C164.916 20.4687 163.056 17.8906 160.619 16.0469C158.181 14.2031 155.228 13.2812 151.759 13.2812C148.103 13.2812 145.103 14.1875 142.759 16C140.447 17.8125 138.728 20.3594 137.603 23.6406C136.478 26.9219 135.916 30.7812 135.916 35.2187V36.3906C135.916 40.8281 136.478 44.7187 137.603 48.0625C138.759 51.375 140.509 53.9531 142.853 55.7969C145.228 57.6094 148.228 58.5156 151.853 58.5156Z" fill="#EB5757"/>
<path d="M198.625 70V60.3906L205.703 58.8906V12.9062L198.625 11.4062V1.70312L232.188 1.70312C237.594 1.70312 242.281 2.5625 246.25 4.28125C250.219 6 253.281 8.45312 255.438 11.6406C257.594 14.7969 258.672 18.5469 258.672 22.8906C258.672 26.8906 257.578 30.6094 255.391 34.0469C253.234 37.4844 250.266 40.25 246.484 42.3437C242.703 44.4062 238.391 45.4219 233.547 45.3906L222.156 45.25V58.8906L229.234 60.3906V70L198.625 70ZM241.844 70L232.656 43.375L246.953 38.5L255.25 58.7969L261.719 60.4375V70H241.844ZM222.156 32.6406H232.375C235.563 32.6406 238.016 31.9062 239.734 30.4375C241.453 28.9375 242.313 26.7812 242.313 23.9687C242.313 21.0625 241.438 18.7344 239.688 16.9844C237.938 15.2031 235.438 14.3125 232.188 14.3125L222.156 14.3125V32.6406Z" fill="#EB5757"/>
<path d="M294.147 55.1406L285.756 45.5312L319.788 12.0156L319.834 11.9219L312.1 11.4062V1.75L343.975 1.75V11.4062L337.553 12.7656L294.147 55.1406ZM274.881 70V60.3906L281.959 58.8906V12.9062L274.881 11.4062V1.75L304.881 1.75V11.4062L298.413 12.9062V58.8906L304.881 60.3906V70H274.881ZM313.553 70V60.3906L320.397 59.875H320.491L304.084 37.4219L315.569 27.25L339.475 59.2187L346.459 60.3906V70H313.553Z" fill="#EB5757"/>
<path d="M388.122 70.9844C382.559 70.9844 377.622 70.4531 373.309 69.3906C368.997 68.3281 364.7 66.3281 360.419 63.3906V45.6719H373.122L374.528 54.7656C375.528 55.8906 377.294 56.8437 379.825 57.625C382.356 58.375 385.122 58.75 388.122 58.75C390.216 58.75 391.966 58.5 393.372 58C394.778 57.4687 395.841 56.7031 396.559 55.7031C397.278 54.7031 397.638 53.5 397.638 52.0937C397.638 50.75 397.294 49.5469 396.606 48.4844C395.95 47.4219 394.856 46.4219 393.325 45.4844C391.794 44.5156 389.731 43.5312 387.138 42.5312C381.294 40.6562 376.497 38.75 372.747 36.8125C368.997 34.875 366.2 32.5781 364.356 29.9219C362.544 27.2656 361.638 23.9687 361.638 20.0312C361.638 16.25 362.716 12.9531 364.872 10.1406C367.028 7.29687 369.997 5.0625 373.778 3.4375C377.559 1.8125 381.888 0.953125 386.763 0.859375C392.325 0.734375 397.247 1.29687 401.528 2.54687C405.809 3.76562 409.591 5.625 412.872 8.125V24.5781L400.684 24.5781L398.763 15.4375C397.7 14.9062 396.184 14.4219 394.216 13.9844C392.247 13.5469 390.153 13.3281 387.934 13.3281C386.028 13.3281 384.325 13.5781 382.825 14.0781C381.356 14.5781 380.184 15.3281 379.309 16.3281C378.466 17.3281 378.044 18.5781 378.044 20.0781C378.044 21.2969 378.403 22.3906 379.122 23.3594C379.841 24.2969 381.106 25.25 382.919 26.2187C384.731 27.1562 387.263 28.25 390.513 29.5C398.263 31.7812 404.138 34.6406 408.138 38.0781C412.169 41.4844 414.184 46.125 414.184 52C414.184 56.0312 413.091 59.4687 410.903 62.3125C408.716 65.125 405.669 67.2812 401.763 68.7812C397.856 70.25 393.309 70.9844 388.122 70.9844Z" fill="#EB5757"/>
</svg>
