<svg width="351" height="350" viewBox="0 0 351 350" fill="none" xmlns="http://www.w3.org/2000/svg">
<path fill-rule="evenodd" clip-rule="evenodd" d="M172.495 2.01816C126.617 2.68255 82.8825 21.5445 50.9119 54.4547C18.9413 87.3649 1.35366 131.627 2.01804 177.505C2.68242 223.383 21.5444 267.117 54.4546 299.088C54.8507 299.473 54.8599 300.106 54.4751 300.502C54.0902 300.898 53.4571 300.907 53.061 300.523C19.7704 268.182 0.690312 223.942 0.0182491 177.534C-0.653812 131.126 17.1372 86.3518 49.4774 53.0611C81.8176 19.7705 126.058 0.690436 172.466 0.0183715C218.874 -0.653697 263.648 17.1373 296.939 49.4775C297.335 49.8623 297.344 50.4954 296.959 50.8915C296.574 51.2877 295.941 51.2969 295.545 50.912C262.635 18.9414 218.372 1.35378 172.495 2.01816Z" fill="#DCDDDE"/>
</svg>
