<svg width="408" height="408" viewBox="0 0 408 408" fill="none" xmlns="http://www.w3.org/2000/svg">
<path fill-rule="evenodd" clip-rule="evenodd" d="M342.439 58.214C342.725 57.9148 343.2 57.9043 343.499 58.1907C382.303 95.3208 404.768 146.345 405.951 200.038C407.134 253.731 386.94 305.696 349.809 344.499C312.679 383.303 261.655 405.768 207.962 406.951C154.269 408.134 102.304 387.94 63.5008 350.809C63.2015 350.523 63.191 350.048 63.4774 349.749C63.7638 349.45 64.2385 349.439 64.5378 349.726C103.054 386.581 154.633 406.626 207.929 405.451C261.224 404.277 311.871 381.979 348.726 343.462C385.581 304.946 405.626 253.367 404.451 200.071C403.277 146.776 380.979 96.1295 342.462 59.2744C342.163 58.9881 342.153 58.5133 342.439 58.214Z" fill="#DCDDDE"/>
</svg>
