<svg width="213" height="213" viewBox="0 0 213 213" fill="none" xmlns="http://www.w3.org/2000/svg">
<mask id="path-1-inside-1" fill="white">
<path d="M213 106.5C213 165.318 165.318 213 106.5 213C47.6817 213 0 165.318 0 106.5C0 47.6817 47.6817 0 106.5 0C165.318 0 213 47.6817 213 106.5Z"/>
</mask>
<path d="M211 106.5C211 164.214 164.214 211 106.5 211V215C166.423 215 215 166.423 215 106.5H211ZM106.5 211C48.7862 211 2 164.214 2 106.5H-2C-2 166.423 46.5771 215 106.5 215V211ZM2 106.5C2 48.7862 48.7862 2 106.5 2V-2C46.5771 -2 -2 46.5771 -2 106.5H2ZM106.5 2C164.214 2 211 48.7862 211 106.5H215C215 46.5771 166.423 -2 106.5 -2V2Z" fill="white" mask="url(#path-1-inside-1)"/>
<path d="M210.787 2.21307C211.707 3.13353 212.172 4.70014 211.942 7.12051C211.712 9.52684 210.808 12.5951 209.231 16.27C206.083 23.6102 200.353 33.1432 192.475 44.2266C176.727 66.3801 152.505 94.572 123.538 123.538C94.572 152.505 66.3801 176.727 44.2266 192.475C33.1432 200.353 23.6102 206.083 16.27 209.231C12.5951 210.808 9.52684 211.712 7.12051 211.942C4.70014 212.172 3.13353 211.707 2.21307 210.787C1.29262 209.866 0.82752 208.3 1.05823 205.879C1.2876 203.473 2.19212 200.405 3.76859 196.73C6.91744 189.39 12.6466 179.857 20.5251 168.773C36.2728 146.62 60.4953 118.428 89.4616 89.4616C118.428 60.4953 146.62 36.2728 168.773 20.5251C179.857 12.6466 189.39 6.91744 196.73 3.76859C200.405 2.19212 203.473 1.2876 205.879 1.05823C208.3 0.82752 209.866 1.29262 210.787 2.21307Z" stroke="white" stroke-width="2"/>
<path d="M43.5522 109.4C43.5522 110.52 43.4189 111.693 43.1522 112.92C42.9122 114.147 42.4456 115.28 41.7522 116.32C41.0856 117.333 40.1389 118.173 38.9122 118.84C37.7122 119.507 36.1522 119.84 34.2322 119.84C31.8322 119.84 29.8322 119.227 28.2322 118C26.6322 116.747 25.5656 115.147 25.0322 113.2L31.0722 111.16C31.2589 111.907 31.5922 112.507 32.0722 112.96C32.5789 113.413 33.1922 113.64 33.9122 113.64C35.0322 113.64 35.7656 113.253 36.1122 112.48C36.4856 111.707 36.6722 110.693 36.6722 109.44V90.76H43.5522V109.4Z" fill="white"/>
<path d="M78.7641 104.8C78.7641 107.04 78.3774 109.093 77.6041 110.96C76.8308 112.8 75.7508 114.387 74.3641 115.72C73.0041 117.027 71.3774 118.04 69.4841 118.76C67.5908 119.48 65.5374 119.84 63.3241 119.84C61.1108 119.84 59.0574 119.48 57.1641 118.76C55.2974 118.04 53.6708 117.027 52.2841 115.72C50.9241 114.387 49.8574 112.8 49.0841 110.96C48.3108 109.093 47.9241 107.04 47.9241 104.8C47.9241 102.533 48.3108 100.493 49.0841 98.68C49.8574 96.84 50.9241 95.28 52.2841 94C53.6708 92.72 55.2974 91.7333 57.1641 91.04C59.0574 90.3467 61.1108 90 63.3241 90C65.5374 90 67.5908 90.3467 69.4841 91.04C71.3774 91.7333 73.0041 92.72 74.3641 94C75.7508 95.28 76.8308 96.84 77.6041 98.68C78.3774 100.493 78.7641 102.533 78.7641 104.8ZM71.4441 104.8C71.4441 103.573 71.2441 102.427 70.8441 101.36C70.4441 100.293 69.8841 99.3867 69.1641 98.64C68.4708 97.8667 67.6174 97.2667 66.6041 96.84C65.6174 96.3867 64.5241 96.16 63.3241 96.16C62.1241 96.16 61.0308 96.3867 60.0441 96.84C59.0574 97.2667 58.2041 97.8667 57.4841 98.64C56.7641 99.3867 56.2041 100.293 55.8041 101.36C55.4308 102.427 55.2441 103.573 55.2441 104.8C55.2441 106.08 55.4441 107.267 55.8441 108.36C56.2441 109.427 56.7908 110.347 57.4841 111.12C58.2041 111.893 59.0574 112.507 60.0441 112.96C61.0308 113.387 62.1241 113.6 63.3241 113.6C64.5241 113.6 65.6174 113.387 66.6041 112.96C67.5908 112.507 68.4441 111.893 69.1641 111.12C69.8841 110.347 70.4441 109.427 70.8441 108.36C71.2441 107.267 71.4441 106.08 71.4441 104.8Z" fill="white"/>
<path d="M83.2675 119.08V90.76H90.1475V119.08H83.2675Z" fill="white"/>
<path d="M114.002 119.08L102.602 100.56H102.482L102.642 119.08H96.0019V90.76H103.802L115.162 109.24H115.282L115.122 90.76H121.762V119.08H114.002Z" fill="white"/>
<path d="M161.603 108.4C161.603 110.107 161.31 111.667 160.723 113.08C160.163 114.467 159.35 115.667 158.283 116.68C157.217 117.667 155.923 118.44 154.403 119C152.91 119.56 151.243 119.84 149.403 119.84C147.537 119.84 145.857 119.56 144.363 119C142.87 118.44 141.603 117.667 140.563 116.68C139.523 115.667 138.723 114.467 138.163 113.08C137.603 111.667 137.323 110.107 137.323 108.4V90.76H144.123V107.84C144.123 108.613 144.217 109.347 144.403 110.04C144.617 110.733 144.923 111.36 145.323 111.92C145.75 112.453 146.297 112.88 146.963 113.2C147.657 113.52 148.483 113.68 149.443 113.68C150.403 113.68 151.217 113.52 151.883 113.2C152.577 112.88 153.137 112.453 153.563 111.92C153.99 111.36 154.297 110.733 154.483 110.04C154.67 109.347 154.763 108.613 154.763 107.84V90.76H161.603V108.4Z" fill="white"/>
<path d="M182.095 98.12C181.508 97.3733 180.735 96.7867 179.775 96.36C178.841 95.9067 177.935 95.68 177.055 95.68C176.601 95.68 176.135 95.72 175.655 95.8C175.201 95.88 174.788 96.04 174.415 96.28C174.041 96.4933 173.721 96.7867 173.455 97.16C173.215 97.5067 173.095 97.96 173.095 98.52C173.095 99 173.188 99.4 173.375 99.72C173.588 100.04 173.881 100.32 174.255 100.56C174.655 100.8 175.121 101.027 175.655 101.24C176.188 101.427 176.788 101.627 177.455 101.84C178.415 102.16 179.415 102.52 180.455 102.92C181.495 103.293 182.441 103.8 183.295 104.44C184.148 105.08 184.855 105.88 185.415 106.84C185.975 107.773 186.255 108.947 186.255 110.36C186.255 111.987 185.948 113.4 185.335 114.6C184.748 115.773 183.948 116.747 182.935 117.52C181.921 118.293 180.761 118.867 179.455 119.24C178.148 119.613 176.801 119.8 175.415 119.8C173.388 119.8 171.428 119.453 169.535 118.76C167.641 118.04 166.068 117.027 164.815 115.72L169.295 111.16C169.988 112.013 170.895 112.733 172.015 113.32C173.161 113.88 174.295 114.16 175.415 114.16C175.921 114.16 176.415 114.107 176.895 114C177.375 113.893 177.788 113.72 178.135 113.48C178.508 113.24 178.801 112.92 179.015 112.52C179.228 112.12 179.335 111.64 179.335 111.08C179.335 110.547 179.201 110.093 178.935 109.72C178.668 109.347 178.281 109.013 177.775 108.72C177.295 108.4 176.681 108.12 175.935 107.88C175.215 107.613 174.388 107.333 173.455 107.04C172.548 106.747 171.655 106.4 170.775 106C169.921 105.6 169.148 105.093 168.455 104.48C167.788 103.84 167.241 103.08 166.815 102.2C166.415 101.293 166.215 100.2 166.215 98.92C166.215 97.3467 166.535 96 167.175 94.88C167.815 93.76 168.655 92.84 169.695 92.12C170.735 91.4 171.908 90.88 173.215 90.56C174.521 90.2133 175.841 90.04 177.175 90.04C178.775 90.04 180.401 90.3333 182.055 90.92C183.735 91.5067 185.201 92.3733 186.455 93.52L182.095 98.12Z" fill="white"/>
<path fill-rule="evenodd" clip-rule="evenodd" d="M31.3084 111.859C31.498 112.291 31.7526 112.658 32.0723 112.96C32.579 113.413 33.1923 113.64 33.9123 113.64C35.0323 113.64 35.7657 113.253 36.1123 112.48C36.4857 111.707 36.6723 110.693 36.6723 109.44V90.76H43.5523V109.4C43.5523 110.52 43.419 111.693 43.1523 112.92C42.9123 114.147 42.4457 115.28 41.7523 116.32C41.0857 117.333 40.139 118.173 38.9123 118.84C37.7123 119.507 36.1523 119.84 34.2323 119.84C31.8323 119.84 29.8323 119.227 28.2323 118C26.6323 116.747 25.5657 115.147 25.0323 113.2L31.0723 111.16C31.1347 111.409 31.2133 111.642 31.3084 111.859ZM39.3939 119.716C37.9985 120.49 36.2561 120.84 34.2323 120.84C31.6556 120.84 29.43 120.178 27.6239 118.794L27.6156 118.787C25.8478 117.402 24.6584 115.62 24.0679 113.464L23.8186 112.554L31.7795 109.866L32.0425 110.917C32.1891 111.504 32.4344 111.923 32.7491 112.224C33.0588 112.497 33.4277 112.64 33.9123 112.64C34.79 112.64 35.0684 112.364 35.1998 112.071L35.2056 112.058L35.2118 112.045C35.4966 111.455 35.6723 110.607 35.6723 109.44V89.76H44.5523V109.4C44.5523 110.596 44.4103 111.838 44.1317 113.122C43.8659 114.474 43.3497 115.726 42.5859 116.872C41.8169 118.04 40.7402 118.984 39.3939 119.716ZM78.5281 111.343L78.5261 111.347C77.702 113.308 76.5458 115.01 75.0573 116.441C73.5933 117.847 71.8492 118.93 69.8396 119.695C67.8227 120.462 65.6477 120.84 63.3242 120.84C61.0007 120.84 58.8257 120.462 56.8088 119.695L56.8043 119.693C54.8229 118.929 53.0841 117.848 51.5984 116.448L51.5912 116.441L51.5841 116.434C50.1247 115.003 48.9846 113.304 48.1623 111.347L48.1603 111.343C47.3315 109.342 46.9242 107.157 46.9242 104.8C46.9242 102.42 47.3305 100.244 48.1633 98.2901C48.987 96.3313 50.1308 94.6535 51.5988 93.2718L51.6059 93.2652C53.0935 91.8919 54.834 90.8388 56.816 90.1026L56.8203 90.101C58.8341 89.3636 61.005 89 63.3242 89C65.6434 89 67.8143 89.3636 69.8281 90.101C71.8365 90.8365 73.5807 91.8903 75.046 93.2685C76.5415 94.6499 77.7004 96.3288 78.5252 98.2904C79.358 100.244 79.7642 102.42 79.7642 104.8C79.7642 107.157 79.3569 109.342 78.5281 111.343ZM74.3642 94C73.0042 92.72 71.3775 91.7333 69.4842 91.04C67.5909 90.3467 65.5375 90 63.3242 90C61.1109 90 59.0575 90.3467 57.1642 91.04C55.2975 91.7333 53.6709 92.72 52.2842 94C50.9242 95.28 49.8575 96.84 49.0842 98.68C48.3109 100.493 47.9242 102.533 47.9242 104.8C47.9242 107.04 48.3109 109.093 49.0842 110.96C49.8575 112.8 50.9242 114.387 52.2842 115.72C53.6709 117.027 55.2975 118.04 57.1642 118.76C59.0575 119.48 61.1109 119.84 63.3242 119.84C65.5375 119.84 67.5909 119.48 69.4842 118.76C71.3775 118.04 73.0042 117.027 74.3642 115.72C75.7509 114.387 76.8309 112.8 77.6042 110.96C78.3775 109.093 78.7642 107.04 78.7642 104.8C78.7642 102.533 78.3775 100.493 77.6042 98.68C76.8309 96.84 75.7509 95.28 74.3642 94ZM68.4317 99.3211L68.4196 99.3075C67.8306 98.6506 67.1015 98.1344 66.2161 97.7616L66.2013 97.7554L66.1867 97.7487C65.3442 97.3616 64.3954 97.16 63.3242 97.16C62.253 97.16 61.3042 97.3616 60.4617 97.7487L60.4515 97.7534L60.4411 97.7579C59.579 98.1307 58.8403 98.651 58.2161 99.3214L58.2101 99.3278L58.204 99.3341C57.5901 99.9709 57.1008 100.754 56.7444 101.701C56.4137 102.65 56.2442 103.68 56.2442 104.8C56.2442 105.973 56.4269 107.041 56.7819 108.013C57.1411 108.969 57.6236 109.776 58.2226 110.446C58.8473 111.115 59.5874 111.648 60.4514 112.047C61.2964 112.41 62.2492 112.6 63.3242 112.6C64.3992 112.6 65.352 112.41 66.197 112.047C67.064 111.647 67.8062 111.111 68.4323 110.439C69.0557 109.769 69.5489 108.965 69.9065 108.013C70.2615 107.041 70.4442 105.973 70.4442 104.8C70.4442 103.684 70.2626 102.657 69.9079 101.711C69.5511 100.76 69.0606 99.9732 68.4444 99.3341L68.4317 99.3211ZM66.6042 112.96C65.6175 113.387 64.5242 113.6 63.3242 113.6C62.1242 113.6 61.0309 113.387 60.0442 112.96C59.0575 112.507 58.2042 111.893 57.4842 111.12C56.7909 110.347 56.2442 109.427 55.8442 108.36C55.4442 107.267 55.2442 106.08 55.2442 104.8C55.2442 103.573 55.4309 102.427 55.8042 101.36C56.2042 100.293 56.7642 99.3867 57.4842 98.64C58.2042 97.8667 59.0575 97.2667 60.0442 96.84C61.0309 96.3867 62.1242 96.16 63.3242 96.16C64.5242 96.16 65.6175 96.3867 66.6042 96.84C67.6175 97.2667 68.4709 97.8667 69.1642 98.64C69.8842 99.3867 70.4442 100.293 70.8442 101.36C71.2442 102.427 71.4442 103.573 71.4442 104.8C71.4442 106.08 71.2442 107.267 70.8442 108.36C70.4442 109.427 69.8842 110.347 69.1642 111.12C68.4442 111.893 67.5909 112.507 66.6042 112.96ZM82.2676 120.08V89.76H91.1476V120.08H82.2676ZM113.443 120.08L103.511 103.945L103.651 120.08H95.002V89.76H104.361L114.253 105.851L114.113 89.76H122.762V120.08H113.443ZM115.282 109.24H115.162L103.802 90.76H96.002V119.08H102.642L102.482 100.56H102.602L114.002 119.08H121.762V90.76H115.122L115.282 109.24ZM158.972 117.405L158.963 117.414C157.79 118.499 156.38 119.337 154.753 119.937C153.132 120.545 151.344 120.84 149.404 120.84C147.437 120.84 145.635 120.545 144.012 119.936C142.408 119.335 141.023 118.494 139.875 117.405L139.866 117.396C138.723 116.283 137.847 114.966 137.236 113.454L137.234 113.448C136.622 111.904 136.324 110.217 136.324 108.4V89.76H145.124V107.84C145.124 108.526 145.205 109.165 145.365 109.763C145.545 110.343 145.798 110.858 146.121 111.316C146.443 111.712 146.859 112.04 147.389 112.295C147.921 112.539 148.596 112.68 149.444 112.68C150.297 112.68 150.953 112.537 151.451 112.298L151.458 112.295L151.465 112.292C152.029 112.031 152.457 111.699 152.775 111.304C153.118 110.852 153.365 110.347 153.518 109.78C153.68 109.178 153.764 108.532 153.764 107.84V89.76H162.604V108.4C162.604 110.221 162.29 111.912 161.649 113.459C161.036 114.974 160.143 116.293 158.972 117.405ZM160.724 113.08C161.31 111.667 161.604 110.107 161.604 108.4V90.76H154.764V107.84C154.764 108.613 154.67 109.347 154.484 110.04C154.297 110.733 153.99 111.36 153.564 111.92C153.137 112.453 152.577 112.88 151.884 113.2C151.217 113.52 150.404 113.68 149.444 113.68C148.484 113.68 147.657 113.52 146.964 113.2C146.297 112.88 145.75 112.453 145.324 111.92C144.924 111.36 144.617 110.733 144.404 110.04C144.217 109.347 144.124 108.613 144.124 107.84V90.76H137.324V108.4C137.324 110.107 137.604 111.667 138.164 113.08C138.724 114.467 139.524 115.667 140.564 116.68C141.604 117.667 142.87 118.44 144.364 119C145.857 119.56 147.537 119.84 149.404 119.84C151.244 119.84 152.91 119.56 154.404 119C155.924 118.44 157.217 117.667 158.284 116.68C159.35 115.667 160.164 114.467 160.724 113.08ZM182.024 99.6484L181.309 98.7378C180.833 98.1325 180.196 97.6414 179.369 97.2738L179.353 97.2669L179.338 97.2595C178.517 96.8605 177.759 96.68 177.055 96.68C176.662 96.68 176.252 96.7145 175.824 96.7856C175.498 96.8436 175.212 96.9563 174.956 97.1212L174.934 97.1353L174.911 97.1482C174.673 97.284 174.461 97.4739 174.274 97.7341C174.183 97.8675 174.095 98.1028 174.095 98.52C174.095 98.8531 174.156 99.062 174.225 99.1924C174.349 99.3694 174.528 99.5446 174.783 99.7107C175.121 99.9122 175.527 100.111 176.006 100.303C176.524 100.484 177.108 100.679 177.76 100.888L177.771 100.891C178.744 101.216 179.755 101.579 180.804 101.983C181.93 102.388 182.962 102.94 183.895 103.64C184.858 104.362 185.652 105.263 186.276 106.331C186.95 107.459 187.255 108.821 187.255 110.36C187.255 112.111 186.925 113.684 186.228 115.051C185.575 116.355 184.679 117.447 183.542 118.315C182.422 119.169 181.148 119.796 179.73 120.202C178.332 120.601 176.893 120.8 175.415 120.8C173.271 120.8 171.195 120.433 169.191 119.699L169.179 119.695C167.164 118.928 165.461 117.838 164.093 116.412L163.421 115.712L169.365 109.661L170.071 110.529C170.664 111.26 171.455 111.896 172.466 112.428C173.491 112.926 174.471 113.16 175.415 113.16C175.851 113.16 176.271 113.114 176.678 113.024C177.052 112.941 177.341 112.813 177.566 112.658L177.58 112.648L177.594 112.639C177.821 112.493 177.998 112.302 178.132 112.049C178.252 111.824 178.335 111.514 178.335 111.08C178.335 110.72 178.248 110.479 178.121 110.301C177.957 110.071 177.69 109.826 177.274 109.585L177.246 109.57L177.22 109.552C176.839 109.298 176.317 109.053 175.629 108.832L175.608 108.825L175.588 108.818C174.887 108.558 174.076 108.284 173.155 107.994L173.147 107.991C172.204 107.686 171.275 107.326 170.361 106.91L170.35 106.906C169.412 106.466 168.558 105.907 167.792 105.229L167.777 105.215L167.762 105.201C167.005 104.475 166.39 103.617 165.915 102.636L165.907 102.62L165.9 102.604C165.43 101.538 165.215 100.3 165.215 98.92C165.215 97.2107 165.563 95.6849 166.307 94.3839C167.019 93.1369 167.96 92.1045 169.126 91.2978C170.27 90.5057 171.554 89.9384 172.968 89.591C174.354 89.2241 175.757 89.04 177.175 89.04C178.899 89.04 180.637 89.3562 182.387 89.9768C184.188 90.606 185.773 91.5404 187.13 92.7822L187.881 93.4692L182.024 99.6484ZM182.055 90.92C180.401 90.3333 178.775 90.04 177.175 90.04C175.841 90.04 174.521 90.2133 173.215 90.56C171.908 90.88 170.735 91.4 169.695 92.12C168.655 92.84 167.815 93.76 167.175 94.88C166.535 96 166.215 97.3467 166.215 98.92C166.215 100.2 166.415 101.293 166.815 102.2C167.242 103.08 167.788 103.84 168.455 104.48C169.148 105.093 169.921 105.6 170.775 106C171.655 106.4 172.548 106.747 173.455 107.04C174.388 107.333 175.215 107.613 175.935 107.88C176.681 108.12 177.295 108.4 177.775 108.72C178.281 109.013 178.668 109.347 178.935 109.72C179.201 110.093 179.335 110.547 179.335 111.08C179.335 111.64 179.228 112.12 179.015 112.52C178.801 112.92 178.508 113.24 178.135 113.48C177.788 113.72 177.375 113.893 176.895 114C176.415 114.107 175.921 114.16 175.415 114.16C174.295 114.16 173.161 113.88 172.015 113.32C171.231 112.909 170.552 112.434 169.977 111.893C169.73 111.66 169.503 111.416 169.295 111.16L164.815 115.72C164.815 115.72 164.815 115.72 164.815 115.72C164.97 115.882 165.13 116.039 165.296 116.192C165.375 116.266 165.456 116.339 165.538 116.411C166.657 117.389 167.989 118.172 169.535 118.76C171.428 119.453 173.388 119.8 175.415 119.8C176.801 119.8 178.148 119.613 179.455 119.24C180.761 118.867 181.921 118.293 182.935 117.52C183.948 116.747 184.748 115.773 185.335 114.6C185.948 113.4 186.255 111.987 186.255 110.36C186.255 108.947 185.975 107.773 185.415 106.84C184.855 105.88 184.148 105.08 183.295 104.44C182.441 103.8 181.495 103.293 180.455 102.92C179.415 102.52 178.415 102.16 177.455 101.84C176.788 101.627 176.188 101.427 175.655 101.24C175.121 101.027 174.655 100.8 174.255 100.56C173.882 100.32 173.588 100.04 173.375 99.72C173.188 99.4 173.095 99 173.095 98.52C173.095 97.96 173.215 97.5067 173.455 97.16C173.721 96.7867 174.041 96.4933 174.415 96.28C174.788 96.04 175.201 95.88 175.655 95.8C176.135 95.72 176.602 95.68 177.055 95.68C177.935 95.68 178.841 95.9067 179.775 96.36C180.397 96.6367 180.941 96.9807 181.407 97.392C181.659 97.6149 181.889 97.8576 182.095 98.12L186.455 93.5202C186.208 93.2942 185.952 93.0788 185.689 92.8746C184.615 92.0425 183.404 91.391 182.055 90.92ZM83.2676 119.08H90.1476V90.76H83.2676V119.08Z" fill="#EB5757"/>
</svg>
