<svg width="1280" height="640" viewBox="0 0 1280 640" fill="none" xmlns="http://www.w3.org/2000/svg">
<g clip-path="url(#clip0)">
<path opacity="0.4" d="M1119.4 340.3L1119.5 347.3L1112.5 347.4L1112.4 340.4L1119.4 340.3Z" stroke="#A7A9AC" stroke-width="0.5" stroke-miterlimit="10"/>
<path opacity="0.4" d="M1128.4 340.2L1128.5 347.2L1121.5 347.3L1121.4 340.3L1128.4 340.2Z" stroke="#A7A9AC" stroke-width="0.5" stroke-miterlimit="10"/>
<path opacity="0.4" d="M1137.5 340.2L1137.6 347.2L1130.6 347.3L1130.5 340.3L1137.5 340.2Z" stroke="#A7A9AC" stroke-width="0.5" stroke-miterlimit="10"/>
<path opacity="0.4" d="M1146.7 340.1L1146.8 347.1L1139.8 347.2L1139.7 340.2L1146.7 340.1Z" stroke="#A7A9AC" stroke-width="0.5" stroke-miterlimit="10"/>
<path opacity="0.4" d="M865.5 348.1L1102.2 346.4" stroke="#A7A9AC" stroke-width="0.5" stroke-miterlimit="10"/>
<path opacity="0.4" d="M1021.6 352.1L1030.2 347.1L1021.5 342.2L1021.6 352.1Z" fill="#939598"/>
<path opacity="0.4" d="M1033.8 352.1L1042.5 346.9L1033.7 341.9L1033.8 352.1Z" fill="#939598"/>
<path opacity="0.4" d="M1045.8 352L1054.5 346.8L1045.7 341.8L1045.8 352Z" fill="#939598"/>
<path opacity="0.4" d="M868.1 348.2C868.1 349.6 867 350.8 865.5 350.9C864.1 350.9 863 349.8 862.8 348.3C862.8 346.9 863.9 345.7 865.4 345.6C866.8 345.5 868 346.7 868.1 348.2Z" fill="#939598"/>
<path opacity="0.4" d="M1104.5 346.1C1104.5 347.5 1103.4 348.7 1101.9 348.8C1100.5 348.8 1099.4 347.7 1099.2 346.2C1099.2 344.8 1100.3 343.6 1101.8 343.5C1103.4 343.6 1104.5 344.7 1104.5 346.1Z" fill="#939598"/>
<path opacity="0.4" d="M832.8 405.3L881.8 404.9L944.2 468.7L943.8 410.9L985 450.8L1292 448.6" stroke="#A7A9AC" stroke-width="0.5" stroke-miterlimit="10"/>
<path opacity="0.4" d="M946.7 468.7C946.7 470.1 945.6 471.3 944.1 471.4C942.7 471.4 941.5 470.3 941.4 468.8C941.4 467.4 942.5 466.2 944 466.1C945.5 466.1 946.7 467.3 946.7 468.7Z" fill="#939598"/>
<path opacity="0.4" d="M835.3 406C835.3 407.4 834.2 408.6 832.7 408.7C831.3 408.7 830.1 407.6 830 406.1C830 404.7 831.1 403.5 832.6 403.4C834.1 403.4 835.3 404.6 835.3 406Z" fill="#939598"/>
<path opacity="0.4" d="M849.5 369.9L938.7 369.2L986.4 415.5L1193.7 413.9" stroke="#A7A9AC" stroke-width="0.5" stroke-miterlimit="10"/>
<path opacity="0.4" d="M1021.2 405.8L1021.3 423H1018L1017.9 405.8H1021.2Z" fill="#A7A9AC"/>
<path opacity="0.4" d="M1026.9 422.9H1023.7L1023.5 405.7L1026.9 405.8V422.9Z" fill="#A7A9AC"/>
<path opacity="0.4" d="M1032.5 405.7L1032.6 422.9H1029.3L1029.2 405.7H1032.5Z" fill="#A7A9AC"/>
<path opacity="0.4" d="M1038.1 405.7L1038.2 422.9H1034.9L1034.8 405.7H1038.1Z" fill="#A7A9AC"/>
<path opacity="0.4" d="M990.9 414.7C990.9 417.7 988.4 420.3 985.3 420.4C982.3 420.4 979.7 417.9 979.6 414.8C979.6 411.8 982.1 409.2 985.2 409.1C988.3 409.2 990.8 411.6 990.9 414.7Z" stroke="#A7A9AC" stroke-width="0.5" stroke-miterlimit="10"/>
<path opacity="0.4" d="M852.5 369.9C852.5 371.3 851.4 372.5 849.9 372.6C848.5 372.6 847.3 371.5 847.2 370C847.2 368.6 848.3 367.4 849.8 367.3C851.3 367.4 852.5 368.5 852.5 369.9Z" fill="#939598"/>
<path opacity="0.4" d="M1197.1 414.2C1197.1 415.6 1196 416.8 1194.5 416.9C1193.1 416.9 1192 415.8 1191.8 414.3C1191.8 412.9 1192.9 411.8 1194.4 411.6C1196 411.6 1197.1 412.8 1197.1 414.2Z" fill="#939598"/>
<path opacity="0.4" d="M1084.2 401L1084.3 408L1077.3 408.1L1077.2 401.1L1084.2 401Z" fill="#A7A9AC"/>
<path opacity="0.4" d="M1093.2 401V408L1086.2 408.1L1086.1 401.1L1093.2 401Z" fill="#A7A9AC"/>
<path opacity="0.4" d="M1102.4 400.9L1102.5 407.9L1095.5 408L1095.4 401L1102.4 400.9Z" fill="#A7A9AC"/>
<path opacity="0.4" d="M1111.5 400.9V407.9L1104.5 408V401L1111.5 400.9Z" fill="#A7A9AC"/>
<path opacity="0.4" d="M1047.7 405.7C1047.7 406.6 1047 407.3 1046.1 407.3C1045.2 407.3 1044.5 406.6 1044.5 405.7C1044.5 404.8 1045.2 404.1 1046.1 404.1C1047 404.1 1047.7 404.8 1047.7 405.7Z" fill="#939598"/>
<path opacity="0.4" d="M1050 406.9C1049.3 406.3 1049.3 405.2 1050 404.6C1050.6 404 1051.7 403.9 1052.3 404.6C1052.9 405.2 1053 406.3 1052.3 406.9C1051.7 407.5 1050.6 407.5 1050 406.9Z" fill="#939598"/>
<path opacity="0.4" d="M1055.2 406.7C1054.6 406.1 1054.5 405 1055.2 404.4C1055.8 403.8 1056.9 403.7 1057.5 404.4C1058.1 405 1058.2 406.1 1057.5 406.7C1056.9 407.3 1055.8 407.3 1055.2 406.7Z" fill="#939598"/>
<path opacity="0.4" d="M1060.3 406.7C1059.6 406.1 1059.6 405 1060.3 404.4C1060.9 403.8 1062 403.7 1062.6 404.4C1063.2 405 1063.3 406.1 1062.6 406.7C1062 407.3 1060.9 407.3 1060.3 406.7Z" fill="#939598"/>
<path opacity="0.4" d="M1068.2 405.6C1068.2 406.5 1067.5 407.2 1066.6 407.2C1065.7 407.2 1065 406.5 1065 405.6C1065 404.7 1065.7 404 1066.6 404C1067.4 403.8 1068.2 404.6 1068.2 405.6Z" fill="#939598"/>
<path opacity="0.4" d="M931.4 364.8C931.4 365.7 930.7 366.4 929.8 366.4C928.9 366.4 928.2 365.7 928.2 364.8C928.2 363.9 928.9 363.2 929.8 363.2C930.5 363.1 931.3 363.9 931.4 364.8Z" fill="#939598"/>
<path opacity="0.4" d="M936.4 364.7C936.4 365.6 935.7 366.3 934.8 366.3C933.9 366.3 933.2 365.6 933.2 364.7C933.2 363.8 933.9 363.1 934.8 363.1C935.6 363 936.4 363.8 936.4 364.7Z" fill="#939598"/>
<path opacity="0.4" d="M941.6 364.6C941.6 365.5 940.9 366.2 940 366.2C939.1 366.2 938.4 365.5 938.4 364.6C938.4 363.7 939.1 363 940 363C940.9 363 941.6 363.7 941.6 364.6Z" fill="#939598"/>
<path opacity="0.4" d="M946.7 364.5C946.7 365.4 946 366.1 945.1 366.1C944.2 366.1 943.5 365.4 943.5 364.5C943.5 363.6 944.2 362.9 945.1 362.9C946 362.9 946.7 363.6 946.7 364.5Z" fill="#939598"/>
<path opacity="0.4" d="M951.8 364.5C951.8 365.4 951.1 366.1 950.2 366.1C949.3 366.1 948.6 365.4 948.6 364.5C948.6 363.6 949.3 362.9 950.2 362.9C951.1 362.9 951.8 363.6 951.8 364.5Z" fill="#939598"/>
<path opacity="0.4" d="M886.5 434.3L952 498.9" stroke="#A7A9AC" stroke-width="0.5" stroke-miterlimit="10"/>
<path opacity="0.4" d="M889.7 435.2C889.7 436.6 888.6 437.8 887.1 437.9C885.7 437.9 884.5 436.8 884.4 435.3C884.4 433.9 885.5 432.7 887 432.6C888.5 432.5 889.8 433.7 889.7 435.2Z" fill="#939598"/>
<path opacity="0.4" d="M958 499.3C958 502.3 955.5 504.9 952.4 505C949.4 505 946.8 502.5 946.7 499.4C946.7 496.4 949.2 493.8 952.3 493.7C955.4 493.8 957.9 496.2 958 499.3Z" stroke="#A7A9AC" stroke-width="0.5" stroke-miterlimit="10"/>
<path opacity="0.4" d="M850.2 431.6C850.2 432.5 849.5 433.2 848.6 433.2C847.7 433.2 847 432.5 847 431.6C847 430.7 847.7 430 848.6 430C849.5 430 850.2 430.7 850.2 431.6Z" fill="#939598"/>
<path opacity="0.4" d="M855.3 431.6C855.3 432.5 854.6 433.2 853.7 433.2C852.8 433.2 852.1 432.5 852.1 431.6C852.1 430.7 852.8 430 853.7 430C854.5 430 855.2 430.6 855.3 431.6Z" fill="#939598"/>
<path opacity="0.4" d="M860.5 431.6C860.5 432.5 859.8 433.2 858.9 433.2C858 433.2 857.3 432.5 857.3 431.6C857.3 430.7 858 430 858.9 430C859.6 429.9 860.4 430.7 860.5 431.6Z" fill="#939598"/>
<path opacity="0.4" d="M862.8 432.8C862.2 432.2 862.1 431.1 862.8 430.5C863.4 429.9 864.5 429.8 865.1 430.5C865.7 431.1 865.8 432.2 865.1 432.8C864.5 433.4 863.4 433.4 862.8 432.8Z" fill="#939598"/>
<path opacity="0.4" d="M870.7 431.5C870.7 432.4 870 433.1 869.1 433.1C868.2 433.1 867.5 432.4 867.5 431.5C867.5 430.6 868.2 429.9 869.1 429.9C870 429.8 870.7 430.5 870.7 431.5Z" fill="#939598"/>
<path opacity="0.4" d="M908.2 385.8L908.3 392.8L901.3 392.9L901.2 385.9L908.2 385.8Z" stroke="#A7A9AC" stroke-width="0.5" stroke-miterlimit="10"/>
<path opacity="0.4" d="M917.4 385.7L917.5 392.7L910.5 392.8L910.4 385.8L917.4 385.7Z" stroke="#A7A9AC" stroke-width="0.5" stroke-miterlimit="10"/>
<path opacity="0.4" d="M926.5 385.7L926.6 392.7L919.6 392.8L919.5 385.8L926.5 385.7Z" stroke="#A7A9AC" stroke-width="0.5" stroke-miterlimit="10"/>
<path opacity="0.4" d="M935.5 385.5L935.6 392.5L928.6 392.6L928.5 385.6L935.5 385.5Z" stroke="#A7A9AC" stroke-width="0.5" stroke-miterlimit="10"/>
<path opacity="0.4" d="M1196 325.2L1029.3 326.4L977.9 389L942.9 389.4" stroke="#A7A9AC" stroke-width="0.5" stroke-miterlimit="10"/>
<path opacity="0.4" d="M945.8 389.7C945.8 391.1 944.7 392.3 943.2 392.4C941.8 392.4 940.6 391.3 940.5 389.8C940.5 388.4 941.6 387.2 943.1 387.1C944.7 387.1 945.9 388.2 945.8 389.7Z" fill="#939598"/>
<path opacity="0.4" d="M1031.9 326.5C1031.9 327.9 1030.8 329.1 1029.3 329.2C1027.9 329.2 1026.7 328.1 1026.6 326.6C1026.6 325.2 1027.7 324 1029.2 323.9C1030.8 323.7 1031.9 324.8 1031.9 326.5Z" fill="#939598"/>
<path opacity="0.4" d="M1195.2 325.1C1195.2 326.5 1194.1 327.7 1192.6 327.8C1191.2 327.8 1190 326.7 1189.9 325.2C1189.9 323.8 1191 322.7 1192.5 322.5C1194 322.6 1195.2 323.7 1195.2 325.1Z" fill="#939598"/>
<path opacity="0.4" d="M1005.5 322L1010.3 319.2L1005.3 316.3L1005.5 322Z" fill="#939598"/>
<path opacity="0.4" d="M1012.2 322L1017 319.2L1012 316.3L1012.2 322Z" fill="#939598"/>
<path opacity="0.4" d="M1019 321.9L1023.7 319L1018.8 316.3L1019 321.9Z" fill="#939598"/>
<path opacity="0.4" d="M1073.7 322C1073.1 321.4 1073.1 320.3 1073.7 319.7C1074.3 319.1 1075.4 319 1076 319.7C1076.6 320.4 1076.7 321.4 1076 322C1075.4 322.6 1074.4 322.6 1073.7 322Z" fill="#939598"/>
<path opacity="0.4" d="M1081.6 320.8C1081.6 321.7 1080.9 322.4 1080 322.4C1079.1 322.4 1078.4 321.7 1078.4 320.8C1078.4 319.9 1079.1 319.2 1080 319.2C1080.9 319.2 1081.6 319.8 1081.6 320.8Z" fill="#939598"/>
<path opacity="0.4" d="M1086.9 320.7C1086.9 321.6 1086.2 322.3 1085.3 322.3C1084.4 322.3 1083.7 321.6 1083.7 320.7C1083.7 319.8 1084.4 319.1 1085.3 319.1C1086.1 319 1086.9 319.8 1086.9 320.7Z" fill="#939598"/>
<path opacity="0.4" d="M1092 320.7C1092 321.6 1091.3 322.3 1090.4 322.3C1089.5 322.3 1088.8 321.6 1088.8 320.7C1088.8 319.8 1089.5 319.1 1090.4 319.1C1091.2 319 1092 319.8 1092 320.7Z" fill="#939598"/>
<path opacity="0.4" d="M1097.1 320.6C1097.1 321.5 1096.4 322.2 1095.5 322.2C1094.6 322.2 1093.9 321.5 1093.9 320.6C1093.9 319.7 1094.6 319 1095.5 319C1096.2 318.9 1097.1 319.7 1097.1 320.6Z" fill="#939598"/>
<path opacity="0.4" d="M850.7 325.5L986.6 324.5L1021.4 279.9L1112.2 279.2" stroke="#A7A9AC" stroke-width="0.5" stroke-miterlimit="10"/>
<path opacity="0.4" d="M850.8 322.4C849.2 322.4 847.8 323.8 847.7 325.5C847.7 327.1 849.1 328.5 850.8 328.6C852.4 328.6 853.8 327.2 853.9 325.5C853.9 323.8 852.6 322.5 850.8 322.4Z" fill="white"/>
<path opacity="0.4" d="M850.8 322C852.6 322 854.3 323.6 854.3 325.4C854.3 327.2 852.7 328.9 850.9 328.9C849.1 328.9 847.4 327.3 847.4 325.5C847.4 323.6 848.9 322.1 850.8 322C848.9 322.1 852.8 322.1 850.8 322ZM850.9 328.2C852.3 328.2 853.5 326.9 853.5 325.5C853.5 324.1 852.2 322.9 850.8 322.9C849.4 322.9 848.2 324.2 848.2 325.6C848.2 326.9 849.5 328.2 850.9 328.2C849.5 328.2 852.3 328.2 850.9 328.2Z" fill="#A7A9AC"/>
<path opacity="0.4" d="M1112.1 276C1113.7 276 1115.1 277.4 1115.2 279.1C1115.2 280.7 1113.8 282.1 1112.1 282.2C1110.5 282.2 1109.1 280.8 1109 279.1C1109.1 277.5 1110.5 276.1 1112.1 276Z" fill="#A7A9AC"/>
<path opacity="0.4" d="M964.1 324.1C964.1 327.1 961.6 329.7 958.5 329.8C955.5 329.8 952.9 327.3 952.8 324.2C952.8 321.2 955.3 318.6 958.4 318.5C961.4 318.4 963.9 321 964.1 324.1Z" stroke="#A7A9AC" stroke-width="0.5" stroke-miterlimit="10"/>
<path opacity="0.4" d="M858.5 299.3L858.6 306.3L851.6 306.4L851.5 299.4L858.5 299.3Z" stroke="#A7A9AC" stroke-width="0.5" stroke-miterlimit="10"/>
<path opacity="0.4" d="M867.7 299.2L867.8 306.2L860.8 306.3L860.7 299.3L867.7 299.2Z" stroke="#A7A9AC" stroke-width="0.5" stroke-miterlimit="10"/>
<path opacity="0.4" d="M876.8 299L876.9 306L869.9 306.1L869.8 299.1L876.8 299Z" stroke="#A7A9AC" stroke-width="0.5" stroke-miterlimit="10"/>
<path opacity="0.4" d="M885.8 299L885.9 306L878.9 306.1L878.8 299.1L885.8 299Z" stroke="#A7A9AC" stroke-width="0.5" stroke-miterlimit="10"/>
<path opacity="0.4" d="M971 272.2L975.8 269.4L970.9 266.7L971 272.2Z" fill="#939598"/>
<path opacity="0.4" d="M977.7 272.1L982.5 269.3L977.6 266.6L977.7 272.1Z" fill="#939598"/>
<path opacity="0.4" d="M984.4 272.1L989.2 269.3L984.3 266.6L984.4 272.1Z" fill="#939598"/>
<path opacity="0.4" d="M1063.8 234.6L1063.9 251.8L1057.7 251.9L1057.6 234.7L1063.8 234.6Z" stroke="#A7A9AC" stroke-width="0.5" stroke-miterlimit="10"/>
<path opacity="0.4" d="M1071.9 234.6L1072 251.8H1065.8L1065.7 234.6H1071.9Z" stroke="#A7A9AC" stroke-width="0.5" stroke-miterlimit="10"/>
<path opacity="0.4" d="M1080 234.5L1080.1 251.7H1073.9L1073.8 234.5H1080Z" stroke="#A7A9AC" stroke-width="0.5" stroke-miterlimit="10"/>
<path opacity="0.4" d="M1088.3 234.5L1088.4 251.7L1082.2 251.8L1082.1 234.6L1088.3 234.5Z" stroke="#A7A9AC" stroke-width="0.5" stroke-miterlimit="10"/>
<path opacity="0.4" d="M863.3 247.9L863.4 265.1H860.1L860 247.9H863.3Z" fill="#A7A9AC"/>
<path opacity="0.4" d="M869.1 265.2L865.7 265.1V247.9H868.9L869.1 265.2Z" fill="#A7A9AC"/>
<path opacity="0.4" d="M874.6 247.9L874.7 265.1H871.4L871.3 247.9H874.6Z" fill="#A7A9AC"/>
<path opacity="0.4" d="M880.4 247.7L880.5 265H877.2L877.1 247.7H880.4Z" fill="#A7A9AC"/>
<path opacity="0.4" d="M905.7 265C905.7 265.9 905 266.6 904.1 266.6C903.2 266.6 902.5 265.9 902.5 265C902.5 264.1 903.2 263.4 904.1 263.4C905 263.4 905.7 264.1 905.7 265Z" fill="#939598"/>
<path opacity="0.4" d="M911.1 265C911.1 265.9 910.4 266.6 909.5 266.6C908.6 266.6 907.9 265.9 907.9 265C907.9 264.1 908.6 263.4 909.5 263.4C910.2 263.3 911.1 264.1 911.1 265Z" fill="#939598"/>
<path opacity="0.4" d="M916.1 264.9C916.1 265.8 915.4 266.5 914.5 266.5C913.6 266.5 912.9 265.8 912.9 264.9C912.9 264 913.6 263.3 914.5 263.3C915.3 263.2 916.1 264 916.1 264.9Z" fill="#939598"/>
<path opacity="0.4" d="M921.2 264.9C921.2 265.8 920.5 266.5 919.6 266.5C918.7 266.5 918 265.8 918 264.9C918 264 918.7 263.3 919.6 263.3C920.5 263.3 921.2 264 921.2 264.9Z" fill="#939598"/>
<path opacity="0.4" d="M926.3 264.9C926.3 265.8 925.6 266.5 924.7 266.5C923.8 266.5 923.1 265.8 923.1 264.9C923.1 264 923.8 263.3 924.7 263.3C925.6 263.3 926.3 263.9 926.3 264.9Z" fill="#939598"/>
<path opacity="0.4" d="M852.3 273.9L928.2 273.4L953.4 249.2L953.7 286.2L985.5 286.1L1040.5 221.7L1040.9 257.9L1124.4 257.4" stroke="#A7A9AC" stroke-width="0.5" stroke-miterlimit="10"/>
<path opacity="0.4" d="M852.5 270.9C850.9 270.9 849.5 272.3 849.4 274C849.4 275.6 850.8 277 852.5 277.1C854.1 277.1 855.5 275.7 855.6 274C855.5 272.2 854.1 270.9 852.5 270.9Z" fill="white"/>
<path opacity="0.4" d="M852.5 270.4C854.3 270.4 856 272 856 273.8C856 275.6 854.4 277.3 852.6 277.3C850.8 277.3 849.1 275.7 849.1 273.9C849.1 272 850.6 270.5 852.5 270.4C850.6 270.5 854.4 270.4 852.5 270.4ZM852.4 276.5C853.8 276.5 855 275.2 855 273.8C855 272.4 853.7 271.2 852.3 271.2C850.9 271.2 849.7 272.5 849.7 273.9C849.9 275.4 851.1 276.5 852.4 276.5C851.1 276.5 854.1 276.5 852.4 276.5Z" fill="#A7A9AC"/>
<path opacity="0.4" d="M1124.3 254.1C1125.9 254.1 1127.3 255.5 1127.4 257.2C1127.4 258.8 1126 260.2 1124.3 260.3C1122.7 260.3 1121.3 258.9 1121.1 257.2C1121.3 255.5 1122.7 254.1 1124.3 254.1Z" fill="#A7A9AC"/>
<path opacity="0.4" d="M956.1 249.3C956.1 250.7 955 251.9 953.5 252C952.1 252 950.9 250.9 950.8 249.4C950.8 248 951.9 246.8 953.4 246.7C954.8 246.6 956 247.8 956.1 249.3Z" fill="#A7A9AC"/>
<path opacity="0.4" d="M1043.3 221.6C1043.3 223 1042.2 224.2 1040.7 224.3C1039.3 224.3 1038.2 223.2 1038 221.7C1038 220.3 1039.1 219.1 1040.6 219C1042 218.9 1043.1 220.1 1043.3 221.6Z" fill="#A7A9AC"/>
<path opacity="0.4" d="M988.2 285.9C988.2 287.3 987.1 288.5 985.6 288.6C984.2 288.6 983 287.5 982.9 286C982.9 284.6 984 283.4 985.5 283.3C987 283.4 988.2 284.5 988.2 285.9Z" fill="#A7A9AC"/>
<path opacity="0.4" d="M975.7 467.4L984.4 462.2L975.6 457.2L975.7 467.4Z" fill="#939598"/>
<path opacity="0.4" d="M987.7 467.3L996.4 462.1L987.6 457.1L987.7 467.3Z" fill="#939598"/>
<path opacity="0.4" d="M999.8 467.1L1008.4 462.1L999.6 457.1L999.8 467.1Z" fill="#939598"/>
<path opacity="0.4" d="M1085.5 467.9C1085.5 468.8 1084.8 469.5 1083.9 469.5C1083 469.5 1082.3 468.8 1082.3 467.9C1082.3 467 1083 466.3 1083.9 466.3C1084.8 466.3 1085.6 467.1 1085.5 467.9Z" fill="#939598"/>
<path opacity="0.4" d="M1090.7 468C1090.7 468.9 1090 469.6 1089.1 469.6C1088.2 469.6 1087.5 468.9 1087.5 468C1087.5 467.1 1088.2 466.4 1089.1 466.4C1089.8 466.3 1090.7 467.1 1090.7 468Z" fill="#939598"/>
<path opacity="0.4" d="M1093 469.2C1092.4 468.6 1092.4 467.5 1093 466.9C1093.6 466.3 1094.7 466.2 1095.3 466.9C1095.9 467.5 1096 468.6 1095.3 469.2C1094.7 469.8 1093.6 469.8 1093 469.2Z" fill="#939598"/>
<path opacity="0.4" d="M1098.1 469.1C1097.5 468.5 1097.4 467.4 1098.1 466.8C1098.8 466.2 1099.8 466.1 1100.4 466.8C1101 467.5 1101.1 468.5 1100.4 469.1C1099.7 469.7 1098.7 469.8 1098.1 469.1Z" fill="#939598"/>
<path opacity="0.4" d="M1106 467.8C1106 468.7 1105.3 469.4 1104.4 469.4C1103.5 469.4 1102.8 468.7 1102.8 467.8C1102.8 466.9 1103.5 466.2 1104.4 466.2C1105.3 466.2 1106 466.9 1106 467.8Z" fill="#939598"/>
<path opacity="0.4" d="M1168.9 478L1041 479.3L1006.9 521.6H951.9L874.8 446.4L829.5 446.3" stroke="#A7A9AC" stroke-width="0.5" stroke-miterlimit="10"/>
<path opacity="0.4" d="M1168.8 481.2C1170.4 481.2 1171.8 479.8 1171.9 478.1C1171.9 476.5 1170.5 475.1 1168.8 475C1167.2 475 1165.8 476.4 1165.7 478.1C1165.6 479.9 1167.2 481.2 1168.8 481.2Z" fill="white"/>
<path opacity="0.4" d="M1168.8 481.6C1167 481.6 1165.3 480 1165.3 478.2C1165.3 476.4 1166.9 474.7 1168.7 474.7C1170.5 474.7 1172.2 476.3 1172.2 478.1C1172.2 480 1170.6 481.6 1168.8 481.6C1170.6 481.6 1166.8 481.5 1168.8 481.6ZM1168.7 475.4C1167.3 475.4 1166.1 476.7 1166.1 478.1C1166.1 479.5 1167.4 480.7 1168.8 480.7C1170.2 480.7 1171.4 479.4 1171.4 478C1171.4 476.6 1170.1 475.4 1168.7 475.4C1170.1 475.4 1167.2 475.5 1168.7 475.4Z" fill="#A7A9AC"/>
<path opacity="0.4" d="M829.6 449.4C828 449.4 826.6 448 826.5 446.3C826.4 444.6 827.9 443.3 829.6 443.2C831.2 443.2 832.6 444.6 832.7 446.3C832.6 448 831.2 449.4 829.6 449.4Z" fill="#A7A9AC"/>
<path opacity="0.4" d="M954.5 521.5C954.5 522.9 953.4 524.1 951.9 524.2C950.5 524.2 949.3 523.1 949.2 521.6C949.2 520.2 950.3 519 951.8 518.9C953.3 519 954.5 520.1 954.5 521.5Z" fill="#A7A9AC"/>
<path opacity="0.4" d="M1043.5 479.4C1043.5 480.8 1042.4 482 1040.9 482.1C1039.5 482.1 1038.4 481 1038.2 479.5C1038.2 478.1 1039.3 476.9 1040.8 476.8C1042.3 476.8 1043.5 478 1043.5 479.4Z" fill="#A7A9AC"/>
<path opacity="0.4" d="M1053.3 503.9L1062 498.7L1053.3 493.8V503.9Z" fill="#939598"/>
<path opacity="0.4" d="M1065.4 503.9L1074.2 498.7L1065.4 493.7V503.9Z" fill="#939598"/>
<path opacity="0.4" d="M1077.5 503.7L1086.1 498.7L1077.3 493.7L1077.5 503.7Z" fill="#939598"/>
<path opacity="0.4" d="M194.9 278.7L195 285.7L188 285.8L187.9 278.8L194.9 278.7Z" stroke="#A7A9AC" stroke-width="0.5" stroke-miterlimit="10"/>
<path opacity="0.4" d="M185.8 278.7L185.9 285.7L178.9 285.8L178.8 278.8L185.8 278.7Z" stroke="#A7A9AC" stroke-width="0.5" stroke-miterlimit="10"/>
<path opacity="0.4" d="M176.8 278.8L176.9 285.8L169.9 285.9L169.8 278.9L176.8 278.8Z" stroke="#A7A9AC" stroke-width="0.5" stroke-miterlimit="10"/>
<path opacity="0.4" d="M167.7 278.9L167.8 285.9L160.8 286L160.7 279L167.7 278.9Z" stroke="#A7A9AC" stroke-width="0.5" stroke-miterlimit="10"/>
<path opacity="0.4" d="M439.3 278.1L205.1 279.8" stroke="#A7A9AC" stroke-width="0.5" stroke-miterlimit="10"/>
<path opacity="0.4" d="M285.8 273.9L277.1 279.1L285.9 284.1L285.8 273.9Z" fill="#939598"/>
<path opacity="0.4" d="M273.8 274L265.1 279.2L273.9 284.2L273.8 274Z" fill="#939598"/>
<path opacity="0.4" d="M261.6 274.2L252.9 279.4L261.7 284.2L261.6 274.2Z" fill="#939598"/>
<path opacity="0.4" d="M436.6 278C436.6 276.6 437.7 275.4 439.2 275.3C440.6 275.3 441.8 276.4 441.9 277.9C441.9 279.3 440.8 280.5 439.3 280.6C437.9 280.6 436.7 279.5 436.6 278Z" fill="#939598"/>
<path opacity="0.4" d="M202.7 280C202.7 278.6 203.8 277.4 205.3 277.3C206.7 277.3 207.8 278.4 208 279.9C208 281.3 206.9 282.5 205.4 282.6C203.9 282.5 202.8 281.4 202.7 280Z" fill="#939598"/>
<path opacity="0.4" d="M474.6 220.7L425.6 221.1L363.2 157.3L363.6 215.1L322.3 175.3L-50 178.2" stroke="#A7A9AC" stroke-width="0.5" stroke-miterlimit="10"/>
<path opacity="0.4" d="M360.6 157.5C360.6 156.1 361.7 154.9 363.2 154.8C364.6 154.8 365.7 155.9 365.9 157.4C365.9 158.8 364.8 160 363.3 160.1C361.7 160 360.6 158.9 360.6 157.5Z" fill="#939598"/>
<path opacity="0.4" d="M472 220.2C472 218.8 473.1 217.6 474.6 217.5C476 217.5 477.2 218.6 477.3 220.1C477.3 221.5 476.2 222.7 474.7 222.8C473.2 222.7 472 221.6 472 220.2Z" fill="#939598"/>
<path opacity="0.4" d="M457.9 256.1L368.6 256.9L320.9 210.6L113.6 212.2" stroke="#A7A9AC" stroke-width="0.5" stroke-miterlimit="10"/>
<path opacity="0.4" d="M289.4 203.3L289.5 220.5H286.2L286.1 203.3H289.4Z" fill="#A7A9AC"/>
<path opacity="0.4" d="M280.4 203.3L283.8 203.2L283.9 220.5L280.5 220.4L280.4 203.3Z" fill="#A7A9AC"/>
<path opacity="0.4" d="M278.1 203.4L278.2 220.6H274.9L274.8 203.4H278.1Z" fill="#A7A9AC"/>
<path opacity="0.4" d="M272.5 203.2L272.6 220.5H269.3L269.2 203.2H272.5Z" fill="#A7A9AC"/>
<path opacity="0.4" d="M316.4 211.4C316.4 208.4 318.9 205.8 322 205.7C325 205.7 327.6 208.2 327.7 211.3C327.7 214.3 325.2 216.9 322.1 217C319 217.2 316.5 214.5 316.4 211.4Z" stroke="#A7A9AC" stroke-width="0.5" stroke-miterlimit="10"/>
<path opacity="0.4" d="M454.8 256.2C454.8 254.8 455.9 253.6 457.4 253.5C458.8 253.5 460 254.6 460.1 256.1C460.1 257.5 459 258.7 457.5 258.8C456.1 258.9 454.9 257.7 454.8 256.2Z" fill="#939598"/>
<path opacity="0.4" d="M110.1 212C110.1 210.6 111.2 209.4 112.7 209.3C114.1 209.3 115.3 210.4 115.4 211.9C115.4 213.3 114.3 214.5 112.8 214.6C111.4 214.6 110.3 213.5 110.1 212Z" fill="#939598"/>
<path opacity="0.4" d="M230.1 217.9L230.2 224.9L223.2 225L223.1 218L230.1 217.9Z" fill="#A7A9AC"/>
<path opacity="0.4" d="M221.1 218L221.2 225L214.2 225.1L214.1 218.1L221.1 218Z" fill="#A7A9AC"/>
<path opacity="0.4" d="M211.8 218.2L211.9 225.2L204.9 225.3L204.8 218.3L211.8 218.2Z" fill="#A7A9AC"/>
<path opacity="0.4" d="M202.8 218.1L202.9 225.1L195.9 225.2L195.8 218.2L202.8 218.1Z" fill="#A7A9AC"/>
<path opacity="0.4" d="M259.6 220.4C259.6 219.5 260.3 218.8 261.2 218.8C262.1 218.8 262.8 219.5 262.8 220.4C262.8 221.3 262.1 222 261.2 222C260.4 222.1 259.6 221.3 259.6 220.4Z" fill="#939598"/>
<path opacity="0.4" d="M254.5 220.4C254.5 219.5 255.2 218.8 256.1 218.8C257 218.8 257.7 219.5 257.7 220.4C257.7 221.3 257 222 256.1 222C255.3 222.2 254.5 221.4 254.5 220.4Z" fill="#939598"/>
<path opacity="0.4" d="M249.4 220.5C249.4 219.6 250.1 218.9 251 218.9C251.9 218.9 252.6 219.6 252.6 220.5C252.6 221.4 251.9 222.1 251 222.1C250.1 222.1 249.4 221.4 249.4 220.5Z" fill="#939598"/>
<path opacity="0.4" d="M244.2 220.6C244.2 219.7 244.9 219 245.8 219C246.7 219 247.4 219.7 247.4 220.6C247.4 221.5 246.7 222.2 245.8 222.2C244.9 222.3 244.2 221.6 244.2 220.6Z" fill="#939598"/>
<path opacity="0.4" d="M239.2 220.7C239.2 219.8 239.9 219.1 240.8 219.1C241.7 219.1 242.4 219.8 242.4 220.7C242.4 221.6 241.7 222.3 240.8 222.3C239.9 222.3 239.2 221.6 239.2 220.7Z" fill="#939598"/>
<path opacity="0.4" d="M376 261.5C376 260.6 376.7 259.9 377.6 259.9C378.5 259.9 379.2 260.6 379.2 261.5C379.2 262.4 378.5 263.1 377.6 263.1C376.7 263.1 376 262.4 376 261.5Z" fill="#939598"/>
<path opacity="0.4" d="M370.8 261.4C370.8 260.5 371.5 259.8 372.4 259.8C373.3 259.8 374 260.5 374 261.4C374 262.3 373.3 263 372.4 263C371.7 263.1 370.8 262.3 370.8 261.4Z" fill="#939598"/>
<path opacity="0.4" d="M365.8 261.4C365.8 260.5 366.5 259.8 367.4 259.8C368.3 259.8 369 260.5 369 261.4C369 262.3 368.3 263 367.4 263C366.6 263.1 365.8 262.3 365.8 261.4Z" fill="#939598"/>
<path opacity="0.4" d="M360.6 261.6C360.6 260.7 361.3 260 362.2 260C363.1 260 363.8 260.7 363.8 261.6C363.8 262.5 363.1 263.2 362.2 263.2C361.3 263.2 360.6 262.5 360.6 261.6Z" fill="#939598"/>
<path opacity="0.4" d="M355.5 261.6C355.5 260.7 356.2 260 357.1 260C358 260 358.7 260.7 358.7 261.6C358.7 262.5 358 263.2 357.1 263.2C356.2 263.2 355.5 262.5 355.5 261.6Z" fill="#939598"/>
<path opacity="0.4" d="M420.8 191.8L355.4 127.4" stroke="#A7A9AC" stroke-width="0.5" stroke-miterlimit="10"/>
<path opacity="0.4" d="M417.7 191C417.7 189.6 418.8 188.4 420.3 188.3C421.7 188.3 422.9 189.4 423 190.9C423 192.3 421.9 193.5 420.4 193.6C418.9 193.5 417.7 192.4 417.7 191Z" fill="#939598"/>
<path opacity="0.4" d="M349.4 126.7C349.4 123.7 351.9 121.1 355 121C358.1 120.9 360.6 123.5 360.7 126.6C360.7 129.6 358.2 132.2 355.1 132.3C351.9 132.5 349.4 129.9 349.4 126.7Z" stroke="#A7A9AC" stroke-width="0.5" stroke-miterlimit="10"/>
<path opacity="0.4" d="M457.1 194.5C457.1 193.6 457.8 192.9 458.7 192.9C459.6 192.9 460.3 193.6 460.3 194.5C460.3 195.4 459.6 196.1 458.7 196.1C457.8 196.1 457.1 195.4 457.1 194.5Z" fill="#939598"/>
<path opacity="0.4" d="M452 194.6C452 193.7 452.7 193 453.6 193C454.5 193 455.2 193.7 455.2 194.6C455.2 195.5 454.5 196.2 453.6 196.2C452.7 196.2 452 195.5 452 194.6Z" fill="#939598"/>
<path opacity="0.4" d="M446.9 194.6C446.9 193.7 447.6 193 448.5 193C449.4 193 450.1 193.7 450.1 194.6C450.1 195.5 449.4 196.2 448.5 196.2C447.6 196.2 446.9 195.5 446.9 194.6Z" fill="#939598"/>
<path opacity="0.4" d="M441.7 194.5C441.7 193.6 442.4 192.9 443.3 192.9C444.2 192.9 444.9 193.6 444.9 194.5C444.9 195.4 444.2 196.1 443.3 196.1C442.6 196.2 441.7 195.4 441.7 194.5Z" fill="#939598"/>
<path opacity="0.4" d="M436.7 194.6C436.7 193.7 437.4 193 438.3 193C439.2 193 439.9 193.7 439.9 194.6C439.9 195.5 439.2 196.2 438.3 196.2C437.5 196.3 436.7 195.5 436.7 194.6Z" fill="#939598"/>
<path opacity="0.4" d="M406.1 233.2L406.2 240.2L399.2 240.3L399.1 233.3L406.1 233.2Z" stroke="#A7A9AC" stroke-width="0.5" stroke-miterlimit="10"/>
<path opacity="0.4" d="M396.8 233.2L396.9 240.2L389.9 240.3L389.8 233.3L396.8 233.2Z" stroke="#A7A9AC" stroke-width="0.5" stroke-miterlimit="10"/>
<path opacity="0.4" d="M387.8 233.3L387.9 240.3L380.9 240.4L380.8 233.4L387.8 233.3Z" stroke="#A7A9AC" stroke-width="0.5" stroke-miterlimit="10"/>
<path opacity="0.4" d="M378.8 233.5L378.9 240.5L371.9 240.6L371.8 233.6L378.8 233.5Z" stroke="#A7A9AC" stroke-width="0.5" stroke-miterlimit="10"/>
<path opacity="0.4" d="M55.8 301.3L278.1 299.6L329.5 236.9L364.5 236.7" stroke="#A7A9AC" stroke-width="0.5" stroke-miterlimit="10"/>
<path opacity="0.4" d="M361.5 236.4C361.5 235 362.6 233.8 364.1 233.7C365.5 233.7 366.7 234.8 366.8 236.3C366.8 237.7 365.7 238.9 364.2 239C362.8 239 361.5 237.8 361.5 236.4Z" fill="#939598"/>
<path opacity="0.4" d="M275.5 299.8C275.5 298.4 276.6 297.2 278.1 297.1C279.5 297.1 280.7 298.2 280.8 299.7C280.8 301.1 279.7 302.3 278.2 302.4C276.6 302.5 275.5 301.2 275.5 299.8Z" fill="#939598"/>
<path opacity="0.4" d="M56.6 301.5C56.6 300.1 57.7 298.9 59.2 298.8C60.6 298.8 61.8 299.9 61.9 301.4C61.9 302.8 60.8 304 59.3 304.1C57.8 304 56.6 302.8 56.6 301.5Z" fill="#939598"/>
<path opacity="0.4" d="M301.8 304.2L297 307L301.9 309.7L301.8 304.2Z" fill="#939598"/>
<path opacity="0.4" d="M295.1 304.3L290.3 307.1L295.2 309.8L295.1 304.3Z" fill="#939598"/>
<path opacity="0.4" d="M288.4 304.3L283.6 307.1L288.5 309.8L288.4 304.3Z" fill="#939598"/>
<path opacity="0.4" d="M230.8 305.3C230.8 304.4 231.5 303.7 232.4 303.7C233.3 303.7 234 304.4 234 305.3C234 306.2 233.3 306.9 232.4 306.9C231.6 307 230.8 306.2 230.8 305.3Z" fill="#939598"/>
<path opacity="0.4" d="M225.7 305.4C225.7 304.5 226.4 303.8 227.3 303.8C228.2 303.8 228.9 304.5 228.9 305.4C228.9 306.3 228.2 307 227.3 307C226.4 307 225.7 306.3 225.7 305.4Z" fill="#939598"/>
<path opacity="0.4" d="M220.6 305.4C220.6 304.5 221.3 303.8 222.2 303.8C223.1 303.8 223.8 304.5 223.8 305.4C223.8 306.3 223.1 307 222.2 307C221.3 307 220.6 306.3 220.6 305.4Z" fill="#939598"/>
<path opacity="0.4" d="M215.5 305.4C215.5 304.5 216.2 303.8 217.1 303.8C218 303.8 218.7 304.5 218.7 305.4C218.7 306.3 218 307 217.1 307C216.2 307.1 215.5 306.4 215.5 305.4Z" fill="#939598"/>
<path opacity="0.4" d="M210.2 305.5C210.2 304.6 210.9 303.9 211.8 303.9C212.7 303.9 213.4 304.6 213.4 305.5C213.4 306.4 212.7 307.1 211.8 307.1C211 307.2 210.2 306.4 210.2 305.5Z" fill="#939598"/>
<path opacity="0.4" d="M445.9 300.7L320.9 301.7L285.9 346.3L195.1 347" stroke="#A7A9AC" stroke-width="0.5" stroke-miterlimit="10"/>
<path opacity="0.4" d="M445.8 304.3C444 304.3 442.3 302.7 442.3 300.9C442.3 299.1 443.9 297.4 445.7 297.4C447.5 297.4 449.2 299 449.2 300.8C449.2 302.6 447.8 304.1 445.8 304.3C447.8 304.1 443.8 304.2 445.8 304.3ZM445.8 298C444.4 298 443.2 299.3 443.2 300.7C443.2 302.1 444.5 303.3 445.9 303.3C447.3 303.3 448.5 302 448.5 300.6C448.4 299.3 447.2 298 445.8 298C447.2 298 444.4 298 445.8 298Z" fill="#A7A9AC"/>
<path opacity="0.4" d="M195.2 350.1C193.6 350.1 192.2 348.7 192.1 347C192.1 345.4 193.5 344 195.2 343.9C196.8 343.9 198.2 345.3 198.3 347C198.3 348.6 196.9 350 195.2 350.1Z" fill="#A7A9AC"/>
<path opacity="0.4" d="M343.3 302.2C343.3 299.2 345.8 296.6 348.9 296.5C351.9 296.5 354.5 299 354.6 302.1C354.6 305.1 352.1 307.7 349 307.8C345.9 307.7 343.3 305.2 343.3 302.2Z" stroke="#A7A9AC" stroke-width="0.5" stroke-miterlimit="10"/>
<path opacity="0.4" d="M432 319.9L432.1 326.9L425.1 327L425 320L432 319.9Z" stroke="#A7A9AC" stroke-width="0.5" stroke-miterlimit="10"/>
<path opacity="0.4" d="M422.7 320.1L422.8 327.1L415.8 327.2L415.7 320.2L422.7 320.1Z" stroke="#A7A9AC" stroke-width="0.5" stroke-miterlimit="10"/>
<path opacity="0.4" d="M413.7 320.1L413.8 327.1L406.8 327.2L406.7 320.2L413.7 320.1Z" stroke="#A7A9AC" stroke-width="0.5" stroke-miterlimit="10"/>
<path opacity="0.4" d="M404.5 320.2L404.6 327.2L397.6 327.3L397.5 320.3L404.5 320.2Z" stroke="#A7A9AC" stroke-width="0.5" stroke-miterlimit="10"/>
<path opacity="0.4" d="M336.4 353.9L331.5 356.8L336.4 359.5V353.9Z" fill="#939598"/>
<path opacity="0.4" d="M329.7 353.9L324.8 356.8L329.7 359.5V353.9Z" fill="#939598"/>
<path opacity="0.4" d="M323 354L318.2 356.8L323 359.7V354Z" fill="#939598"/>
<path opacity="0.4" d="M249.8 374.5L249.9 391.7L243.7 391.8L243.6 374.6L249.8 374.5Z" stroke="#A7A9AC" stroke-width="0.5" stroke-miterlimit="10"/>
<path opacity="0.4" d="M241.7 374.4L241.8 391.6H235.6L235.5 374.4H241.7Z" stroke="#A7A9AC" stroke-width="0.5" stroke-miterlimit="10"/>
<path opacity="0.4" d="M233.3 374.5L233.4 391.7H227.2L227.1 374.5H233.3Z" stroke="#A7A9AC" stroke-width="0.5" stroke-miterlimit="10"/>
<path opacity="0.4" d="M225.2 374.6L225.3 391.8L219.1 391.9L219 374.7L225.2 374.6Z" stroke="#A7A9AC" stroke-width="0.5" stroke-miterlimit="10"/>
<path opacity="0.4" d="M436.9 361L437 378.2H433.7L433.6 361H436.9Z" fill="#A7A9AC"/>
<path opacity="0.4" d="M427.9 361.1H431.1L431.3 378.3H427.8L427.9 361.1Z" fill="#A7A9AC"/>
<path opacity="0.4" d="M425.6 361.1L425.7 378.3H422.4L422.3 361.1H425.6Z" fill="#A7A9AC"/>
<path opacity="0.4" d="M419.8 361.1L419.9 378.4H416.6L416.5 361.1H419.8Z" fill="#A7A9AC"/>
<path opacity="0.4" d="M401.5 361.1C401.5 360.2 402.2 359.5 403.1 359.5C404 359.5 404.7 360.2 404.7 361.1C404.7 362 404 362.7 403.1 362.7C402.2 362.7 401.5 362 401.5 361.1Z" fill="#939598"/>
<path opacity="0.4" d="M396.4 361.1C396.4 360.2 397.1 359.5 398 359.5C398.9 359.5 399.6 360.2 399.6 361.1C399.6 362 398.9 362.7 398 362.7C397.2 362.7 396.5 362.1 396.4 361.1Z" fill="#939598"/>
<path opacity="0.4" d="M391.1 361.2C391.1 360.3 391.8 359.6 392.7 359.6C393.6 359.6 394.3 360.3 394.3 361.2C394.3 362.1 393.6 362.8 392.7 362.8C392 362.9 391.1 362.1 391.1 361.2Z" fill="#939598"/>
<path opacity="0.4" d="M386.1 361.2C386.1 360.3 386.8 359.6 387.7 359.6C388.6 359.6 389.3 360.3 389.3 361.2C389.3 362.1 388.6 362.8 387.7 362.8C386.9 362.9 386.1 362.1 386.1 361.2Z" fill="#939598"/>
<path opacity="0.4" d="M381 361.3C381 360.4 381.7 359.7 382.6 359.7C383.5 359.7 384.2 360.4 384.2 361.3C384.2 362.2 383.5 362.9 382.6 362.9C381.8 363 381 362.2 381 361.3Z" fill="#939598"/>
<path opacity="0.4" d="M442.9 352.3L379.1 352.8L353.7 376.9L353.5 339.8L321.6 340L266.6 404.4L266.3 368.1L154.6 369.1" stroke="#A7A9AC" stroke-width="0.5" stroke-miterlimit="10"/>
<path opacity="0.4" d="M442.7 355.4C444.3 355.4 445.7 354 445.8 352.3C445.8 350.7 444.4 349.3 442.7 349.2C441.1 349.2 439.7 350.6 439.6 352.3C439.7 354 441.1 355.4 442.7 355.4Z" fill="white"/>
<path opacity="0.4" d="M442.7 355.8C440.9 355.8 439.2 354.2 439.2 352.4C439.2 350.6 440.8 348.9 442.6 348.9C444.4 348.9 446.1 350.5 446.1 352.3C446.2 354.2 444.6 355.8 442.7 355.8C444.6 355.8 440.9 355.8 442.7 355.8ZM442.7 349.6C441.3 349.6 440.1 350.9 440.1 352.3C440.1 353.7 441.4 354.9 442.8 354.9C444.2 354.9 445.4 353.6 445.4 352.2C445.4 350.8 444.2 349.7 442.7 349.6C444.2 349.7 441.2 349.7 442.7 349.6Z" fill="#A7A9AC"/>
<path opacity="0.4" d="M155 372.2C153.4 372.2 152 370.8 151.9 369.1C151.9 367.5 153.3 366.1 155 366C156.6 366 158 367.4 158.1 369.1C158 370.8 156.7 372.2 155 372.2Z" fill="#A7A9AC"/>
<path opacity="0.4" d="M351.3 377C351.3 375.6 352.4 374.4 353.9 374.3C355.3 374.3 356.5 375.4 356.6 376.9C356.6 378.3 355.5 379.5 354 379.6C352.5 379.5 351.3 378.4 351.3 377Z" fill="#A7A9AC"/>
<path opacity="0.4" d="M264.2 404.6C264.2 403.2 265.3 402 266.8 401.9C268.2 401.9 269.4 403 269.5 404.5C269.5 405.9 268.4 407.1 266.9 407.2C265.3 407.2 264.1 406.1 264.2 404.6Z" fill="#A7A9AC"/>
<path opacity="0.4" d="M319.2 340.1C319.2 338.7 320.3 337.5 321.8 337.4C323.2 337.4 324.4 338.5 324.5 340C324.5 341.4 323.4 342.5 321.9 342.7C320.3 342.8 319.1 341.6 319.2 340.1Z" fill="#A7A9AC"/>
<path opacity="0.4" d="M331.6 158.7L322.9 163.9L331.7 168.9L331.6 158.7Z" fill="#939598"/>
<path opacity="0.4" d="M319.6 158.8L310.9 164L319.7 169L319.6 158.8Z" fill="#939598"/>
<path opacity="0.4" d="M307.5 158.9L298.8 164.1L307.6 169.1L307.5 158.9Z" fill="#939598"/>
<path opacity="0.4" d="M221.8 158.2C221.8 157.3 222.5 156.6 223.4 156.6C224.3 156.6 225 157.3 225 158.2C225 159.1 224.3 159.8 223.4 159.8C222.5 159.8 221.8 159.1 221.8 158.2Z" fill="#939598"/>
<path opacity="0.4" d="M216.7 158.2C216.7 157.3 217.4 156.6 218.3 156.6C219.2 156.6 219.9 157.3 219.9 158.2C219.9 159.1 219.2 159.8 218.3 159.8C217.4 159.8 216.7 159.1 216.7 158.2Z" fill="#939598"/>
<path opacity="0.4" d="M211.5 158.1C211.5 157.2 212.2 156.5 213.1 156.5C214 156.5 214.7 157.2 214.7 158.1C214.7 159 214 159.7 213.1 159.7C212.3 159.9 211.5 159.1 211.5 158.1Z" fill="#939598"/>
<path opacity="0.4" d="M206.4 158.2C206.4 157.3 207.1 156.6 208 156.6C208.9 156.6 209.6 157.3 209.6 158.2C209.6 159.1 208.9 159.8 208 159.8C207.3 159.9 206.4 159.1 206.4 158.2Z" fill="#939598"/>
<path opacity="0.4" d="M201.2 158.3C201.2 157.4 201.9 156.7 202.8 156.7C203.7 156.7 204.4 157.4 204.4 158.3C204.4 159.2 203.7 159.9 202.8 159.9C202.1 160.1 201.2 159.3 201.2 158.3Z" fill="#939598"/>
<path opacity="0.4" d="M138.4 148.1L266.4 146.7L300.4 104.5L355.5 104.7L432.5 179.8L477.9 180" stroke="#A7A9AC" stroke-width="0.5" stroke-miterlimit="10"/>
<path opacity="0.4" d="M138.5 145C136.9 145 135.5 146.4 135.4 148.1C135.4 149.7 136.8 151.1 138.5 151.2C140.1 151.2 141.5 149.8 141.6 148.1C141.8 146.3 140.4 144.9 138.5 145Z" fill="white"/>
<path opacity="0.4" d="M138.6 144.6C140.4 144.6 142.1 146.2 142.1 148C142.1 149.8 140.5 151.5 138.7 151.5C136.9 151.5 135.2 149.9 135.2 148.1C135 146.1 136.7 144.5 138.6 144.6C136.7 144.5 140.6 144.5 138.6 144.6ZM138.7 150.6C140.1 150.6 141.3 149.3 141.3 147.9C141.3 146.5 140 145.3 138.6 145.3C137.2 145.3 136 146.6 136 148C136 149.6 137.2 150.7 138.7 150.6C137.2 150.7 140.2 150.7 138.7 150.6Z" fill="#A7A9AC"/>
<path opacity="0.4" d="M477.8 176.8C479.4 176.8 480.8 178.2 480.9 179.9C480.9 181.5 479.5 182.9 477.8 183C476.2 183 474.8 181.6 474.7 179.9C474.7 178.1 476 176.7 477.8 176.8Z" fill="#A7A9AC"/>
<path opacity="0.4" d="M352.9 104.5C352.9 103.1 354 101.9 355.5 101.8C356.9 101.8 358.1 102.9 358.2 104.4C358.2 105.8 357.1 107 355.6 107.1C354.1 107.3 352.9 106.1 352.9 104.5Z" fill="#A7A9AC"/>
<path opacity="0.4" d="M263.8 146.8C263.8 145.4 264.9 144.2 266.4 144.1C267.8 144.1 269 145.2 269.1 146.7C269.1 148.1 268 149.3 266.5 149.4C265 149.3 263.8 148.2 263.8 146.8Z" fill="#A7A9AC"/>
<path opacity="0.4" d="M254 122.2L245.3 127.4L254.1 132.4L254 122.2Z" fill="#939598"/>
<path opacity="0.4" d="M242 122.3L233.3 127.5L242.1 132.5L242 122.3Z" fill="#939598"/>
<path opacity="0.4" d="M230 122.4L221.1 127.4L229.9 132.4L230 122.4Z" fill="#939598"/>
<path opacity="0.4" d="M445.8 303.8C447.4 303.8 448.8 302.4 448.9 300.7C448.9 299.1 447.5 297.7 445.8 297.6C444.2 297.6 442.8 299 442.7 300.7C442.8 302.4 444.1 303.7 445.8 303.8Z" fill="white"/>
</g>
<defs>
<clipPath id="clip0">
<rect width="1280" height="640" fill="white"/>
</clipPath>
</defs>
</svg>
