<svg width="603" height="72" viewBox="0 0 603 72" fill="none" xmlns="http://www.w3.org/2000/svg">
<path d="M276.746 23C276.746 27.1333 275.979 30.6333 274.446 33.4999C272.913 36.2999 270.846 38.5666 268.246 40.3C265.646 42.0333 262.646 43.3 259.246 44.1C255.846 44.9 252.313 45.2999 248.646 45.2999H240.146V72H223.046V1.19995H249.046C252.913 1.19995 256.513 1.59995 259.846 2.39995C263.246 3.13328 266.179 4.36661 268.646 6.09995C271.179 7.76662 273.146 9.99995 274.546 12.8C276.013 15.5333 276.746 18.9333 276.746 23ZM259.646 23.1C259.646 21.4333 259.313 20.0666 258.646 18.9999C257.979 17.9333 257.079 17.1 255.946 16.5C254.813 15.9 253.513 15.4999 252.046 15.2999C250.646 15.0999 249.179 14.9999 247.646 14.9999H240.146V31.6999H247.346C248.946 31.6999 250.479 31.5666 251.946 31.3C253.413 31.0333 254.713 30.5666 255.846 29.9C257.046 29.2333 257.979 28.3666 258.646 27.2999C259.313 26.1666 259.646 24.7666 259.646 23.1Z" fill="#222222"/>
<path d="M287.011 72V1.19995H304.211V57.1H331.611V72H287.011Z" fill="#222222"/>
<path d="M387.648 72L382.148 58.1H354.748L349.548 72H330.948L360.648 1.19995H377.248L406.648 72H387.648ZM368.648 20.0999L359.648 44.3999H377.448L368.648 20.0999Z" fill="#222222"/>
<path d="M457.499 72L428.999 25.6999H428.699L429.099 72H412.499V1.19995H431.999L460.399 47.4H460.699L460.299 1.19995H476.899V72H457.499Z" fill="#222222"/>
<path d="M491.503 72V1.19995H539.103V15.6999H508.003V29H537.403V42.7H508.003V57.4H540.903V72H491.503Z" fill="#222222"/>
<path d="M582.545 15.7999V72H565.445V15.7999H545.445V1.19995H602.545V15.7999H582.545Z" fill="#222222"/>
<path fill-rule="evenodd" clip-rule="evenodd" d="M72.491 0.509059C74.1468 2.16495 71.6762 7.63398 66.3427 15.1383C64.0085 11.8611 61.139 8.99152 57.8617 6.65731C65.366 1.32385 70.8351 -1.14683 72.491 0.509059ZM7.6573 56.8617C12.9943 49.3525 21.1978 39.8053 31.0015 30.0015C40.8053 20.1978 50.3525 11.9943 57.8617 6.65731C51.9763 2.46546 44.7761 1.05022e-05 37 1.05022e-05C17.1177 1.05022e-05 1 16.1178 1 36C1 43.7761 3.46545 50.9764 7.6573 56.8617ZM16.1383 65.3427C23.6475 60.0057 33.1947 51.8022 42.9985 41.9985C52.8022 32.1947 61.0057 22.6475 66.3427 15.1383C70.5346 21.0237 73 28.2239 73 36C73 55.8823 56.8823 72 37 72C29.2239 72 22.0237 69.5346 16.1383 65.3427ZM16.1383 65.3427C12.861 63.0085 9.99152 60.139 7.6573 56.8617C2.32386 64.366 -0.146816 69.8351 1.50907 71.4909C3.16496 73.1468 8.63398 70.6762 16.1383 65.3427ZM99.8 25.7L128.3 72H147.7V1.2H131.1L131.5 47.4H131.2L102.8 1.2H83.3V72H99.9L99.5 25.7H99.8ZM162.304 1.2V72H211.704V57.4H178.804V42.7H208.204V29H178.804V15.7H209.904V1.2H162.304Z" fill="#EB5757"/>
</svg>
