<svg width="328" height="71" viewBox="0 0 328 71" fill="none" xmlns="http://www.w3.org/2000/svg">
<path d="M0.828125 70L0.828125 60.3906L7.85938 58.8906L7.85938 12.9062L0.828125 11.4062L0.828125 1.74999L7.85938 1.74999L24.5938 1.74999L51.9688 45.4375H52.25L52.25 12.9062L43.2969 11.4062V1.74999L66.8281 1.74999L73.9062 1.74999V11.4062L66.8281 12.9062L66.8281 70H50.6094L22.7188 27.25H22.4375L22.4375 58.8906L31.4375 60.3906V70H0.828125Z" fill="#EB5757"/>
<path d="M86.0375 70V60.3906L93.1156 58.8906L93.1156 12.9062L86.0375 11.4062V1.74999L140.553 1.74999V21.4375H128.131L127.756 14.4062L109.569 14.4062V28.4219L131.366 28.4219V41.0312L109.569 41.0312L109.569 57.2969L128.647 57.2969L129.022 49.9375H141.303V70L86.0375 70Z" fill="#EB5757"/>
<path d="M179.169 70L163.419 12.1094L155.684 11.4062V1.74999L186.481 1.74999V11.4062L178.887 12.4844L186.341 43L187.419 47.4062H187.7L188.825 42.9531L202.184 1.74999L213.528 1.74999L227.591 44.875L228.575 47.8281H228.856L229.653 44.875L237.622 12.4844L229.794 11.4062V1.74999L259.981 1.74999V11.4062L252.716 12.1094L236.262 70L221.591 70L209.825 34.7031L208.372 29.8281H208.091L206.262 34.9844L194.309 70H179.169Z" fill="#EB5757"/>
<path d="M301.878 70.9844C296.316 70.9844 291.378 70.4531 287.066 69.3906C282.753 68.3281 278.456 66.3281 274.175 63.3906V45.6719H286.878L288.284 54.7656C289.284 55.8906 291.05 56.8437 293.581 57.625C296.112 58.375 298.878 58.75 301.878 58.75C303.972 58.75 305.722 58.5 307.128 58C308.534 57.4687 309.597 56.7031 310.316 55.7031C311.034 54.7031 311.394 53.5 311.394 52.0937C311.394 50.75 311.05 49.5469 310.362 48.4844C309.706 47.4219 308.612 46.4219 307.081 45.4844C305.55 44.5156 303.487 43.5312 300.894 42.5312C295.05 40.6562 290.253 38.75 286.503 36.8125C282.753 34.875 279.956 32.5781 278.112 29.9219C276.3 27.2656 275.394 23.9687 275.394 20.0312C275.394 16.25 276.472 12.9531 278.628 10.1406C280.784 7.29686 283.753 5.06249 287.534 3.43749C291.316 1.81249 295.644 0.953111 300.519 0.859361C306.081 0.734361 311.003 1.29686 315.284 2.54686C319.566 3.76561 323.347 5.62499 326.628 8.12499V24.5781L314.441 24.5781L312.519 15.4375C311.456 14.9062 309.941 14.4219 307.972 13.9844C306.003 13.5469 303.909 13.3281 301.691 13.3281C299.784 13.3281 298.081 13.5781 296.581 14.0781C295.112 14.5781 293.941 15.3281 293.066 16.3281C292.222 17.3281 291.8 18.5781 291.8 20.0781C291.8 21.2969 292.159 22.3906 292.878 23.3594C293.597 24.2969 294.862 25.25 296.675 26.2187C298.487 27.1562 301.019 28.25 304.269 29.5C312.019 31.7812 317.894 34.6406 321.894 38.0781C325.925 41.4844 327.941 46.125 327.941 52C327.941 56.0312 326.847 59.4687 324.659 62.3125C322.472 65.125 319.425 67.2812 315.519 68.7812C311.612 70.25 307.066 70.9844 301.878 70.9844Z" fill="#EB5757"/>
</svg>
