<svg width="398" height="398" viewBox="0 0 398 398" fill="none" xmlns="http://www.w3.org/2000/svg">
<path opacity="0.7" d="M66.9 333C-7.00005 260.2 -7.90005 141.2 64.9 67.3C137.7 -6.60002 256.7 -7.50002 330.6 65.3C404.5 138.1 405.4 257.1 332.6 331C259.8 404.9 140.8 405.8 66.9 333ZM329.3 66.5C256.1 -5.60002 138.2 -4.70002 66.1 68.5C-6.00003 141.7 -5.10003 259.6 68.1 331.7C141.3 403.8 259.2 402.9 331.3 329.7C403.5 256.5 402.6 138.6 329.3 66.5Z" fill="#BCBEC0"/>
<path opacity="0.4" d="M361.5 292.1L369.6 296.7C387.3 265.9 396.1 230.9 395.6 195.3L386.2 195.5C386.8 229.4 378.2 262.8 361.5 292.1Z" fill="#BCBEC0"/>
<path opacity="0.4" d="M292.2 372.3C305.4 365.2 317.7 356.6 329 346.6L322.8 339.6C312.1 349 300.3 357.3 287.7 364L292.2 372.3Z" fill="#BCBEC0"/>
<path opacity="0.4" d="M202.2 395.8C221 395.5 239.6 392.5 257.5 386.9L254.8 378C237.9 383.3 220.2 386.1 202.2 386.5V395.8Z" fill="#BCBEC0"/>
<path opacity="0.4" d="M88.3999 362.2C102.5 371.7 117.6 379.3 133.5 384.8L136.7 376C121.5 370.7 107.1 363.4 93.7999 354.4L88.3999 362.2Z" fill="#BCBEC0"/>
<path opacity="0.4" d="M41.2001 317.6L48.7001 311.9C41.5001 302.2 35.0001 291.8 29.7001 281.1C23.5001 268.3 18.6001 254.8 15.5001 241C12.6001 228.3 11.0001 215.3 10.7001 202.3L1.30005 202.5C1.50005 216.2 3.20007 229.9 6.20007 243.1C9.50007 257.6 14.5001 271.7 21.0001 285.2C26.9001 296.5 33.7001 307.4 41.2001 317.6Z" fill="#BCBEC0"/>
<path opacity="0.4" d="M9.40002 143.8L18.3 146.4C20.7 138.4 23.5 130.4 26.9 122.8L18.4 119.1C14.8 127.1 11.8 135.4 9.40002 143.8Z" fill="#BCBEC0"/>
<path opacity="0.4" d="M43.3 77.7L50.7001 83.4C56.4001 76.2 62.6 69.2 69.3 62.9C75.7001 56.8 82.6001 51 89.9001 46L84.5001 38.4C76.9001 43.8 69.7001 49.7 62.9001 56.1C55.7001 62.8 49.3 70 43.3 77.7Z" fill="#BCBEC0"/>
<path opacity="0.4" d="M162.1 14.8C172.9 12.6 184 11.4 195.1 11.3L194.9 1.90002C183.2 2.10002 171.5 3.40002 160.3 5.60002L162.1 14.8Z" fill="#BCBEC0"/>
<path opacity="0.4" d="M376.3 138.7L385.2 135.7C373.7 101.9 353.2 71.6 325.7 48.5L319.6 55.6C345.8 77.7 365.5 106.4 376.3 138.7Z" fill="#BCBEC0"/>
</svg>
