<svg width="414" height="201" viewBox="0 0 414 201" fill="none" xmlns="http://www.w3.org/2000/svg">
<path d="M34.7918 34.0784L28.5307 16.22L22.2696 34.0784L34.7918 34.0784ZM38.4916 44.6795L18.5699 44.6795L15.3682 54.0001H0.498047L20.9178 0.35376L36.1437 0.35376L56.5634 54.0001H41.6933L38.4916 44.6795Z" fill="#EB5757"/>
<path d="M83.7251 24.331H86.3576C89.1087 24.331 91.2194 23.7618 92.6898 22.6234C94.1602 21.485 94.8955 19.8486 94.8955 17.7141C94.8955 15.5796 94.1602 13.9432 92.6898 12.8048C91.2194 11.6664 89.1087 11.0972 86.3576 11.0972H83.7251V24.331ZM114.39 54.0001L97.0299 54.0001L83.7251 33.3669L83.7251 54.0001H69.7799L69.7799 0.35376L91.4803 0.35376C94.4686 0.35376 97.0774 0.80437 99.3067 1.70559C101.536 2.55938 103.362 3.74519 104.785 5.26303C106.256 6.78088 107.347 8.53589 108.058 10.5281C108.817 12.5202 109.196 14.6547 109.196 16.9315C109.196 21.0107 108.2 24.3309 106.208 26.8923C104.263 29.4062 101.37 31.1138 97.528 32.015L114.39 54.0001Z" fill="#EB5757"/>
<path d="M19.566 97.3309H22.1985C24.9496 97.3309 27.0603 96.7618 28.5307 95.6234C30.0011 94.485 30.7363 92.8486 30.7363 90.7141C30.7363 88.5796 30.0011 86.9432 28.5307 85.8048C27.0603 84.6664 24.9496 84.0972 22.1985 84.0972H19.566V97.3309ZM50.2312 127L32.8708 127L19.566 106.367L19.566 127H5.62077L5.62077 73.3538H27.3212C30.3094 73.3538 32.9182 73.8044 35.1476 74.7056C37.3769 75.5594 39.2031 76.7452 40.626 78.263C42.0965 79.7809 43.1874 81.5359 43.8989 83.5281C44.6578 85.5202 45.0373 87.6547 45.0373 89.9315C45.0373 94.0107 44.0412 97.3309 42.049 99.8923C40.1043 102.406 37.2109 104.114 33.3689 105.015L50.2312 127Z" fill="#EB5757"/>
<path d="M93.702 85.1645H77.1243V94.1292H92.7771V105.94H77.1243V115.189H93.702V127H63.1791L63.1791 73.3538H93.702V85.1645Z" fill="#EB5757"/>
<path d="M124.816 97.9713H129.441C134.564 97.9713 137.125 95.742 137.125 91.2833C137.125 86.8246 134.564 84.5953 129.441 84.5953H124.816V97.9713ZM124.816 127H110.871V73.3538L133.07 73.3538C139.094 73.3538 143.695 74.919 146.873 78.0496C150.098 81.1801 151.711 85.5914 151.711 91.2833C151.711 96.9752 150.098 101.386 146.873 104.517C143.695 107.648 139.094 109.213 133.07 109.213L124.816 109.213V127Z" fill="#EB5757"/>
<path d="M192.389 107.078L186.128 89.22L179.867 107.078H192.389ZM196.089 117.68H176.168L172.966 127H158.096L178.515 73.3538H193.741L214.161 127H199.291L196.089 117.68Z" fill="#EB5757"/>
<path d="M241.323 73.3538L241.323 127H227.378L227.378 73.3538H241.323Z" fill="#EB5757"/>
<path d="M259.645 127V73.3538H273.59L299.346 106.153V73.3538L313.22 73.3538V127L299.346 127L273.59 94.2004V127H259.645Z" fill="#EB5757"/>
<path d="M351.934 85.1645V127H337.989V85.1645H326.534V73.3538H363.389V85.1645H351.934Z" fill="#EB5757"/>
<path d="M406.232 87.0855C404.714 85.8522 403.196 84.951 401.679 84.3818C400.161 83.7652 398.69 83.4569 397.267 83.4569C395.465 83.4569 393.994 83.8838 392.856 84.7376C391.718 85.5914 391.148 86.706 391.148 88.0816C391.148 89.0302 391.433 89.8129 392.002 90.4295C392.571 91.0461 393.307 91.5916 394.208 92.0659C395.157 92.4928 396.2 92.8723 397.338 93.2043C398.524 93.5363 399.686 93.8921 400.825 94.2715C405.378 95.7894 408.699 97.829 410.786 100.39C412.92 102.904 413.987 106.201 413.987 110.28C413.987 113.031 413.513 115.521 412.564 117.751C411.663 119.98 410.311 121.901 408.509 123.514C406.754 125.079 404.572 126.289 401.963 127.142C399.402 128.044 396.485 128.494 393.212 128.494C386.429 128.494 380.144 126.478 374.357 122.447L380.334 111.205C382.421 113.055 384.484 114.43 386.524 115.332C388.563 116.233 390.579 116.683 392.571 116.683C394.848 116.683 396.532 116.162 397.623 115.118C398.761 114.075 399.331 112.889 399.331 111.561C399.331 110.754 399.188 110.067 398.904 109.497C398.619 108.881 398.145 108.335 397.481 107.861C396.817 107.339 395.939 106.865 394.848 106.438C393.805 106.011 392.524 105.537 391.006 105.015C389.204 104.446 387.425 103.829 385.67 103.165C383.962 102.454 382.421 101.529 381.045 100.39C379.717 99.252 378.626 97.829 377.772 96.1214C376.966 94.3664 376.563 92.1608 376.563 89.5046C376.563 86.8483 376.99 84.453 377.844 82.3185C378.745 80.1366 379.978 78.2867 381.543 76.7689C383.156 75.2036 385.101 73.9941 387.378 73.1403C389.702 72.2865 392.287 71.8596 395.133 71.8596C397.789 71.8596 400.564 72.2391 403.457 72.998C406.351 73.7095 409.125 74.7767 411.782 76.1997L406.232 87.0855Z" fill="#EB5757"/>
<path d="M32.017 145.354V182.565C32.017 184.13 31.9222 185.577 31.7324 186.905C31.5901 188.233 31.3293 189.371 30.9498 190.32C30.3332 191.838 29.4794 193.237 28.3884 194.518C27.3449 195.751 26.1117 196.818 24.6887 197.719C23.2657 198.573 21.6767 199.237 19.9217 199.712C18.2141 200.233 16.4117 200.494 14.5144 200.494C8.77504 200.494 4.10293 197.862 0.498047 192.597L9.60511 183.276C9.84227 184.889 10.364 186.17 11.1704 187.118C11.9767 188.067 12.9728 188.541 14.1586 188.541C16.7674 188.541 18.0718 186.478 18.0718 182.351L18.0718 145.354H32.017Z" fill="#EB5757"/>
<path d="M78.315 179.078L72.0539 161.22L65.7928 179.078H78.315ZM82.0147 189.68H62.093L58.8913 199H44.0212L64.4409 145.354H79.6668L100.087 199L85.2164 199L82.0147 189.68Z" fill="#EB5757"/>
<path d="M127.248 169.971H131.873C136.996 169.971 139.557 167.742 139.557 163.283C139.557 158.825 136.996 156.595 131.873 156.595H127.248V169.971ZM127.248 199H113.303V145.354H135.501C141.525 145.354 146.126 146.919 149.304 150.05C152.53 153.18 154.143 157.591 154.143 163.283C154.143 168.975 152.53 173.386 149.304 176.517C146.126 179.648 141.525 181.213 135.501 181.213H127.248V199Z" fill="#EB5757"/>
<path d="M194.821 179.078L188.56 161.22L182.299 179.078H194.821ZM198.521 189.68H178.599L175.398 199H160.528L180.947 145.354H196.173L216.593 199H201.723L198.521 189.68Z" fill="#EB5757"/>
<path d="M229.809 199V145.354H243.755L269.51 178.153L269.51 145.354H283.385L283.385 199H269.51L243.755 166.2V199H229.809Z" fill="#EB5757"/>
</svg>
