<svg width="490" height="78" viewBox="0 0 490 78" fill="none" xmlns="http://www.w3.org/2000/svg">
<path d="M36.6187 49.1142C36.6187 53.5108 34.97 56.9528 31.6726 59.4404C28.3752 61.9279 23.5158 63.1717 17.0945 63.1717C14.6649 63.1717 12.4087 62.9981 10.3261 62.651C8.24356 62.3039 6.45022 61.7833 4.94613 61.0891C3.4999 60.337 2.34291 59.4114 1.47516 58.3123C0.665269 57.2132 0.260323 55.9115 0.260323 54.4075C0.260323 53.0191 0.54957 51.8621 1.12807 50.9365C1.70656 49.9531 2.40075 49.1432 3.21065 48.5068C4.88828 49.4324 6.79732 50.2712 8.93775 51.0233C11.136 51.7175 13.6525 52.0646 16.4871 52.0646C18.2804 52.0646 19.6399 51.8042 20.5655 51.2836C21.5489 50.7629 22.0407 50.0687 22.0407 49.201C22.0407 48.3911 21.6936 47.7548 20.9994 47.292C20.3052 46.8292 19.1482 46.4532 17.5284 46.1639L14.9252 45.6433C9.89227 44.6598 6.13205 43.1268 3.64452 41.0442C1.21484 38.9038 0 35.8667 0 31.9329C0 29.7925 0.462796 27.8545 1.38839 26.1191C2.31398 24.3836 3.61559 22.9373 5.29323 21.7803C6.97087 20.6234 8.96667 19.7267 11.2807 19.0903C13.6525 18.454 16.2557 18.1358 19.0903 18.1358C21.2308 18.1358 23.2266 18.3094 25.0778 18.6565C26.9868 18.9457 28.6355 19.4085 30.0239 20.0449C31.4123 20.6812 32.5114 21.52 33.3213 22.5613C34.1312 23.5448 34.5362 24.7307 34.5362 26.1191C34.5362 27.4496 34.2758 28.6066 33.7552 29.59C33.2924 30.5156 32.685 31.2966 31.9329 31.9329C31.4701 31.6437 30.7759 31.3544 29.8503 31.0652C28.9248 30.7181 27.9124 30.4288 26.8132 30.1974C25.7141 29.9082 24.586 29.6768 23.429 29.5033C22.3299 29.3297 21.3175 29.2429 20.392 29.2429C18.4829 29.2429 17.0078 29.4743 15.9665 29.9371C14.9252 30.3421 14.4045 31.0073 14.4045 31.9329C14.4045 32.5693 14.6938 33.0899 15.2723 33.4949C15.8508 33.8998 16.9499 34.2758 18.5697 34.6229L21.2597 35.2304C26.8132 36.503 30.747 38.2674 33.061 40.5236C35.4328 42.7219 36.6187 45.5854 36.6187 49.1142Z" fill="white"/>
<path d="M63.1012 18.2226C66.5721 18.2226 69.7828 18.6854 72.7331 19.611C75.7413 20.4787 78.3156 21.8382 80.456 23.6894C82.5965 25.5406 84.2741 27.8835 85.4889 30.7181C86.7038 33.4949 87.3112 36.8212 87.3112 40.6971C87.3112 44.3995 86.7905 47.6391 85.7493 50.4158C84.708 53.1926 83.2328 55.5355 81.3238 57.4446C79.4147 59.2957 77.1007 60.6841 74.3818 61.6097C71.7207 62.5353 68.7415 62.9981 65.4441 62.9981C62.9565 62.9981 60.6426 62.6221 58.5021 61.8701V76.2746C57.9236 76.4481 56.998 76.6217 55.7253 76.7952C54.4527 77.0266 53.151 77.1423 51.8205 77.1423C50.5478 77.1423 49.3908 77.0555 48.3495 76.882C47.3661 76.7085 46.5273 76.3614 45.8331 75.8407C45.1389 75.3201 44.6182 74.5969 44.2711 73.6713C43.924 72.8036 43.7505 71.6466 43.7505 70.2004V28.5487C43.7505 26.9868 44.0687 25.7141 44.705 24.7307C45.3992 23.7472 46.3248 22.8506 47.4818 22.0407C49.2751 20.8837 51.5023 19.9581 54.1634 19.2639C56.8245 18.5697 59.8037 18.2226 63.1012 18.2226ZM63.2747 51.3704C69.2332 51.3704 72.2125 47.8126 72.2125 40.6971C72.2125 36.9948 71.4604 34.2469 69.9563 32.4536C68.5101 30.6602 66.3986 29.7636 63.6218 29.7636C62.5227 29.7636 61.5392 29.9082 60.6715 30.1974C59.8037 30.4288 59.0517 30.7181 58.4153 31.0652V50.1555C59.1095 50.5026 59.8616 50.7919 60.6715 51.0233C61.4814 51.2547 62.3491 51.3704 63.2747 51.3704Z" fill="white"/>
<path d="M112.729 52.3249C113.712 52.3249 114.782 52.2381 115.939 52.0646C117.154 51.8332 118.051 51.5439 118.629 51.1968V44.2549L112.381 44.7755C110.762 44.8912 109.431 45.2383 108.39 45.8168C107.349 46.3953 106.828 47.2631 106.828 48.42C106.828 49.577 107.262 50.5315 108.13 51.2836C109.055 51.9778 110.588 52.3249 112.729 52.3249ZM112.034 18.2226C115.158 18.2226 117.993 18.5408 120.538 19.1771C123.141 19.8135 125.34 20.7969 127.133 22.1274C128.984 23.4001 130.402 25.0488 131.385 27.0736C132.368 29.0405 132.86 31.3834 132.86 34.1023V53.5397C132.86 55.0438 132.426 56.2876 131.559 57.271C130.749 58.1966 129.765 59.0065 128.608 59.7007C124.848 61.9568 119.555 63.0849 112.729 63.0849C109.663 63.0849 106.886 62.7956 104.398 62.2172C101.969 61.6387 99.8571 60.7709 98.0637 59.6139C96.3282 58.4569 94.9688 56.9818 93.9853 55.1884C93.0597 53.3951 92.597 51.3125 92.597 48.9407C92.597 44.9491 93.7829 41.883 96.1547 39.7426C98.5265 37.6022 102.2 36.2716 107.175 35.751L118.542 34.5362V33.9287C118.542 32.2511 117.79 31.0652 116.286 30.371C114.84 29.6189 112.729 29.2429 109.952 29.2429C107.754 29.2429 105.613 29.4743 103.531 29.9371C101.448 30.3999 99.5678 30.9784 97.8902 31.6726C97.1381 31.152 96.5018 30.371 95.9812 29.3297C95.4605 28.2306 95.2002 27.1025 95.2002 25.9455C95.2002 24.4414 95.5473 23.2555 96.2415 22.3878C96.9935 21.4622 98.1216 20.6812 99.6257 20.0449C101.303 19.4085 103.27 18.9457 105.526 18.6565C107.84 18.3672 110.01 18.2226 112.034 18.2226Z" fill="white"/>
<path d="M156.632 61.6097C156.053 61.7833 155.128 61.9568 153.855 62.1304C152.64 62.3039 151.367 62.3907 150.037 62.3907C148.764 62.3907 147.607 62.3039 146.566 62.1304C145.582 61.9568 144.744 61.6097 144.049 61.0891C143.355 60.5684 142.806 59.8742 142.401 59.0065C142.054 58.0809 141.88 56.895 141.88 55.4488V29.4165C141.88 28.0859 142.111 26.9579 142.574 26.0323C143.095 25.0488 143.818 24.1811 144.744 23.429C145.669 22.677 146.797 22.0117 148.128 21.4332C149.516 20.7969 150.991 20.2473 152.553 19.7845C154.115 19.3217 155.735 18.9746 157.413 18.7432C159.09 18.454 160.768 18.3094 162.445 18.3094C165.222 18.3094 167.421 18.8589 169.04 19.9581C170.66 20.9994 171.47 22.7349 171.47 25.1645C171.47 25.9744 171.354 26.7843 171.123 27.5942C170.892 28.3463 170.602 29.0405 170.255 29.6768C169.04 29.6768 167.797 29.7346 166.524 29.8503C165.251 29.966 164.007 30.1396 162.793 30.371C161.578 30.6024 160.421 30.8627 159.322 31.152C158.28 31.3834 157.384 31.6726 156.632 32.0197V61.6097Z" fill="white"/>
<path d="M218.774 54.0604C218.484 56.7793 217.674 58.8619 216.344 60.3081C215.071 61.7544 213.191 62.4775 210.704 62.4775C208.852 62.4775 207.204 62.0436 205.757 61.1759C204.311 60.2503 202.749 58.7173 201.072 56.5768L192.481 45.8168V61.6097C191.845 61.7254 190.89 61.8701 189.617 62.0436C188.403 62.275 187.159 62.3907 185.886 62.3907C184.613 62.3907 183.456 62.3039 182.415 62.1304C181.432 61.9568 180.593 61.6097 179.899 61.0891C179.204 60.5684 178.655 59.8742 178.25 59.0065C177.903 58.0809 177.729 56.895 177.729 55.4488V5.20645C178.366 5.03291 179.291 4.85936 180.506 4.68581C181.779 4.45441 183.051 4.33871 184.324 4.33871C185.597 4.33871 186.725 4.42549 187.708 4.59903C188.75 4.77258 189.617 5.11968 190.312 5.64033C191.006 6.16097 191.526 6.88409 191.873 7.80968C192.278 8.67743 192.481 9.83442 192.481 11.2807V34.1891L207.406 18.9168C210.414 18.9168 212.815 19.5821 214.608 20.9126C216.46 22.2431 217.385 23.9208 217.385 25.9455C217.385 26.8132 217.241 27.6231 216.951 28.3752C216.662 29.0694 216.199 29.7925 215.563 30.5445C214.984 31.2966 214.203 32.1065 213.22 32.9742C212.294 33.7841 211.195 34.7386 209.923 35.8378L204.89 40.1765L218.774 54.0604Z" fill="white"/>
<path d="M278.638 49.1142C278.638 53.5108 276.989 56.9528 273.691 59.4404C270.394 61.9279 265.535 63.1717 259.113 63.1717C256.684 63.1717 254.428 62.9981 252.345 62.651C250.262 62.3039 248.469 61.7833 246.965 61.0891C245.519 60.337 244.362 59.4114 243.494 58.3123C242.684 57.2132 242.279 55.9115 242.279 54.4075C242.279 53.0191 242.568 51.8621 243.147 50.9365C243.725 49.9531 244.42 49.1432 245.229 48.5068C246.907 49.4324 248.816 50.2712 250.957 51.0233C253.155 51.7175 255.671 52.0646 258.506 52.0646C260.299 52.0646 261.659 51.8042 262.584 51.2836C263.568 50.7629 264.06 50.0687 264.06 49.201C264.06 48.3911 263.712 47.7548 263.018 47.292C262.324 46.8292 261.167 46.4532 259.547 46.1639L256.944 45.6433C251.911 44.6598 248.151 43.1268 245.663 41.0442C243.234 38.9038 242.019 35.8667 242.019 31.9329C242.019 29.7925 242.482 27.8545 243.407 26.1191C244.333 24.3836 245.634 22.9373 247.312 21.7803C248.99 20.6234 250.986 19.7267 253.3 19.0903C255.671 18.454 258.275 18.1358 261.109 18.1358C263.25 18.1358 265.245 18.3094 267.097 18.6565C269.006 18.9457 270.654 19.4085 272.043 20.0449C273.431 20.6812 274.53 21.52 275.34 22.5613C276.15 23.5448 276.555 24.7307 276.555 26.1191C276.555 27.4496 276.295 28.6066 275.774 29.59C275.311 30.5156 274.704 31.2966 273.952 31.9329C273.489 31.6437 272.795 31.3544 271.869 31.0652C270.944 30.7181 269.931 30.4288 268.832 30.1974C267.733 29.9082 266.605 29.6768 265.448 29.5033C264.349 29.3297 263.336 29.2429 262.411 29.2429C260.502 29.2429 259.027 29.4743 257.985 29.9371C256.944 30.3421 256.423 31.0073 256.423 31.9329C256.423 32.5693 256.713 33.0899 257.291 33.4949C257.87 33.8998 258.969 34.2758 260.589 34.6229L263.279 35.2304C268.832 36.503 272.766 38.2674 275.08 40.5236C277.452 42.7219 278.638 45.5854 278.638 49.1142Z" fill="white"/>
<path d="M300.521 47.2052C300.521 48.7093 300.984 49.7795 301.909 50.4158C302.893 51.0522 304.252 51.3704 305.988 51.3704C306.855 51.3704 307.752 51.3125 308.678 51.1968C309.603 51.0233 310.413 50.8208 311.107 50.5894C311.628 51.2257 312.062 51.9489 312.409 52.7588C312.814 53.5108 313.016 54.4364 313.016 55.5355C313.016 57.7338 312.178 59.5271 310.5 60.9155C308.88 62.3039 305.988 62.9981 301.823 62.9981C296.732 62.9981 292.798 61.8411 290.021 59.5271C287.302 57.2132 285.943 53.4529 285.943 48.2465V11.1071C286.579 10.9336 287.476 10.76 288.633 10.5865C289.848 10.3551 291.12 10.2394 292.451 10.2394C294.996 10.2394 296.963 10.7022 298.352 11.6277C299.798 12.4955 300.521 14.3756 300.521 17.2681V22.8216H311.888C312.235 23.458 312.554 24.2679 312.843 25.2513C313.19 26.1769 313.364 27.2182 313.364 28.3752C313.364 30.3999 312.901 31.8751 311.975 32.8007C311.107 33.6684 309.922 34.1023 308.417 34.1023H300.521V47.2052Z" fill="white"/>
<path d="M320.513 20.1316C321.091 19.9581 321.988 19.7845 323.203 19.611C324.476 19.4374 325.777 19.3507 327.108 19.3507C328.38 19.3507 329.509 19.4374 330.492 19.611C331.533 19.7845 332.401 20.1316 333.095 20.6523C333.789 21.1729 334.31 21.896 334.657 22.8216C335.062 23.6894 335.265 24.8464 335.265 26.2926V44.9491C335.265 47.3209 335.843 49.0275 337 50.0687C338.157 51.0522 339.835 51.5439 342.033 51.5439C343.363 51.5439 344.434 51.4282 345.244 51.1968C346.111 50.9654 346.777 50.734 347.239 50.5026V20.1316C347.818 19.9581 348.715 19.7845 349.929 19.611C351.202 19.4374 352.504 19.3507 353.834 19.3507C355.107 19.3507 356.235 19.4374 357.218 19.611C358.26 19.7845 359.127 20.1316 359.822 20.6523C360.516 21.1729 361.036 21.896 361.384 22.8216C361.789 23.6894 361.991 24.8464 361.991 26.2926V52.672C361.991 55.5645 360.776 57.7338 358.347 59.18C356.322 60.4527 353.892 61.4073 351.057 62.0436C348.281 62.7378 345.244 63.0849 341.946 63.0849C338.822 63.0849 335.93 62.7378 333.269 62.0436C330.666 61.3494 328.409 60.2792 326.5 58.833C324.591 57.3867 323.116 55.5355 322.075 53.2794C321.034 50.9654 320.513 48.1886 320.513 44.9491V20.1316Z" fill="white"/>
<path d="M369.196 40.6104C369.196 36.7923 369.774 33.4949 370.931 30.7181C372.088 27.8835 373.679 25.5406 375.704 23.6894C377.787 21.8382 380.187 20.4787 382.906 19.611C385.683 18.6854 388.662 18.2226 391.844 18.2226C393.001 18.2226 394.129 18.3383 395.228 18.5697C396.327 18.7432 397.224 18.9746 397.918 19.2639V5.20645C398.497 5.03291 399.422 4.85936 400.695 4.68581C401.968 4.45441 403.269 4.33871 404.6 4.33871C405.873 4.33871 407.001 4.42549 407.984 4.59903C409.025 4.77258 409.893 5.11968 410.587 5.64033C411.282 6.16097 411.802 6.88409 412.149 7.80968C412.496 8.67743 412.67 9.83442 412.67 11.2807V52.4117C412.67 55.1306 411.397 57.2999 408.852 58.9197C407.174 60.0189 405.005 60.9734 402.344 61.7833C399.683 62.651 396.617 63.0849 393.146 63.0849C389.385 63.0849 386.001 62.5642 382.993 61.5229C380.043 60.4817 377.526 58.9776 375.444 57.0107C373.419 55.0438 371.857 52.7009 370.758 49.982C369.717 47.2052 369.196 44.0813 369.196 40.6104ZM393.84 29.7636C390.716 29.7636 388.315 30.6602 386.638 32.4536C384.96 34.2469 384.121 36.9658 384.121 40.6104C384.121 44.197 384.902 46.916 386.464 48.7671C388.026 50.5605 390.282 51.4571 393.232 51.4571C394.274 51.4571 395.199 51.3125 396.009 51.0233C396.877 50.6762 397.542 50.3002 398.005 49.8952V30.8049C396.848 30.1107 395.46 29.7636 393.84 29.7636Z" fill="white"/>
<path d="M421.515 7.80968C421.515 5.6114 422.239 3.76022 423.685 2.25613C425.189 0.752041 427.156 0 429.585 0C432.015 0 433.953 0.752041 435.399 2.25613C436.903 3.76022 437.655 5.6114 437.655 7.80968C437.655 10.008 436.903 11.8591 435.399 13.3632C433.953 14.8673 432.015 15.6194 429.585 15.6194C427.156 15.6194 425.189 14.8673 423.685 13.3632C422.239 11.8591 421.515 10.008 421.515 7.80968ZM436.961 61.6097C436.325 61.7254 435.37 61.8701 434.098 62.0436C432.883 62.275 431.639 62.3907 430.366 62.3907C429.094 62.3907 427.937 62.3039 426.895 62.1304C425.912 61.9568 425.073 61.6097 424.379 61.0891C423.685 60.5684 423.135 59.8742 422.73 59.0065C422.383 58.0809 422.21 56.895 422.21 55.4488V20.1316C422.846 20.0159 423.772 19.8713 424.986 19.6978C426.259 19.4664 427.532 19.3507 428.805 19.3507C430.077 19.3507 431.205 19.4374 432.189 19.611C433.23 19.7845 434.098 20.1316 434.792 20.6523C435.486 21.1729 436.007 21.896 436.354 22.8216C436.759 23.6894 436.961 24.8464 436.961 26.2926V61.6097Z" fill="white"/>
<path d="M490 40.6104C490 44.197 489.45 47.4077 488.351 50.2423C487.252 53.0191 485.69 55.362 483.665 57.271C481.699 59.18 479.327 60.6263 476.55 61.6097C473.773 62.5932 470.678 63.0849 467.265 63.0849C463.852 63.0849 460.757 62.5642 457.98 61.5229C455.204 60.4817 452.803 59.0065 450.778 57.0975C448.811 55.1306 447.278 52.7588 446.179 49.982C445.08 47.2052 444.53 44.0813 444.53 40.6104C444.53 37.1972 445.08 34.1023 446.179 31.3255C447.278 28.5487 448.811 26.2058 450.778 24.2968C452.803 22.3299 455.204 20.8258 457.98 19.7845C460.757 18.7432 463.852 18.2226 467.265 18.2226C470.678 18.2226 473.773 18.7722 476.55 19.8713C479.327 20.9126 481.699 22.4167 483.665 24.3836C485.69 26.2926 487.252 28.6355 488.351 31.4123C489.45 34.1891 490 37.2551 490 40.6104ZM459.629 40.6104C459.629 44.1392 460.294 46.8581 461.625 48.7671C463.013 50.6183 464.922 51.5439 467.352 51.5439C469.782 51.5439 471.633 50.5894 472.905 48.6804C474.236 46.7713 474.901 44.0813 474.901 40.6104C474.901 37.1394 474.236 34.4783 472.905 32.6271C471.575 30.7181 469.695 29.7636 467.265 29.7636C464.835 29.7636 462.955 30.7181 461.625 32.6271C460.294 34.4783 459.629 37.1394 459.629 40.6104Z" fill="white"/>
<path d="M221.192 4.28345C221.891 2.39477 224.562 2.39477 225.261 4.28345L226.689 8.14201C226.909 8.7358 227.377 9.20397 227.971 9.4237L231.829 10.8515C233.718 11.5504 233.718 14.2217 231.829 14.9206L227.971 16.3484C227.377 16.5681 226.909 17.0362 226.689 17.63L225.261 21.4886C224.562 23.3773 221.891 23.3773 221.192 21.4886L219.764 17.63C219.545 17.0362 219.076 16.5681 218.483 16.3484L214.624 14.9206C212.735 14.2217 212.735 11.5504 214.624 10.8515L218.483 9.4237C219.076 9.20397 219.545 8.7358 219.764 8.14201L221.192 4.28345Z" fill="#F2C94C"/>
</svg>
