<svg width="464" height="71" viewBox="0 0 464 71" fill="none" xmlns="http://www.w3.org/2000/svg">
<path d="M27.7031 70.2188C22.1406 70.2188 17.2031 69.6875 12.8906 68.625C8.57813 67.5625 4.28125 65.5625 0 62.625L0 44.9062H12.7031L14.1094 54C15.1094 55.125 16.875 56.0781 19.4063 56.8594C21.9375 57.6094 24.7031 57.9844 27.7031 57.9844C29.7969 57.9844 31.5469 57.7344 32.9531 57.2344C34.3594 56.7031 35.4219 55.9375 36.1406 54.9375C36.8594 53.9375 37.2188 52.7344 37.2188 51.3281C37.2188 49.9844 36.875 48.7812 36.1875 47.7187C35.5313 46.6562 34.4375 45.6562 32.9063 44.7187C31.375 43.75 29.3125 42.7656 26.7188 41.7656C20.875 39.8906 16.0781 37.9844 12.3281 36.0469C8.57813 34.1094 5.78125 31.8125 3.9375 29.1562C2.125 26.5 1.21875 23.2031 1.21875 19.2656C1.21875 15.4844 2.29688 12.1875 4.45313 9.375C6.60938 6.53125 9.57812 4.29687 13.3594 2.67187C17.1406 1.04687 21.4688 0.1875 26.3438 0.09375C31.9062 -0.03125 36.8281 0.53125 41.1094 1.78125C45.3906 3 49.1719 4.85937 52.4531 7.35937L52.4531 23.8125H40.2656L38.3438 14.6719C37.2812 14.1406 35.7656 13.6562 33.7969 13.2187C31.8281 12.7812 29.7344 12.5625 27.5156 12.5625C25.6094 12.5625 23.9063 12.8125 22.4063 13.3125C20.9375 13.8125 19.7656 14.5625 18.8906 15.5625C18.0469 16.5625 17.625 17.8125 17.625 19.3125C17.625 20.5312 17.9844 21.625 18.7031 22.5937C19.4219 23.5312 20.6875 24.4844 22.5 25.4531C24.3125 26.3906 26.8438 27.4844 30.0938 28.7344C37.8438 31.0156 43.7188 33.875 47.7188 37.3125C51.75 40.7187 53.7656 45.3594 53.7656 51.2344C53.7656 55.2656 52.6719 58.7031 50.4844 61.5469C48.2969 64.3594 45.25 66.5156 41.3438 68.0156C37.4375 69.4844 32.8906 70.2188 27.7031 70.2188Z" fill="black"/>
<path d="M67.0687 69.2344V59.625L74.1469 58.125L74.1469 12.1406L67.0687 10.6406V0.984375L121.584 0.984375V20.6719L109.162 20.6719L108.787 13.6406L90.6 13.6406V27.6562L112.397 27.6562V40.2656L90.6 40.2656L90.6 56.5312H109.678L110.053 49.1719L122.334 49.1719V69.2344H67.0687Z" fill="black"/>
<path d="M138.075 69.2344V59.625L145.153 58.125V12.1406L138.075 10.6406V0.9375L171.637 0.9375C177.044 0.9375 181.731 1.79687 185.7 3.51562C189.669 5.23437 192.731 7.6875 194.887 10.875C197.044 14.0312 198.122 17.7812 198.122 22.125C198.122 26.125 197.028 29.8437 194.841 33.2812C192.684 36.7187 189.716 39.4844 185.934 41.5781C182.153 43.6406 177.841 44.6562 172.997 44.625L161.606 44.4844V58.125L168.684 59.625V69.2344H138.075ZM181.294 69.2344L172.106 42.6094L186.403 37.7344L194.7 58.0312L201.169 59.6719V69.2344H181.294ZM161.606 31.875L171.825 31.875C175.012 31.875 177.466 31.1406 179.184 29.6719C180.903 28.1719 181.762 26.0156 181.762 23.2031C181.762 20.2969 180.887 17.9687 179.137 16.2187C177.387 14.4375 174.887 13.5469 171.637 13.5469L161.606 13.5469V31.875Z" fill="black"/>
<path d="M236.503 69.2344L215.128 11.3906L208.659 10.6406V0.984375L239.269 0.984375V10.6406L233.175 11.5781L245.409 49.9219L246.066 52.5937H246.347L246.956 50.0625L258.816 11.5781L251.503 10.6406V0.984375L280.097 0.984375V10.6406L273.441 11.3906L254.316 69.2344H236.503Z" fill="black"/>
<path d="M292.181 69.2344V59.625L299.259 58.125V12.1406L292.181 10.6406V0.984375L322.744 0.984375V10.6406L315.666 12.1406V58.125L322.744 59.625V69.2344L292.181 69.2344Z" fill="black"/>
<path d="M369.609 70.2187C363.109 70.2187 357.312 68.9062 352.219 66.2812C347.125 63.6562 343.125 59.8594 340.219 54.8906C337.312 49.8906 335.859 43.8281 335.859 36.7031V33.5625C335.859 27 337.188 21.2031 339.844 16.1719C342.531 11.1094 346.344 7.15625 351.281 4.3125C356.25 1.4375 362.141 0 368.953 0C373.703 0 378.219 0.640625 382.5 1.92187C386.812 3.17187 390.812 5.32812 394.5 8.39062V25.9687L382.547 25.9687L380.906 15.8906C379.844 15.1719 378.719 14.5469 377.531 14.0156C376.375 13.4844 375.125 13.0781 373.781 12.7969C372.469 12.5156 371.047 12.375 369.516 12.375C366.047 12.375 363.016 13.2031 360.422 14.8594C357.828 16.5156 355.812 18.9219 354.375 22.0781C352.969 25.2031 352.266 29 352.266 33.4687V36.7031C352.266 40.8906 353 44.5781 354.469 47.7656C355.938 50.9219 357.984 53.3906 360.609 55.1719C363.266 56.9531 366.328 57.8437 369.797 57.8437C371.641 57.8437 373.516 57.6562 375.422 57.2812C377.328 56.875 379.172 56.3437 380.953 55.6875L382.594 46.0312H394.594V63.2344C391.875 65.1094 388.406 66.75 384.188 68.1562C379.969 69.5312 375.109 70.2187 369.609 70.2187Z" fill="black"/>
<path d="M408.506 69.2344V59.625L415.584 58.125V12.1406L408.506 10.6406V0.984375L463.022 0.984375V20.6719L450.6 20.6719L450.225 13.6406L432.038 13.6406V27.6562L453.834 27.6562V40.2656H432.038V56.5312H451.116L451.491 49.1719H463.772V69.2344H408.506Z" fill="black"/>
<path fill-rule="evenodd" clip-rule="evenodd" d="M369.641 69.9844C363.141 69.9844 357.344 68.6719 352.25 66.0469C347.156 63.4219 343.156 59.625 340.25 54.6562C337.344 49.6562 335.891 43.5938 335.891 36.4688V33.3281C335.891 32.8819 335.897 32.4392 335.909 32H352.315C352.303 32.4056 352.297 32.8171 352.297 33.2344V36.4688C352.297 40.6562 353.031 44.3438 354.5 47.5312C355.969 50.6875 358.016 53.1562 360.641 54.9375C363.297 56.7188 366.359 57.6094 369.828 57.6094C371.672 57.6094 373.547 57.4219 375.453 57.0469C377.359 56.6406 379.203 56.1094 380.984 55.4531L382.625 45.7969H394.625V63C391.906 64.875 388.438 66.5156 384.219 67.9219C380 69.2969 375.141 69.9844 369.641 69.9844ZM299.291 32H315.697V57.8906L322.775 59.3906V69H292.212V59.3906L299.291 57.8906V32ZM252.481 32H266.58L254.347 69H236.534L222.862 32H239.797L245.441 49.6875L246.097 52.3594H246.378L246.988 49.8281L252.481 32ZM145.184 32H195.499C195.301 32.3518 195.092 32.7008 194.872 33.0469C193.037 35.9714 190.615 38.4096 187.604 40.3616L194.731 57.7969L201.2 59.4375V69H181.325L172.832 44.3882L161.637 44.25V57.8906L168.716 59.3906V69H138.106V59.3906L145.184 57.8906V32ZM74.1781 32H112.428V40.0312H90.6312V56.2969H109.709L110.084 48.9375H122.366V69H67.1V59.3906L74.1781 57.8906V32ZM6.70852 32H39.5973C42.8653 33.523 45.5828 35.2157 47.75 37.0781C51.7812 40.4844 53.7969 45.125 53.7969 51C53.7969 55.0312 52.7031 58.4688 50.5156 61.3125C48.3281 64.125 45.2812 66.2812 41.375 67.7812C37.4688 69.25 32.9219 69.9844 27.7344 69.9844C22.1719 69.9844 17.2344 69.4531 12.9219 68.3906C8.60938 67.3281 4.3125 65.3281 0.03125 62.3906V44.6719H12.7344L14.1406 53.7656C15.1406 54.8906 16.9062 55.8438 19.4375 56.625C21.9688 57.375 24.7344 57.75 27.7344 57.75C29.8281 57.75 31.5781 57.5 32.9844 57C34.3906 56.4688 35.4531 55.7031 36.1719 54.7031C36.8906 53.7031 37.25 52.5 37.25 51.0938C37.25 49.75 36.9062 48.5469 36.2188 47.4844C35.5625 46.4219 34.4688 45.4219 32.9375 44.4844C31.4062 43.5156 29.3438 42.5312 26.75 41.5312C20.9062 39.6562 16.1094 37.75 12.3594 35.8125C10.1427 34.6672 8.25911 33.3964 6.70852 32ZM415.616 32H453.866V40.0312H432.069V56.2969H451.147L451.522 48.9375H463.803V69H408.538V59.3906L415.616 57.8906V32Z" fill="white"/>
</svg>
