<svg width="50" height="40" viewBox="0 0 50 40" fill="none" xmlns="http://www.w3.org/2000/svg">
<path d="M25.3606 29.6429C24.5171 29.6429 23.7335 29.2068 23.289 28.49L19.2919 22.0441L6.55622 39.025C6.09591 39.6388 5.37343 40 4.60616 40H0.029541L16.0998 18.2752L9.16851 8.12325H14.0529C14.9081 8.12325 15.7006 8.57126 16.1415 9.30383L19.0932 14.2087L28.9615 0.979987C29.4216 0.363288 30.1459 0 30.9154 0H35.7423L22.2297 17.869L30.4184 29.6429H25.3606Z" fill="#6000FF"/>
<path d="M43.92 29.6429L39.2687 21.1019H37.5055V29.6429H32.3983V8.12325H40.6064C41.64 8.12325 42.6432 8.2347 43.616 8.45759C44.6091 8.66022 45.4907 9.01483 46.2609 9.52141C47.0513 10.028 47.6795 10.6967 48.1457 11.5275C48.6118 12.3583 48.8449 13.3917 48.8449 14.6278C48.8449 16.0867 48.4497 17.3126 47.6593 18.3055C46.8689 19.2985 45.7744 20.0077 44.376 20.4332L50.0001 29.6429H43.92ZM43.7072 14.7189C43.7072 14.2124 43.5957 13.8071 43.3728 13.5031C43.1701 13.1789 42.8965 12.9358 42.552 12.7737C42.2277 12.5913 41.8528 12.4697 41.4272 12.4089C41.0219 12.3481 40.6266 12.3177 40.2416 12.3177H37.4751V17.3329H39.9376C40.3632 17.3329 40.7989 17.3025 41.2448 17.2417C41.6907 17.1607 42.096 17.029 42.4608 16.8466C42.8256 16.6642 43.1195 16.4008 43.3424 16.0563C43.5856 15.7118 43.7072 15.2661 43.7072 14.7189Z" fill="#6000FF"/>
<ellipse cx="2.64054" cy="27.206" rx="2.64054" ry="2.64005" fill="#222222"/>
</svg>
