<svg width="467" height="466" viewBox="0 0 467 466" fill="none" xmlns="http://www.w3.org/2000/svg">
<path d="M199 416C199 427.597 208.399 437 220 437H248C259.597 437 269 427.597 269 416V374H199V416Z" fill="#EBEBEB"/>
<path d="M165.761 297.729C159.599 293.761 153.788 289.264 148.4 284.295C143.8 301.972 126.415 313.18 108.403 310.086C90.3883 306.992 77.7476 290.629 79.313 272.43C80.8785 254.231 96.1307 240.264 114.411 240.292C115.487 240.292 116.523 240.515 117.552 240.608C110.874 224.919 107.43 208.047 107.433 191H98.4634L93.5949 214.143C93.1098 216.45 91.5031 218.362 89.3148 219.235C87.1232 220.112 84.6425 219.834 82.702 218.496L63.2317 205.083L42.0927 226.208L55.48 245.662C56.8184 247.605 57.0971 250.084 56.2198 252.271C55.3458 254.461 53.4329 256.067 51.1277 256.548L28 261.417V289.583L51.1552 294.449C53.4604 294.933 55.3734 296.539 56.2507 298.726C57.1246 300.913 56.8459 303.395 55.5076 305.334L42.0927 324.792L63.2317 345.917L82.702 332.535C84.6425 331.197 87.1266 330.915 89.3183 331.792C91.5099 332.665 93.1167 334.581 93.6018 336.888L98.4634 360H126.649L131.51 336.853C131.995 334.543 133.602 332.631 135.794 331.758C137.985 330.881 140.47 331.159 142.41 332.5L161.88 345.917L184 323.812C181.681 313.019 175.106 303.615 165.761 297.729Z" fill="#B48CF6"/>
<path d="M361 190.8C360.993 130.004 317.77 77.7663 257.977 66.2916C198.184 54.8169 138.646 87.3286 116.068 143.791C93.4903 200.253 114.222 264.77 165.485 297.571C177.232 304.842 184.449 317.6 184.621 331.4V359.867C184.621 371.537 194.095 381 205.787 381H262.228C273.917 381 283.393 371.537 283.393 359.867V331.985C283.573 317.858 290.934 304.794 302.936 297.31C339.156 273.961 361.024 233.848 361 190.8V190.8Z" fill="#FFC91D"/>
<path d="M404.157 116.407L426.291 99.8065L400.946 66.0108L378.811 82.6113C374.256 86.0249 368.093 86.3583 363.194 83.457C358.296 80.5556 355.628 74.99 356.429 69.3557L360.337 41.9747L318.519 36L314.61 63.3776C313.809 69.0188 309.688 73.6184 304.17 75.0312C298.653 76.4476 292.826 74.3987 289.409 69.8404L272.812 47.7052L239.021 73.0511L255.614 95.1863C259.028 99.7446 259.361 105.905 256.46 110.804C253.558 115.702 247.993 118.37 242.359 117.569L214.978 113.66L209 155.479L236.387 159.388C242.025 160.192 246.625 164.314 248.038 169.832C249.45 175.349 247.402 181.176 242.843 184.593L220.715 201.194L246.061 234.986L268.189 218.392C272.744 214.975 278.911 214.638 283.813 217.54C288.711 220.441 291.382 226.01 290.578 231.648L286.635 259.022L328.454 265L332.397 237.612C333.201 231.974 337.323 227.378 342.84 225.965C348.357 224.549 354.184 226.601 357.598 231.156L374.201 253.284L407.993 227.939L391.386 205.81C387.969 201.255 387.632 195.088 390.533 190.186C393.435 185.287 399.004 182.616 404.641 183.424L432.022 187.336L438 145.517L410.619 141.605C404.985 140.797 400.389 136.679 398.973 131.161C397.56 125.647 399.605 119.824 404.157 116.407V116.407ZM323.503 199.777C296.284 199.777 274.222 177.714 274.222 150.495C274.222 123.279 296.284 101.212 323.503 101.212C350.722 101.212 372.785 123.279 372.785 150.495C372.785 177.714 350.722 199.777 323.503 199.777Z" fill="#6000FF"/>
<path d="M199 395H269V409H199V395Z" fill="#9E9E9E"/>
<path d="M227.027 338.809H241.099V359.917H227.027V338.809Z" fill="#FFAA00"/>
<path d="M241.099 324.737H227.027C227.02 306.134 215.549 289.458 198.179 282.8C163.552 269.26 139.497 237.379 135.986 200.365C132.475 163.35 150.102 127.514 181.565 107.705L189.03 119.609C162.054 136.584 146.935 167.304 149.944 199.038C152.95 230.769 173.57 258.102 203.257 269.707C226.062 278.43 241.116 300.321 241.099 324.737V324.737Z" fill="#FFAA00"/>
<path d="M374.782 289.558H409.962C413.847 289.558 416.998 292.705 416.998 296.594C416.998 300.479 413.847 303.63 409.962 303.63H374.782C370.896 303.63 367.746 300.479 367.746 296.594C367.746 292.705 370.896 289.558 374.782 289.558Z" fill="#FFC91D"/>
<path d="M360.71 331.777C363.197 328.792 367.633 328.386 370.618 330.873L402.026 357.042C405.011 359.529 405.417 363.964 402.929 366.95C400.438 369.935 396.003 370.341 393.018 367.853L361.61 341.685C358.625 339.198 358.223 334.762 360.71 331.777V331.777Z" fill="#FFC91D"/>
<path d="M332.566 345.845C336.452 345.845 339.602 348.992 339.602 352.881V388.061C339.602 391.946 336.452 395.097 332.566 395.097C328.681 395.097 325.53 391.946 325.53 388.061V352.881C325.53 348.992 328.681 345.845 332.566 345.845Z" fill="#FFC91D"/>
<path d="M35.1429 147.334L77.7778 136.684C81.55 135.743 85.3668 138.034 86.3081 141.803C87.2495 145.572 84.958 149.389 81.1858 150.33L38.551 160.98C34.7788 161.921 30.9619 159.63 30.0206 155.861C29.0792 152.092 31.3707 148.275 35.1429 147.334Z" fill="#FFC91D"/>
<path d="M44.089 71.4467C46.3462 68.286 50.7402 67.5577 53.9009 69.8149L91.6985 96.8146C94.8626 99.0718 95.5944 103.466 93.3372 106.626C91.0801 109.787 86.6861 110.519 83.5254 108.258L45.7278 81.2586C42.5637 79.0014 41.8319 74.6074 44.089 71.4467V71.4467Z" fill="#FFC91D"/>
<path d="M107.103 29.2208C110.869 28.2588 114.699 30.5297 115.661 34.295L126.566 76.947C127.527 80.7124 125.257 84.5464 121.491 85.5083C117.726 86.4703 113.895 84.196 112.933 80.4341L102.029 37.7821C101.067 34.0168 103.338 30.1827 107.103 29.2208V29.2208Z" fill="#FFC91D"/>
</svg>
