<svg width="512" height="512" viewBox="0 0 512 512" fill="none" xmlns="http://www.w3.org/2000/svg">
<path d="M461.125 52H136.456C126.368 52 118.19 60.1775 118.19 70.2655V147.391H268.857C273.9 147.391 277.989 151.481 277.989 156.524V317.558H461.125C471.213 317.558 479.39 309.381 479.39 299.293V70.2655C479.39 60.1775 471.213 52 461.125 52V52Z" fill="#58595B"/>
<path d="M468.632 53.6255C469.667 55.9178 470.257 58.4531 470.257 61.1326V290.16C470.257 300.248 462.08 308.425 451.992 308.425H277.989V317.558H461.125C471.213 317.558 479.39 309.381 479.39 299.293V70.2653C479.39 62.855 474.972 56.4913 468.632 53.6255V53.6255Z" fill="#414042"/>
<path d="M277.989 363.227H352.971L343.257 317.558H277.989V363.227Z" fill="#939598"/>
<path d="M332.559 354.095H277.991V363.227H352.973L343.261 317.558H336.07L341.493 343.062C342.7 348.743 338.368 354.095 332.559 354.095V354.095Z" fill="#808285"/>
<path d="M392.521 363.228H277.989V387.285H401.654V372.36C401.654 367.317 397.564 363.228 392.521 363.228V363.228Z" fill="#58595B"/>
<path d="M392.521 363.228V374.499C392.521 376.516 390.886 378.152 388.868 378.152H277.989V387.285H401.654V372.36C401.654 367.317 397.564 363.228 392.521 363.228V363.228Z" fill="#414042"/>
<path d="M447.382 74.8755H150.2C145.157 74.8755 141.068 78.9651 141.068 84.0082V147.389H268.858C273.902 147.389 277.991 151.479 277.991 156.522V278.34H447.383C452.426 278.34 456.516 274.25 456.516 269.207V84.0082C456.514 78.9633 452.425 74.8755 447.382 74.8755V74.8755Z" fill="#F1F2F2"/>
<path d="M252.999 89.4878H252.487C250.471 89.4878 248.834 87.8512 248.834 85.8347C248.834 83.8182 250.471 82.1816 252.487 82.1816H252.999C255.015 82.1816 256.652 83.8182 256.652 85.8347C256.652 87.8512 255.015 89.4878 252.999 89.4878ZM237.875 89.4878H152.027C150.01 89.4878 148.374 87.8512 148.374 85.8347C148.374 83.8182 150.01 82.1816 152.027 82.1816H237.875C239.891 82.1816 241.528 83.8182 241.528 85.8347C241.528 87.8512 239.891 89.4878 237.875 89.4878Z" fill="white"/>
<path d="M447.382 74.8755H438.249V250.944C438.249 255.987 434.159 260.076 429.116 260.076H277.989V278.342H447.382C452.425 278.342 456.514 274.252 456.514 269.209V84.0082C456.514 78.9633 452.425 74.8755 447.382 74.8755V74.8755Z" fill="#E6E7E8"/>
<path d="M447.382 74.8755V260.076C447.382 265.12 443.292 269.209 438.249 269.209H277.989V278.342H447.382C452.425 278.342 456.514 274.252 456.514 269.209V84.0082C456.514 78.9633 452.425 74.8755 447.382 74.8755V74.8755Z" fill="#D1D3D4"/>
<path d="M425.251 99.5615H172.327C170.309 99.5615 168.674 101.196 168.674 103.215V147.392H268.857C273.9 147.392 277.989 151.481 277.989 156.524V168.41H425.251C427.27 168.41 428.904 166.773 428.904 164.756V103.215C428.904 101.196 427.27 99.5615 425.251 99.5615V99.5615Z" fill="#6000FF"/>
<path d="M330.862 181.961H277.989V252.398H330.862C332.881 252.398 334.516 250.763 334.516 248.745V185.614C334.516 183.598 332.879 181.961 330.862 181.961Z" fill="#FFC91D"/>
<path d="M357.453 248.745V185.614C357.453 183.596 359.088 181.961 361.106 181.961H425.251C427.269 181.961 428.904 183.596 428.904 185.614V248.745C428.904 250.763 427.269 252.398 425.251 252.398H361.106C359.09 252.398 357.453 250.763 357.453 248.745Z" fill="#FFC91D"/>
<path d="M298.79 307.032C304.204 307.032 308.593 302.643 308.593 297.229C308.593 291.815 304.204 287.426 298.79 287.426C293.376 287.426 288.987 291.815 288.987 297.229C288.987 302.643 293.376 307.032 298.79 307.032Z" fill="#939598"/>
<path d="M268.857 147.389H112.61C107.567 147.389 103.477 151.479 103.477 156.522V236.302H148.67C153.713 236.302 157.803 240.391 157.803 245.435V423.813H268.858C273.902 423.813 277.991 419.724 277.991 414.681V156.522C277.989 151.479 273.902 147.389 268.857 147.389V147.389Z" fill="#58595B"/>
<path d="M268.857 147.389V405.55C268.857 410.593 264.767 414.683 259.724 414.683H157.803V423.815H268.858C273.902 423.815 277.991 419.726 277.991 414.683V156.522C277.989 151.479 273.902 147.389 268.857 147.389V147.389Z" fill="#414042"/>
<path d="M103.477 173.599V236.304H148.67C153.713 236.304 157.803 240.394 157.803 245.437V386.338H277.991V173.599H103.477Z" fill="#F1F2F2"/>
<path d="M268.857 173.599V368.073C268.857 373.116 264.767 377.206 259.724 377.206H157.803V386.338H277.991V173.599H268.857Z" fill="#E6E7E8"/>
<path d="M178.76 296.606H157.803V360.877H178.762C180.781 360.877 182.415 359.242 182.415 357.224V300.259C182.413 298.241 180.779 296.606 178.76 296.606V296.606Z" fill="#FFC91D"/>
<path d="M260.886 198.856H120.583C118.565 198.856 116.93 200.491 116.93 202.509V236.304H148.67C153.713 236.304 157.803 240.393 157.803 245.437V285.595H260.886C262.904 285.595 264.539 283.96 264.539 281.942V202.509C264.539 200.491 262.902 198.856 260.886 198.856Z" fill="#6000FF"/>
<path d="M195.63 357.224V300.259C195.63 298.241 197.265 296.606 199.283 296.606H257.463C259.481 296.606 261.116 298.241 261.116 300.259V357.224C261.116 359.242 259.481 360.877 257.463 360.877H199.283C197.267 360.877 195.63 359.24 195.63 357.224V357.224Z" fill="#FFC91D"/>
<path d="M211.916 163.611H169.551C167.982 163.611 166.7 162.327 166.7 160.759C166.7 159.19 167.984 157.908 169.551 157.908H211.916C213.485 157.908 214.767 159.192 214.767 160.759C214.767 162.328 213.485 163.611 211.916 163.611V163.611Z" fill="#939598"/>
<path d="M226.174 163.888C227.902 163.888 229.303 162.487 229.303 160.759C229.303 159.031 227.902 157.63 226.174 157.63C224.446 157.63 223.045 159.031 223.045 160.759C223.045 162.487 224.446 163.888 226.174 163.888Z" fill="#939598"/>
<path d="M207.855 410.407H173.611C171.602 410.407 169.958 408.763 169.958 406.754V400.209C169.958 398.2 171.602 396.556 173.611 396.556H207.855C209.865 396.556 211.509 398.2 211.509 400.209V406.754C211.509 408.763 209.865 410.407 207.855 410.407Z" fill="#939598"/>
<path d="M148.67 460.347H42.1327C37.0896 460.347 33 456.257 33 451.214V245.437C33 240.394 37.0896 236.304 42.1327 236.304H148.67C153.713 236.304 157.803 240.394 157.803 245.437V451.214C157.803 456.259 153.713 460.347 148.67 460.347Z" fill="#58595B"/>
<path d="M148.67 236.304V442.081C148.67 447.124 144.58 451.214 139.537 451.214H33C33 456.257 37.0896 460.347 42.1327 460.347H148.67C153.713 460.347 157.803 456.257 157.803 451.214V245.437C157.803 240.392 153.713 236.304 148.67 236.304Z" fill="#414042"/>
<path d="M157.803 257.545V429.971H33V257.545H157.803Z" fill="#F1F2F2"/>
<path d="M148.67 257.545V411.706C148.67 416.749 144.58 420.838 139.537 420.838H33V429.971H157.803V257.545H148.67Z" fill="#E6E7E8"/>
<path d="M51.8299 324.632V280.032C51.8299 278.013 53.4647 276.378 55.483 276.378H135.318C137.336 276.378 138.971 278.013 138.971 280.032V324.632C138.971 326.65 137.336 328.285 135.318 328.285H55.483C53.4665 328.285 51.8299 326.649 51.8299 324.632V324.632Z" fill="#6000FF"/>
<path d="M51.8299 407.488V340.289C51.8299 338.271 53.4647 336.636 55.483 336.636H135.318C137.336 336.636 138.971 338.271 138.971 340.289V407.488C138.971 409.506 137.336 411.141 135.318 411.141H55.483C53.4665 411.141 51.8299 409.505 51.8299 407.488V407.488Z" fill="#FFC91D"/>
<path d="M112.57 249.452H78.2327C76.9614 249.452 75.9221 248.412 75.9221 247.141C75.9221 245.87 76.9614 244.831 78.2327 244.831H112.57C113.841 244.831 114.881 245.87 114.881 247.141C114.881 248.412 113.841 249.452 112.57 249.452Z" fill="#939598"/>
<path d="M124.125 249.678C125.526 249.678 126.662 248.542 126.662 247.141C126.662 245.74 125.526 244.604 124.125 244.604C122.723 244.604 121.588 245.74 121.588 247.141C121.588 248.542 122.723 249.678 124.125 249.678Z" fill="#939598"/>
<path d="M108.586 449.481H82.2145C80.2053 449.481 78.5614 447.837 78.5614 445.828V441.908C78.5614 439.899 80.2053 438.255 82.2145 438.255H108.584C110.594 438.255 112.237 439.899 112.237 441.908V445.828C112.239 447.837 110.595 449.481 108.586 449.481V449.481Z" fill="#939598"/>
</svg>
