<svg width="512" height="512" viewBox="0 0 512 512" fill="none" xmlns="http://www.w3.org/2000/svg">
<path d="M470.316 301.972C470.316 301.972 458.463 322.988 456.845 325.411C453.344 331.879 444.992 334.033 438.525 330.53C435.831 328.914 417.78 318.676 415.625 317.059C408.35 323.257 399.998 328.376 390.3 331.878V350.199C390.3 357.741 384.374 363.67 376.829 363.67H349.887C342.343 363.67 336.416 357.741 336.416 350.199V331.878C326.717 328.376 318.366 323.257 311.091 317.059L269.062 339.691L229.997 345.887L241.851 293.352L283.88 270.72C283.073 265.87 282.533 261.021 282.533 255.902C282.533 250.783 283.073 245.933 284.149 241.084L242.12 218.452L228.38 168.878L269.332 172.113L311.092 194.743C318.637 188.277 326.989 183.429 336.417 179.925V161.607C336.417 154.062 342.344 148.136 349.888 148.136H376.83C384.374 148.136 390.301 154.062 390.301 161.607V179.927C400 183.429 408.081 188.548 415.357 194.745C415.357 194.745 415.357 194.745 415.626 194.745C418.319 193.128 436.372 182.891 438.525 181.274C444.993 177.772 453.075 179.927 456.846 186.124C456.846 186.124 468.7 207.139 470.317 209.563C474.089 216.029 471.935 224.381 465.467 228.153C462.504 229.5 444.723 239.469 442.568 241.086C443.644 245.935 444.184 250.785 444.184 255.904C444.184 261.022 443.644 265.872 442.837 270.721C445.801 272.069 463.313 282.036 465.467 283.653C471.934 287.424 474.088 295.506 470.316 301.972Z" fill="#9774D2"/>
<path d="M470.316 301.972C470.316 301.972 458.463 322.988 456.845 325.411C453.344 331.879 444.992 334.033 438.525 330.53C435.831 328.914 417.78 318.676 415.625 317.059C408.35 323.257 399.998 328.376 390.3 331.878V350.199C390.3 357.741 384.374 363.67 376.829 363.67H363.358V148.136H376.829C384.374 148.136 390.3 154.062 390.3 161.607V179.927C399.999 183.429 408.08 188.548 415.356 194.745C415.356 194.745 415.356 194.745 415.625 194.745C418.318 193.128 436.371 182.891 438.525 181.274C444.992 177.772 453.074 179.927 456.845 186.124C456.845 186.124 468.699 207.139 470.316 209.563C474.088 216.029 471.934 224.381 465.466 228.153C462.503 229.5 444.722 239.469 442.567 241.086C443.644 245.935 444.183 250.785 444.183 255.904C444.183 261.022 443.644 265.872 442.836 270.721C445.8 272.069 463.312 282.036 465.466 283.653C471.934 287.424 474.088 295.506 470.316 301.972Z" fill="#6000FF"/>
<path d="M254.782 423.21C254.782 423.21 242.929 444.226 241.311 446.65C237.811 453.117 229.459 455.271 222.991 451.768C220.298 450.152 202.247 439.914 200.091 438.298C192.816 444.495 184.464 449.345 174.766 453.116V472.335C174.766 479.878 168.84 485.806 161.295 485.806H134.353C126.809 485.806 120.883 479.878 120.883 472.335V453.116C111.184 449.345 102.832 444.495 95.5573 438.298C92.8641 439.914 74.8113 450.152 72.6578 451.768C66.19 455.271 57.8389 453.116 54.3374 446.65C52.7191 443.956 42.483 425.636 40.8665 423.48C37.0947 417.014 39.2482 408.932 45.4457 405.159C45.7151 405.159 65.9214 393.574 68.3453 391.958C67.5379 386.839 66.9982 382.259 66.9982 377.14C66.9982 372.021 67.5379 367.171 68.6147 362.322C65.6511 360.974 47.8687 351.005 45.7151 349.389C39.2473 345.617 37.0938 337.265 40.8656 330.799C42.4821 328.106 52.7182 309.786 54.3365 307.629C57.8371 301.163 65.9214 299.008 72.3866 302.51C72.3866 302.51 93.1308 314.365 95.5564 315.981C103.101 309.515 111.453 304.667 120.882 301.163C120.882 301.163 120.882 258.594 120.882 255.901L147.823 228.959L174.765 255.901C174.765 255.901 174.765 298.468 174.765 301.163C184.194 304.666 192.546 309.515 200.09 315.981L241.85 293.351L269.061 339.69L227.032 362.322C228.109 367.171 228.649 372.021 228.649 377.14C228.649 382.259 228.109 387.108 227.301 391.958C230.265 393.305 247.777 403.272 249.932 404.889C256.4 408.662 258.554 416.744 254.782 423.21Z" fill="#FF641A"/>
<path d="M254.782 423.21C254.782 423.21 242.929 444.225 241.311 446.649C237.811 453.117 229.459 455.271 222.991 451.768C220.298 450.152 202.247 439.914 200.091 438.297C192.816 444.495 184.464 449.344 174.766 453.116V472.335C174.766 479.877 168.84 485.805 161.295 485.805H147.824V228.961L174.766 255.903C174.766 255.903 174.766 298.47 174.766 301.165C184.195 304.667 192.547 309.517 200.091 315.983L241.851 293.353L269.062 339.691L227.033 362.323C228.11 367.173 228.649 372.022 228.649 377.141C228.649 382.26 228.11 387.11 227.302 391.959C230.266 393.306 247.778 403.274 249.933 404.89C256.4 408.661 258.554 416.744 254.782 423.21Z" fill="#F03800"/>
<path d="M269.331 172.114L242.12 218.453L200.091 195.821C196.319 199.056 192.279 201.749 188.237 204.442C183.927 206.868 179.345 209.023 174.766 210.64C174.766 210.64 174.766 253.207 174.766 255.902H120.883C120.883 255.902 120.883 213.333 120.883 210.64C111.184 207.137 102.832 202.018 95.5573 195.821C92.8641 197.437 74.8113 207.675 72.6578 209.292C66.19 212.794 57.8389 210.64 54.3374 204.173C52.7191 201.48 42.483 183.159 40.8665 181.003C37.0947 174.537 39.2482 166.455 45.4457 162.683C45.7151 162.683 65.9214 151.098 68.3453 149.481C67.5379 144.632 66.9982 139.782 66.9982 134.663C66.9982 129.544 67.5379 124.695 68.6147 119.845C65.6511 118.497 47.8687 108.529 45.7151 106.912C39.2473 103.14 37.0938 94.7885 40.8656 88.3225C42.4821 85.6292 52.7182 67.3088 54.3365 65.1526C57.8371 58.6866 65.9214 56.5313 72.3866 60.0337C72.3866 60.0337 93.1308 71.888 95.5564 73.5045C103.101 67.0385 111.453 62.1899 120.882 58.6866V39.4709C120.882 31.9263 126.808 26 134.353 26H161.294C168.839 26 174.765 31.9263 174.765 39.4709V58.6893C184.194 62.1917 192.278 67.0412 199.821 73.5072C199.821 73.5072 199.821 73.5072 200.09 73.5072C202.784 71.8907 220.836 61.6529 222.99 60.0364C229.458 56.534 237.539 58.6893 241.31 64.8859C241.31 64.8859 253.165 85.9013 254.781 88.3252C258.553 94.7912 256.399 103.143 249.932 106.915C246.968 108.262 229.187 118.231 227.032 119.848C228.109 124.697 228.649 129.547 228.649 134.666C228.649 139.785 228.109 144.634 227.301 149.484L269.331 172.114Z" fill="#FFDA2D"/>
<path d="M269.331 172.114L242.12 218.453L200.091 195.821C196.319 199.056 192.279 201.749 188.237 204.442C183.927 206.868 179.345 209.023 174.766 210.64C174.766 210.64 174.766 253.207 174.766 255.902H147.824V26H161.295C168.84 26 174.766 31.9263 174.766 39.4709V58.6893C184.195 62.1917 192.279 67.0412 199.822 73.5072C199.822 73.5072 199.822 73.5072 200.091 73.5072C202.784 71.8907 220.837 61.6529 222.991 60.0364C229.459 56.534 237.54 58.6893 241.311 64.8859C241.311 64.8859 253.166 85.9013 254.782 88.3252C258.554 94.7912 256.4 103.143 249.933 106.915C246.969 108.262 229.188 118.231 227.033 119.848C228.11 124.697 228.649 129.547 228.649 134.666C228.649 139.785 228.11 144.634 227.302 149.484L269.331 172.114Z" fill="#FFC91D"/>
<path d="M413.199 219.53C408.08 214.143 399.461 214.143 394.341 219.53L363.357 250.244L349.886 263.715L332.373 246.472C327.254 241.085 318.635 241.085 313.515 246.472C308.127 251.591 308.127 260.212 313.515 265.331L340.457 292.273C342.881 294.968 346.383 296.315 349.885 296.315C353.388 296.315 356.89 294.968 359.314 292.273L363.356 288.233L413.198 238.39C418.588 233.271 418.588 224.649 413.199 219.53Z" fill="#47568C"/>
<path d="M197.666 340.769C192.547 335.381 183.927 335.381 178.807 340.769L147.823 371.482L134.353 384.953L116.84 367.71C111.721 362.323 103.101 362.323 97.9812 367.71C92.5929 372.829 92.5929 381.451 97.9812 386.57L124.923 413.511C127.347 416.206 130.849 417.553 134.352 417.553C137.854 417.553 141.356 416.206 143.78 413.511L147.822 409.471L197.664 359.628C203.054 354.509 203.054 345.888 197.666 340.769Z" fill="#47568C"/>
<path d="M197.666 98.2925C192.547 92.9051 183.927 92.9051 178.807 98.2925L147.823 129.006L134.353 142.477L116.84 125.234C111.721 119.847 103.101 119.847 97.9812 125.234C92.5929 130.353 92.5929 138.975 97.9812 144.093L124.923 171.035C127.347 173.73 130.849 175.077 134.352 175.077C137.854 175.077 141.356 173.73 143.78 171.035L147.822 166.995L197.664 117.152C203.054 112.033 203.054 103.411 197.666 98.2925Z" fill="#47568C"/>
<path d="M197.666 117.152L147.824 166.995V129.006L178.808 98.2925C183.927 92.9051 192.547 92.9051 197.666 98.2925C203.054 103.411 203.054 112.033 197.666 117.152Z" fill="#2C3B73"/>
<path d="M197.666 359.628L147.824 409.471V371.482L178.808 340.769C183.927 335.381 192.547 335.381 197.666 340.769C203.054 345.888 203.054 354.509 197.666 359.628Z" fill="#2C3B73"/>
<path d="M413.199 238.39L363.358 288.233V250.244L394.342 219.53C399.461 214.143 408.08 214.143 413.2 219.53C418.588 224.649 418.588 233.271 413.199 238.39Z" fill="#2C3B73"/>
</svg>
