<svg width="512" height="512" viewBox="0 0 512 512" fill="none" xmlns="http://www.w3.org/2000/svg">
<path d="M384 206.672V456C384 473.672 369.672 496 352 496H80C62.328 496 48 473.672 48 456V120C48 111.513 51.3714 103.374 57.3726 97.3726C63.3737 91.3714 71.5131 88 80 88H275.024L384 206.672Z" fill="#B8BCE1"/>
<path d="M80 88C71.5131 88 63.3737 91.3714 57.3726 97.3726C51.3714 103.374 48 111.513 48 120V221.736C80.56 320.424 165.144 442.104 384 447.768V206.672L275.024 88H80Z" fill="#E2E7F7"/>
<path d="M352 206.672V248C352 252.243 350.314 256.313 347.314 259.314C344.313 262.314 340.243 264 336 264H96C91.7565 264 87.6869 262.314 84.6863 259.314C81.6857 256.313 80 252.243 80 248V144C80 139.757 81.6857 135.687 84.6863 132.686C87.6869 129.686 91.7565 128 96 128H273.328L352 206.672Z" fill="#6000FF"/>
<path d="M224 376V296H208V376H96V392H208V464H224V392H336V376H224Z" fill="#2D2C29"/>
<path d="M248 440H312V456H248V440Z" fill="#2D2C29"/>
<path d="M248 408H312V424H248V408Z" fill="#2D2C29"/>
<path d="M136 360H152V336H176V320H152V296H136V320H112V336H136V360Z" fill="#2D2C29"/>
<path d="M112 424H176V440H112V424Z" fill="#2D2C29"/>
<path d="M261.208 358.072L284 338.536L306.792 358.072L317.208 345.928L296.296 328L317.208 310.072L306.792 297.928L284 317.464L261.208 297.928L250.792 310.072L271.704 328L250.792 345.928L261.208 358.072Z" fill="#2D2C29"/>
<path d="M96 128C92.7044 128.013 89.4933 129.044 86.8056 130.952C84.1179 132.859 82.0847 135.55 80.984 138.656C84.5493 167.714 98.6184 194.465 120.54 213.869C142.463 233.273 170.724 243.989 200 244H336C340.243 244 344.313 242.314 347.314 239.314C350.314 236.313 352 232.243 352 228V206.672L273.328 128H96Z" fill="#A068FC"/>
<path d="M232 162.04H107.128C103.945 162.04 100.893 160.776 98.6427 158.525C96.3923 156.275 95.128 153.223 95.128 150.04C95.128 146.857 96.3923 143.805 98.6427 141.555C100.893 139.304 103.945 138.04 107.128 138.04H232C235.183 138.04 238.235 139.304 240.485 141.555C242.736 143.805 244 146.857 244 150.04C244 153.223 242.736 156.275 240.485 158.525C238.235 160.776 235.183 162.04 232 162.04Z" fill="#EAFEFF"/>
<path d="M263.2 88C256.099 105.141 254.125 123.974 257.518 142.214C260.912 160.454 269.526 177.318 282.316 190.758C295.106 204.199 311.521 213.638 329.571 217.931C347.621 222.224 366.529 221.187 384 214.944V206.672L275.024 88H263.2Z" fill="#B8BCE1"/>
<path d="M273.328 128H256.176C257.059 152.828 267.539 176.346 285.412 193.603C303.285 210.859 327.156 220.509 352 220.52V206.672L273.328 128Z" fill="#A85BE5"/>
<path d="M368 208C421.019 208 464 165.019 464 112C464 58.9807 421.019 16 368 16C314.981 16 272 58.9807 272 112C272 165.019 314.981 208 368 208Z" fill="#FFC91D"/>
<path d="M368 188.176C410.071 188.176 444.176 154.071 444.176 112C444.176 69.9289 410.071 35.8237 368 35.8237C325.929 35.8237 291.824 69.9289 291.824 112C291.824 154.071 325.929 188.176 368 188.176Z" fill="#FFD55D"/>
<path d="M386.797 110.243H404.256V124.791H379.053V133.972H404.256V148.52H379.053V169H356.806V148.52H331.744V133.972H356.806V124.791H331.744V110.243H349.626L324 69H350.048L368.634 105.723L386.797 69H412L386.797 110.243Z" fill="#FFB127"/>
<path opacity="0.25" d="M450.208 161.392C462.127 141.641 466.525 118.255 462.595 95.5231C458.665 72.7916 446.67 52.2394 428.811 37.6369C410.952 23.0345 388.427 15.361 365.368 16.0243C342.309 16.6876 320.262 25.6431 303.272 41.248C308.992 78.88 335.072 152.456 450.208 161.392V161.392Z" fill="white"/>
</svg>
