<svg width="458" height="80" viewBox="0 0 458 80" fill="none" xmlns="http://www.w3.org/2000/svg">
<path d="M408.653 59.2857C406.966 59.2857 405.399 58.4136 404.511 56.98L396.518 44.0883L371.051 78.0501C370.131 79.2776 368.686 80 367.152 80H358L390.135 36.5503L376.275 16.2465H386.042C387.752 16.2465 389.336 17.1425 390.218 18.6077L396.12 28.4174L415.853 1.95997C416.773 0.726576 418.222 0 419.76 0H429.412L402.392 35.738L418.767 59.2857H408.653Z" fill="#6000FF"/>
<path d="M445.765 59.2857L436.464 42.2038H432.938V59.2857H422.726V16.2465H439.139C441.206 16.2465 443.212 16.4694 445.157 16.9152C447.143 17.3204 448.906 18.0297 450.446 19.0428C452.026 20.056 453.283 21.3934 454.215 23.055C455.147 24.7165 455.613 26.7834 455.613 29.2555C455.613 32.1734 454.823 34.6253 453.242 36.6111C451.662 38.5969 449.473 40.0153 446.677 40.8664L457.923 59.2857H445.765ZM445.339 29.4379C445.339 28.4247 445.117 27.6142 444.671 27.0063C444.266 26.3579 443.718 25.8716 443.029 25.5473C442.381 25.1826 441.631 24.9394 440.78 24.8179C439.97 24.6963 439.179 24.6355 438.409 24.6355H432.878V34.6658H437.802C438.653 34.6658 439.524 34.605 440.416 34.4835C441.307 34.3213 442.118 34.0579 442.847 33.6932C443.577 33.3284 444.164 32.8016 444.61 32.1127C445.096 31.4237 445.339 30.5321 445.339 29.4379Z" fill="#6000FF"/>
<path fill-rule="evenodd" clip-rule="evenodd" d="M39.2216 25.8262C42.7949 20.9416 44.5095 17.3453 43.4689 16.3019C42.4459 15.2762 38.9624 16.9203 34.2166 20.3804C30.633 17.6325 26.1534 16 21.2935 16C9.53343 16 0 25.5593 0 37.3512C0 42.3307 1.69996 46.912 4.54968 50.5435C1.79302 54.5711 0.565801 57.4797 1.48407 58.4005C2.41995 59.3389 5.41509 58.0428 9.55207 55.166C12.918 57.4009 16.9542 58.7024 21.2935 58.7024C33.0536 58.7024 42.587 49.1432 42.587 37.3512C42.587 33.1063 41.3516 29.1507 39.2216 25.8262ZM39.2216 25.8262C37.8798 23.732 36.1831 21.8883 34.2166 20.3804C29.872 23.548 24.4695 28.2375 18.9285 33.7936C12.7678 39.9709 7.67549 45.9765 4.54968 50.5435C5.95835 52.3386 7.64796 53.9016 9.55207 55.166C14.077 52.0194 19.968 46.9818 26.0245 40.9088C31.4614 35.4572 36.0661 30.1394 39.2216 25.8262Z" fill="#222222"/>
<path d="M75.843 59.1753L58.9108 31.6388H58.7325L58.9702 59.1753H49.1079V17.0676H60.6931L77.5659 44.5447H77.7441L77.5065 17.0676H87.3688V59.1753H75.843Z" fill="#222222"/>
<path d="M96.0451 59.1753V17.0676H124.325V25.6914H105.848V33.6014H123.315V41.7494H105.848V50.4921H125.394V59.1753H96.0451Z" fill="#222222"/>
<path d="M164.037 30.033C164.037 32.4913 163.581 34.5728 162.67 36.2778C161.759 37.943 160.531 39.2911 158.987 40.322C157.442 41.3529 155.66 42.1062 153.64 42.582C151.62 43.0578 149.521 43.2957 147.342 43.2957H142.292V59.1753H132.133V17.0676H147.58C149.877 17.0676 152.016 17.3055 153.996 17.7813C156.016 18.2175 157.759 18.951 159.224 19.9819C160.729 20.9731 161.898 22.3014 162.73 23.9666C163.601 25.5923 164.037 27.6144 164.037 30.033ZM153.877 30.0925C153.877 29.1012 153.679 28.2884 153.283 27.654C152.887 27.0196 152.352 26.524 151.679 26.1672C151.006 25.8103 150.233 25.5724 149.362 25.4535C148.53 25.3345 147.659 25.2751 146.748 25.2751H142.292V35.2072H146.57C147.52 35.2072 148.431 35.1279 149.303 34.9693C150.174 34.8107 150.946 34.5332 151.62 34.1367C152.333 33.7402 152.887 33.2248 153.283 32.5904C153.679 31.9163 153.877 31.0837 153.877 30.0925Z" fill="#222222"/>
<path d="M170.135 59.1753V17.0676H180.354V50.3137H196.633V59.1753H170.135Z" fill="#222222"/>
<path d="M229.925 59.1753L226.657 50.9084H210.378L207.289 59.1753H196.239L213.884 17.0676H223.746L241.213 59.1753H229.925ZM218.637 28.3082L213.29 42.7605H223.865L218.637 28.3082Z" fill="#222222"/>
<path d="M271.424 59.1753L254.492 31.6388H254.314L254.552 59.1753H244.689V17.0676H256.275L273.147 44.5447H273.326L273.088 17.0676H282.95V59.1753H271.424Z" fill="#222222"/>
<path d="M291.627 59.1753V17.0676H319.906V25.6914H301.429V33.6014H318.896V41.7494H301.429V50.4921H320.976V59.1753H291.627Z" fill="#222222"/>
<path d="M345.716 25.7509V59.1753H335.557V25.7509H323.674V17.0676H357.598V25.7509H345.716Z" fill="#222222"/>
<path d="M368.169 53.9416C368.169 55.6069 367.575 56.9946 366.387 58.1048C365.238 59.215 363.852 59.7701 362.228 59.7701C361.396 59.7701 360.604 59.6115 359.852 59.2943C359.139 59.0167 358.505 58.6202 357.95 58.1048C357.396 57.5893 356.96 56.9946 356.643 56.3206C356.327 55.6069 356.168 54.8337 356.168 54.0011C356.168 53.2081 356.327 52.4547 356.643 51.7411C356.96 51.0274 357.396 50.4128 357.95 49.8974C358.505 49.3423 359.139 48.9061 359.852 48.5889C360.604 48.2717 361.396 48.1131 362.228 48.1131C363.852 48.1131 365.238 48.6682 366.387 49.7784C367.575 50.8886 368.169 52.2763 368.169 53.9416Z" fill="#222222"/>
</svg>
