<svg width="131" height="73" viewBox="0 0 131 73" fill="none" xmlns="http://www.w3.org/2000/svg">
<path fill-rule="evenodd" clip-rule="evenodd" d="M36.2788 23.3085C39.5841 18.8027 41.1701 15.4852 40.2075 14.5227C39.2613 13.5764 36.0391 15.0931 31.6494 18.285C28.3346 15.7501 24.1911 14.2442 19.6959 14.2442C8.81816 14.2442 0 23.0623 0 33.9401C0 38.5335 1.5724 42.7596 4.20831 46.1096C1.65847 49.8249 0.52333 52.5081 1.37271 53.3575C2.23837 54.2231 5.00878 53.0275 8.83537 50.3737C11.9488 52.4354 15.6821 53.636 19.6959 53.636C30.5737 53.636 39.3918 44.8179 39.3918 33.9401C39.3918 30.0242 38.2491 26.3753 36.2788 23.3085ZM36.2788 23.3085C35.0378 21.3767 33.4684 19.6759 31.6494 18.285C27.6308 21.207 22.6336 25.5329 17.5083 30.6582C11.8098 36.3567 7.0996 41.8967 4.20831 46.1096C5.51128 47.7655 7.07413 49.2074 8.83537 50.3737C13.0208 47.4711 18.4698 42.824 24.0719 37.2219C29.1009 32.1929 33.3602 27.2874 36.2788 23.3085Z" fill="#222222"/>
<path d="M86.6406 53.3571C85.1225 53.3571 83.7124 52.5722 82.9125 51.282L75.7189 39.6794L52.7989 70.2451C51.9705 71.3498 50.6702 72 49.2894 72H41.053L69.9742 32.8953L57.5001 14.6218H66.2905C67.8294 14.6218 69.2558 15.4283 70.0492 16.7469L75.3613 25.5756L93.1211 1.76398C93.9491 0.653919 95.2525 0 96.6374 0H105.324L81.006 32.1642L95.743 53.3571H86.6406Z" fill="#6000FF"/>
<path d="M120.042 53.3571L111.671 37.9834H108.497V53.3571H99.3061V14.6218H114.078C115.938 14.6218 117.744 14.8225 119.494 15.2237C121.282 15.5884 122.868 16.2267 124.254 17.1385C125.677 18.0504 126.807 19.254 127.646 20.7495C128.485 22.2449 128.905 24.1051 128.905 26.33C128.905 28.9561 128.193 31.1628 126.771 32.95C125.348 34.7372 123.379 36.0138 120.862 36.7798L130.984 53.3571H120.042ZM119.659 26.4941C119.659 25.5823 119.458 24.8528 119.057 24.3057C118.692 23.7221 118.2 23.2844 117.58 22.9926C116.996 22.6643 116.321 22.4455 115.555 22.3361C114.826 22.2267 114.114 22.1719 113.421 22.1719H108.443V31.1992H112.874C113.64 31.1992 114.425 31.1445 115.227 31.0351C116.029 30.8892 116.759 30.6521 117.415 30.3239C118.072 29.9956 118.601 29.5214 119.002 28.9014C119.44 28.2813 119.659 27.4789 119.659 26.4941Z" fill="#6000FF"/>
<ellipse cx="45.7521" cy="48.9706" rx="4.7521" ry="4.7521" fill="#222222"/>
</svg>
